<?xml version="1.0" encoding="UTF-8"?>
<svg width="72px" height="40px" viewBox="0 0 72 40" version="1.1" xmlns="http://www.w3.org/2000/svg" xmlns:xlink="http://www.w3.org/1999/xlink">
    <!-- Generator: Sketch 61.1 (89650) - https://sketch.com -->
    <title>Archive categories</title>
    <desc>Created with Sketch.</desc>
    <g id="Archive-categories" stroke="none" stroke-width="1" fill="none" fill-rule="evenodd" opacity="0.25">
        <g id="document-(2)" transform="translate(21.000000, 2.000000)" fill="#FFFFFF" fill-rule="nonzero">
            <path d="M1.12846231,8.99015188 L1.24954324,8.99121951 L29.5310155,8.99121951 C30.1849224,9.03208869 30.7162217,9.56338803 30.6753525,10.2172949 L30.6753525,10.2172949 L30.6753525,34.820541 C30.6344834,35.4744479 30.103184,36.0057472 29.4492772,35.964878 L29.4492772,35.964878 L1.16780488,35.964878 C0.513898004,35.9240089 -0.0174013304,35.3927095 0.0234678492,34.7388027 L0.0234678492,34.7388027 L0.0234678492,10.1355565 C0.0643370288,9.48164967 0.595636364,8.95035033 1.24954324,8.99121951 Z M21.5191297,14.5892295 L21.3980488,14.5902971 L9.21903326,14.5902971 C8.56512639,14.6311663 8.03382705,15.1624656 8.07469623,15.8163725 L8.07469623,15.8163725 L8.07469623,19.0041685 C8.11556541,19.6580754 8.64686475,20.1893747 9.30077162,20.1485055 L9.30077162,20.1485055 L21.4797871,20.1485055 C22.133694,20.1076364 22.6649933,19.576337 22.6241242,18.9224302 L22.6241242,18.9224302 L22.6241242,15.7346341 C22.583255,15.0807273 22.0519557,14.5494279 21.3980488,14.5902971 Z M28.6318936,4.49560976 L28.6318936,6.94776053 L2.06692683,6.94776053 L2.06692683,4.49560976 L28.6318936,4.49560976 Z M26.5884346,-3.99680289e-14 L26.5884346,2.45215078 L4.11038581,2.45215078 L4.11038581,-3.99680289e-14 L26.5884346,-3.99680289e-14 Z" id="Combined-Shape"></path>
        </g>
    </g>
</svg>