<?xml version="1.0" encoding="UTF-8"?>
<svg width="59px" height="33px" viewBox="0 0 59 33" version="1.1" xmlns="http://www.w3.org/2000/svg" xmlns:xlink="http://www.w3.org/1999/xlink">
    <!-- Generator: Sketch 61.1 (89650) - https://sketch.com -->
    <title>Archive Courses</title>
    <desc>Created with Sketch.</desc>
    <g id="Archive-Courses" stroke="none" stroke-width="1" fill="none" fill-rule="evenodd" opacity="0.25">
        <g id="guide" transform="translate(21.000000, 7.000000)" fill="#FFFFFF" fill-rule="nonzero">
            <path d="M5.17046723e-14,4.27093508 C0.503234844,4.63394164 1.12030031,4.84863281 1.78680422,4.84863281 L1.78680422,4.84863281 L9.66934203,4.84863281 L9.66934203,8.42544555 C9.66934203,8.68728637 9.82940672,8.9224243 10.072937,9.01855469 C10.3164673,9.11468508 10.5941773,9.05197145 10.7728577,8.86077883 L10.7728577,8.86077883 L12.3942566,7.12524414 L14.0155029,8.86077883 C14.1384888,8.99230957 14.3083191,9.06311035 14.4815063,9.06311035 C14.5600891,9.06311035 14.6394348,9.04846191 14.715271,9.01855469 C14.9588013,8.9224243 15.118866,8.68728637 15.118866,8.42544555 L15.118866,8.42544555 L15.118866,4.84863281 L16.6171265,4.84863281 L16.6171265,18.5853577 C16.6171265,19.3666077 15.9837341,20 15.2024841,20 L15.2024841,20 L2.29675293,20 C1.0282898,20 5.17046723e-14,18.9717102 5.17046723e-14,17.7032471 L5.17046723e-14,17.7032471 Z M8.32809449,8.07022094 C7.92724609,8.07022094 7.57461547,8.32641602 7.4507141,8.70773316 L7.4507141,8.70773316 L6.90399172,10.3903198 L5.13473512,10.3903198 C4.73388672,10.3903198 4.38125609,10.6465149 4.25735473,11.027832 C4.13345336,11.4091492 4.26818848,11.8235779 4.59259031,12.0593262 L4.59259031,12.0593262 L6.02386477,13.0992127 L5.47714234,14.7817993 C5.35324098,15.1631164 5.48797609,15.5775452 5.81237793,15.8131409 C5.97442625,15.9309387 6.16455078,15.9898377 6.3545227,15.9898377 C6.54449461,15.9898377 6.73461914,15.9309387 6.8966675,15.8131409 L6.8966675,15.8131409 L8.32809449,14.7732544 L9.75936891,15.8131409 C10.0836182,16.0487366 10.5195618,16.0487366 10.843811,15.8131409 C11.1682129,15.5775452 11.302948,15.1631164 11.1790466,14.7816467 L11.1790466,14.7816467 L10.6323242,13.0992127 L12.0635986,12.0593262 C12.3880005,11.8235779 12.522583,11.4091492 12.3986816,11.027832 C12.2747803,10.6465149 11.9223023,10.3903198 11.5213013,10.3903198 L11.5213013,10.3903198 L9.75219727,10.3903198 L9.20547484,8.70773316 L9.16162307,8.5971115 C9.01056518,8.27773895 8.68885805,8.07022094 8.32809449,8.07022094 Z M8.17626953,10.6004334 C8.22402953,10.4534912 8.43200684,10.4534912 8.47976684,10.6004334 L8.47976684,10.6004334 L8.68255617,11.224823 C8.76800539,11.4874268 9.01275633,11.6653442 9.28894043,11.6653442 L9.28894043,11.6653442 L9.94537352,11.6653442 C10.0999451,11.6653442 10.1641846,11.8630981 10.0392151,11.9538879 L10.0392151,11.9538879 L9.50805664,12.3397827 C9.28451539,12.5021363 9.19097898,12.789917 9.2764282,13.0526734 L9.2764282,13.0526734 L9.47921754,13.6769104 C9.52697754,13.8238525 9.3588257,13.9460754 9.23385621,13.8552856 L9.23385621,13.8552856 L8.70269773,13.4693909 C8.59100344,13.3882141 8.45947266,13.3476257 8.32794188,13.3476257 C8.19641113,13.3476257 8.06488039,13.3882141 7.95318602,13.4693909 L7.95318602,13.4693909 L7.42218016,13.8552856 C7.2972107,13.9460754 7.12890625,13.8238525 7.17666625,13.6769104 L7.17666625,13.6769104 L7.37945555,13.0526734 C7.46490477,12.789917 7.3713684,12.5021363 7.14797973,12.3397827 L7.14797973,12.3397827 L6.61682129,11.9538879 C6.4918518,11.8630981 6.55609133,11.6653442 6.71051023,11.6653442 L6.71051023,11.6653442 L7.36709594,11.6653442 C7.64328004,11.6653442 7.88803102,11.4874268 7.97348023,11.224823 L7.97348023,11.224823 Z M15.7759094,0 C16.1247254,0 16.4237976,0.212249766 16.5513611,0.514678945 C16.5936279,0.615081797 16.6171265,0.725402813 16.6171265,0.841217031 L16.6171265,0.841217031 L16.6171265,1.1529541 L1.81777953,1.1529541 C1.46591188,1.1529541 1.18072508,1.43798828 1.18026734,1.78970336 C1.18026734,1.78985594 1.18026734,1.79016113 1.18026734,1.79046633 L1.18717771,1.88465787 C1.23269957,2.19203475 1.49762239,2.42797852 1.81777953,2.42797852 L1.81777953,2.42797852 L16.6171265,2.42797852 L16.6171265,3.5736084 L1.78680422,3.5736084 C0.800933828,3.5736084 0.00167846875,2.77526855 5.17046723e-14,1.78970336 L5.17046723e-14,1.78970336 C5.17046723e-14,1.56326293 0.0413513281,1.3494873 0.11642457,1.15219117 C0.208435078,0.91003418 0.351409922,0.693206797 0.532531719,0.514678945 C0.855102539,0.196533203 1.29791258,0 1.78680422,0 L1.78680422,0 Z" id="Combined-Shape"></path>
        </g>
    </g>
</svg>