<?xml version="1.0" encoding="UTF-8"?>
<svg width="72px" height="40px" viewBox="0 0 72 40" version="1.1" xmlns="http://www.w3.org/2000/svg" xmlns:xlink="http://www.w3.org/1999/xlink">
    <!-- Generator: Sketch 61.1 (89650) - https://sketch.com -->
    <title>Archive Courses</title>
    <desc>Created with Sketch.</desc>
    <g id="Archive-Courses" stroke="none" stroke-width="1" fill="none" fill-rule="evenodd" opacity="0.25">
        <g id="guide" transform="translate(21.000000, 3.000000)" fill="#FFFFFF" fill-rule="nonzero">
            <path d="M8.91509089e-14,7.47413639 C0.880660977,8.10939787 1.96052555,8.48510742 3.12690738,8.48510742 L3.12690738,8.48510742 L16.9213486,8.48510742 L16.9213486,14.7445297 C16.9213486,15.2027511 17.2014618,15.6142425 17.6276398,15.7824707 C18.0538177,15.9506989 18.5398102,15.84095 18.8525009,15.5063629 L18.8525009,15.5063629 L21.6899491,12.4691772 L24.5271301,15.5063629 C24.7423553,15.7365417 25.0395584,15.8604431 25.3426361,15.8604431 C25.4801559,15.8604431 25.6190109,15.8348083 25.7517243,15.7824707 C26.1779022,15.6142425 26.4580155,15.2027511 26.4580155,14.7445297 L26.4580155,14.7445297 L26.4580155,8.48510742 L29.0799713,8.48510742 L29.0799713,32.5243759 C29.0799713,33.8915634 27.9715347,35 26.6043472,35 L26.6043472,35 L4.01931763,35 C1.79950716,35 8.91509089e-14,33.2004928 8.91509089e-14,30.9806824 L8.91509089e-14,30.9806824 Z M14.5741654,14.1228866 C13.8726807,14.1228866 13.2555771,14.571228 13.0387497,15.238533 L13.0387497,15.238533 L12.0819855,18.1830597 L8.98578646,18.1830597 C8.28430176,18.1830597 7.66719816,18.631401 7.45037077,19.2987061 C7.23354338,19.9660111 7.46932983,20.6912613 8.03703305,21.1038208 L8.03703305,21.1038208 L10.5417633,22.9236221 L9.5849991,25.8681488 C9.36817171,26.5354538 9.60395816,27.260704 10.1716614,27.6729965 C10.4552459,27.8791427 10.7879639,27.9822159 11.1204147,27.9822159 C11.4528656,27.9822159 11.7855835,27.8791427 12.0691681,27.6729965 L12.0691681,27.6729965 L14.5741654,25.8531952 L17.0788956,27.6729965 C17.6463318,28.085289 18.4092331,28.085289 18.9766693,27.6729965 C19.5443726,27.260704 19.780159,26.5354538 19.5633316,25.8678818 L19.5633316,25.8678818 L18.6065674,22.9236221 L21.1112976,21.1038208 C21.6790008,20.6912613 21.9145203,19.9660111 21.6976929,19.2987061 C21.4808655,18.631401 20.864029,18.1830597 20.1622772,18.1830597 L20.1622772,18.1830597 L17.0663452,18.1830597 L16.109581,15.238533 L16.0609721,15.1078424 C15.8100981,14.5134418 15.2288844,14.1228866 14.5741654,14.1228866 Z M14.3084717,18.5507584 C14.3920517,18.2936096 14.756012,18.2936096 14.839592,18.5507584 L14.839592,18.5507584 L15.1944733,19.6434403 C15.3440094,20.1029968 15.7723236,20.4143524 16.2556458,20.4143524 L16.2556458,20.4143524 L17.4044037,20.4143524 C17.6749039,20.4143524 17.787323,20.7604217 17.5686264,20.9193039 L17.5686264,20.9193039 L16.6390991,21.5946198 C16.2479019,21.8787384 16.0842132,22.3823547 16.2337494,22.8421784 L16.2337494,22.8421784 L16.5886307,23.9345932 C16.6722107,24.1917419 16.377945,24.405632 16.1592484,24.2467498 L16.1592484,24.2467498 L15.229721,23.571434 C15.034256,23.4293747 14.8040771,23.358345 14.5738983,23.358345 C14.3437195,23.358345 14.1135407,23.4293747 13.9180755,23.571434 L13.9180755,23.571434 L12.9888153,24.2467498 C12.7701187,24.405632 12.4755859,24.1917419 12.5591659,23.9345932 L12.5591659,23.9345932 L12.9140472,22.8421784 C13.0635833,22.3823547 12.8998947,21.8787384 12.5089645,21.5946198 L12.5089645,21.5946198 L11.5794373,20.9193039 C11.3607406,20.7604217 11.4731598,20.4143524 11.7433929,20.4143524 L11.7433929,20.4143524 L12.8924179,20.4143524 C13.3757401,20.4143524 13.8040543,20.1029968 13.9535904,19.6434403 L13.9535904,19.6434403 Z M27.6078415,0 C28.2182694,0 28.7416458,0.37143709 28.9648819,0.900688154 C29.0388489,1.07639314 29.0799713,1.26945492 29.0799713,1.4721298 L29.0799713,1.4721298 L29.0799713,2.01766968 L3.18111418,2.01766968 C2.56534578,2.01766968 2.06626889,2.51647949 2.06546785,3.13198088 L2.06546785,3.13198088 C2.06546785,3.74935148 2.56481169,4.2489624 3.18111418,4.2489624 L3.18111418,4.2489624 L29.0799713,4.2489624 L29.0799713,6.2538147 L3.12690738,6.2538147 C1.4016342,6.2538147 0.00293732031,4.85671997 9.09272657e-14,3.13198088 L9.09272657e-14,3.13198088 C9.09272657e-14,2.73571013 0.0723648242,2.36160278 0.203742998,2.01633455 C0.364761387,1.59255981 0.614967363,1.21311189 0.931930508,0.900688154 C1.49642944,0.343933105 2.27134701,0 3.12690738,0 L3.12690738,0 Z" id="Combined-Shape"></path>
        </g>
    </g>
</svg>