<?xml version="1.0" encoding="UTF-8"?>
<svg width="59px" height="33px" viewBox="0 0 59 33" version="1.1" xmlns="http://www.w3.org/2000/svg" xmlns:xlink="http://www.w3.org/1999/xlink">
    <!-- Generator: Sketch 61.1 (89650) - https://sketch.com -->
    <title>Archive categories</title>
    <desc>Created with Sketch.</desc>
    <g id="Archive-categories" stroke="none" stroke-width="1" fill="none" fill-rule="evenodd" opacity="0.25">
        <g id="document-(2)" transform="translate(21.000000, 7.000000)" fill="#FFFFFF" fill-rule="nonzero">
            <path d="M16.4061197,4.99512195 C16.7694013,5.01782705 17.0645676,5.31299335 17.0418625,5.67627494 L17.0418625,5.67627494 L17.0418625,19.344745 C17.0191574,19.7080266 16.7239911,20.0031929 16.3607095,19.9804878 L16.3607095,19.9804878 L0.648780488,19.9804878 C0.285498891,19.9577827 -0.00966740577,19.6626164 0.013037694,19.2993348 L0.013037694,19.2993348 L0.013037694,5.63086475 C0.0357427938,5.26758315 0.330909091,4.97241685 0.694190687,4.99512195 L0.694190687,4.99512195 Z M11.8878049,8.10572062 L5.12168514,8.10572062 C4.75840355,8.12842572 4.46323725,8.42359202 4.48594235,8.78687361 L4.48594235,8.78687361 L4.48594235,10.5578714 C4.50864745,10.921153 4.80381375,11.2163193 5.16709534,11.1936142 L5.16709534,11.1936142 L11.9332151,11.1936142 C12.2964967,11.1709091 12.591663,10.8757428 12.5689579,10.5124612 L12.5689579,10.5124612 L12.5689579,8.74146341 C12.5462528,8.37818182 12.2510865,8.08301552 11.8878049,8.10572062 L11.8878049,8.10572062 Z M15.9066075,2.49756098 L15.9066075,3.85986696 L1.14829268,3.85986696 L1.14829268,2.49756098 L15.9066075,2.49756098 Z M14.7713525,-2.21674531e-14 L14.7713525,1.36230599 L2.28354767,1.36230599 L2.28354767,-2.21674531e-14 L14.7713525,-2.21674531e-14 Z" id="Combined-Shape"></path>
        </g>
    </g>
</svg>