<?xml version="1.0" encoding="UTF-8"?>
<svg width="72px" height="40px" viewBox="0 0 72 40" version="1.1" xmlns="http://www.w3.org/2000/svg" xmlns:xlink="http://www.w3.org/1999/xlink">
    <!-- Generator: Sketch 61.1 (89650) - https://sketch.com -->
    <title>Last Udpate</title>
    <desc>Created with Sketch.</desc>
    <g id="Last-Udpate" stroke="none" stroke-width="1" fill="none" fill-rule="evenodd" opacity="0.25">
        <g id="update-arrow" transform="translate(19.000000, 2.000000)" fill="#FFFFFF" fill-rule="nonzero">
            <path d="M16.7558966,36.0622414 C7.74703448,36.0622414 0.418482759,28.7260345 0.418482759,19.7197241 C0.418482759,10.7121379 7.74703448,3.37975862 16.7558966,3.37975862 C17.3542759,3.37975862 17.9590345,3.4142069 18.5599655,3.48182759 L18.5599655,0.840793103 C18.5599655,0.501413793 18.7692069,0.192655172 19.0779655,0.0612413793 C19.3994828,-0.0637931034 19.7554483,0.00637931034 20.0004138,0.250068966 L25.789,6.05141379 C26.1181724,6.38058621 26.1181724,6.90624138 25.789,7.24051724 L20.0029655,13.0546207 C19.7567241,13.2944828 19.3994828,13.3684828 19.0779655,13.237069 C18.7692069,13.1043793 18.5599655,12.7981724 18.5599655,12.460069 L18.5599655,9.53068966 C17.9615862,9.42096552 17.3593793,9.3712069 16.7558966,9.3712069 C11.0489655,9.3712069 6.40482759,14.014069 6.40482759,19.7197241 C6.40482759,25.4241034 11.0502414,30.0707931 16.7558966,30.0707931 C22.4615517,30.0707931 27.1044138,25.4228276 27.1044138,19.7197241 C27.1044138,19.2565862 27.4807931,18.8776552 27.9490345,18.8776552 L32.2474138,18.8776552 C32.7131034,18.8776552 33.0920345,19.2565862 33.0920345,19.7197241 C33.0920345,28.7260345 25.7583793,36.0622414 16.7558966,36.0622414 Z" id="Path"></path>
        </g>
    </g>
</svg>