<?xml version="1.0" encoding="UTF-8"?>
<svg width="72px" height="40px" viewBox="0 0 72 40" version="1.1" xmlns="http://www.w3.org/2000/svg" xmlns:xlink="http://www.w3.org/1999/xlink">
    <!-- Generator: Sketch 61.1 (89650) - https://sketch.com -->
    <title>Enrolment Box</title>
    <desc>Created with Sketch.</desc>
    <g id="Enrolment-Box" stroke="none" stroke-width="1" fill="none" fill-rule="evenodd" opacity="0.25">
        <g id="image-(4)" transform="translate(21.000000, 2.000000)" fill="#FFFFFF" fill-rule="nonzero">
            <path d="M28.0906875,0 L1.2999375,0 C0.606375,0 0.04415625,0.562289062 0.04415625,1.25578125 L0.04415625,34.7442188 C0.04415625,35.4377813 0.606445312,36 1.2999375,36 L28.0906172,36 C28.7841797,36 29.3463984,35.4377109 29.3463984,34.7442188 L29.3463984,1.25578125 C29.3463984,0.562289062 28.7841797,0 28.0906875,0 Z M9.39761719,8.5494375 L19.9930781,8.5494375 C20.6866406,8.5494375 21.2488594,9.11172656 21.2488594,9.80521875 C21.2488594,10.4987813 20.6865703,11.061 19.9930781,11.061 L9.39761719,11.061 C8.70405469,11.061 8.14183594,10.4987109 8.14183594,9.80521875 C8.14183594,9.11165625 8.70398437,8.5494375 9.39761719,8.5494375 Z M5.35239844,15.2684297 C5.35239844,14.5748672 5.9146875,14.0126484 6.60817969,14.0126484 L12.0713906,14.0126484 C12.7649531,14.0126484 13.3271719,14.5749375 13.3271719,15.2684297 L13.3271719,20.7316406 C13.3271719,21.4252031 12.7648828,21.9874219 12.0713906,21.9874219 L6.60817969,21.9874219 C5.91461719,21.9874219 5.35239844,21.4251328 5.35239844,20.7316406 L5.35239844,15.2684297 Z M22.7824453,27.4505625 L6.60817969,27.4505625 C5.91461719,27.4505625 5.35239844,26.8882734 5.35239844,26.1947813 C5.35239844,25.5012891 5.9146875,24.939 6.60817969,24.939 L22.7823047,24.939 C23.4758672,24.939 24.0380859,25.5012891 24.0380859,26.1947813 C24.0380859,26.8882734 23.4759375,27.4505625 22.7824453,27.4505625 Z M22.7824453,21.9873516 L17.2037109,21.9873516 C16.5101484,21.9873516 15.9479297,21.4250625 15.9479297,20.7315703 C15.9479297,20.0380078 16.5102187,19.4757891 17.2037109,19.4757891 L22.7824453,19.4757891 C23.4760078,19.4757891 24.0382266,20.0380781 24.0382266,20.7315703 C24.0382266,21.4251328 23.4759375,21.9873516 22.7824453,21.9873516 Z M22.7824453,16.5242813 L17.2037109,16.5242813 C16.5101484,16.5242813 15.9479297,15.9619922 15.9479297,15.2685 C15.9479297,14.5749375 16.5102187,14.0127187 17.2037109,14.0127187 L22.7824453,14.0127187 C23.4760078,14.0127187 24.0382266,14.5750078 24.0382266,15.2685 C24.0382266,15.9619922 23.4759375,16.5242813 22.7824453,16.5242813 Z" id="Shape"></path>
        </g>
    </g>
</svg>