<?xml version="1.0" encoding="UTF-8"?>
<svg width="59px" height="33px" viewBox="0 0 59 33" version="1.1" xmlns="http://www.w3.org/2000/svg" xmlns:xlink="http://www.w3.org/1999/xlink">
    <!-- Generator: Sketch 61.1 (89650) - https://sketch.com -->
    <title>Student Feedback</title>
    <desc>Created with Sketch.</desc>
    <g id="Student-Feedback" stroke="none" stroke-width="1" fill="none" fill-rule="evenodd" opacity="0.25">
        <g transform="translate(20.000000, 7.000000)" fill="#FFFFFF" fill-rule="nonzero" id="Reviews-/-Student-Feedback">
            <g>
                <g id="thumb-up">
                    <path d="M4.22355515,7.19583281 C4.56046048,7.19583281 4.83358367,7.46891873 4.83358367,7.80582407 L4.83358367,7.80582407 L4.83358367,18.3900087 C4.83358367,18.7269141 4.56046048,19.0000372 4.22355515,19.0000372 L4.22355515,19.0000372 L2.41913895,19.0000372 C1.09599479,19.0000372 0.0233594648,17.9274019 0.0233594648,16.6042578 L0.0233594648,16.6042578 L0.0233594648,7.79192763 C0.0233594648,7.46269699 0.290223653,7.19583281 0.619454259,7.19583281 L0.619454259,7.19583281 L4.22355515,7.19583281 Z M10.5234575,0 C11.6046617,0 12.436512,0.959563596 12.2812665,2.03085771 L12.2812665,2.03085771 L11.5329813,7.19583281 L16.2218629,7.19583281 C17.4963882,7.19583281 18.5295322,8.22901411 18.5295322,9.50353932 L18.5295322,9.50353932 L18.5295322,12.7335907 C18.5295322,13.6474413 18.2871824,14.5482896 17.828711,15.338823 L17.828711,15.338823 L16.6213955,17.4203488 C16.0562976,18.394703 15.0054943,19 13.8791359,19 L13.8791359,19 L7.43862969,19 C7.20343303,19 7.09185151,18.888791 6.77014661,18.6645104 C6.30370247,18.3393034 6.025736,17.8066182 6.025736,17.2380183 L6.025736,17.2380183 L6.025736,7.66931835 C6.025736,6.94387099 6.2439067,6.23448097 6.65606898,5.63745477 C7.54827386,4.34504672 8.24224001,2.65563957 8.88054571,1.10124788 C9.15527095,0.432280494 9.80013372,0 10.5234575,0 Z M2.98844674,9.5 C2.62583482,9.5 2.33188558,9.79398651 2.33188558,10.1565984 C2.33188558,10.5192103 2.62583482,10.8131596 2.98844674,10.8131596 C3.35105866,10.8131596 3.6450079,10.5192103 3.6450079,10.1565984 C3.6450079,9.79394927 3.35105866,9.5 2.98844674,9.5 Z" id="Combined-Shape"></path>
                </g>
            </g>
        </g>
    </g>
</svg>