<?xml version="1.0" encoding="UTF-8"?>
<svg width="59px" height="33px" viewBox="0 0 59 33" version="1.1" xmlns="http://www.w3.org/2000/svg" xmlns:xlink="http://www.w3.org/1999/xlink">
    <!-- Generator: Sketch 61.1 (89650) - https://sketch.com -->
    <title>Long Description</title>
    <desc>Created with Sketch.</desc>
    <g id="Long-Description" stroke="none" stroke-width="1" fill="none" fill-rule="evenodd" opacity="0.25">
        <g id="align-(2)" transform="translate(19.000000, 8.000000)" fill="#FFFFFF" fill-rule="nonzero">
            <path d="M10.8938586,15.068482 C11.7010429,15.068482 12.3538818,15.7213001 12.3538818,16.5285052 C12.3538818,17.3356686 11.7010429,17.9885284 10.8938586,17.9885284 L10.8938586,17.9885284 L1.46002317,17.9885284 C0.652838934,17.9885284 -8.08242362e-14,17.3356686 -8.08242362e-14,16.5285052 C-8.08242362e-14,15.7213001 0.652838934,15.068482 1.46002317,15.068482 L1.46002317,15.068482 Z M19.0845886,10.0501947 C19.8917729,10.0501947 20.5446118,10.7030127 20.5446118,11.5102178 C20.5446118,12.3152955 19.8917729,12.970241 19.0845886,12.970241 L19.0845886,12.970241 L1.46002317,12.970241 C0.652838934,12.970241 -7.28306304e-14,12.3173812 -7.28306304e-14,11.5102178 C-7.28306304e-14,10.7030127 0.652838934,10.0501947 1.46002317,10.0501947 L1.46002317,10.0501947 Z M15.9643105,5.02977984 C16.7714739,5.02977984 17.4243337,5.68261877 17.4243337,6.48980301 C17.4243337,7.29698725 16.7714739,7.94982619 15.9643105,7.94982619 L15.9643105,7.94982619 L1.46002317,7.94982619 C0.652838934,7.94982619 -8.70414851e-14,7.29698725 -8.70414851e-14,6.48980301 C-8.70414851e-14,5.68261877 0.652838934,5.02977984 1.46002317,5.02977984 L1.46002317,5.02977984 Z M19.0845886,0.0114716107 C19.8917729,0.0114716107 20.5446118,0.664310545 20.5446118,1.47149479 C20.5446118,2.27867903 19.8917729,2.93151796 19.0845886,2.93151796 L19.0845886,2.93151796 L1.46002317,2.93151796 C0.652838934,2.93151796 -7.28306304e-14,2.27867903 -7.28306304e-14,1.47149479 C-7.28306304e-14,0.664310545 0.652838934,0.0114716107 1.46002317,0.0114716107 L1.46002317,0.0114716107 Z" id="Combined-Shape"></path>
        </g>
    </g>
</svg>