<?xml version="1.0" encoding="UTF-8"?>
<svg width="72px" height="40px" viewBox="0 0 72 40" version="1.1" xmlns="http://www.w3.org/2000/svg" xmlns:xlink="http://www.w3.org/1999/xlink">
    <!-- Generator: Sketch 61.1 (89650) - https://sketch.com -->
    <title>Social Share</title>
    <desc>Created with Sketch.</desc>
    <g id="Social-Share" stroke="none" stroke-width="1" fill="none" fill-rule="evenodd" fill-opacity="0.25">
        <g id="share" transform="translate(19.000000, 2.000000)" fill="#FFFFFF" fill-rule="nonzero">
            <path d="M27.0703125,22.640625 C24.9418828,22.640625 23.0428125,23.6413125 21.8187422,25.1968359 L12.9581016,20.2808672 C13.217625,19.5688828 13.359375,18.8006484 13.359375,18 C13.359375,17.1993516 13.217625,16.4311172 12.9581016,15.7191328 L21.8187422,10.8031641 C23.0428125,12.3586875 24.9418828,13.359375 27.0703125,13.359375 C30.7534922,13.359375 33.75,10.3628672 33.75,6.6796875 C33.75,2.99650781 30.7534922,0 27.0703125,0 C23.3871328,0 20.390625,2.99650781 20.390625,6.6796875 C20.390625,7.48033594 20.532375,8.24857031 20.7918984,8.96055469 L11.9312578,13.8765234 C10.7071875,12.321 8.80811719,11.3203125 6.6796875,11.3203125 C2.99650781,11.3203125 0,14.3168203 0,18 C0,21.6831797 2.99650781,24.6796875 6.6796875,24.6796875 C8.80811719,24.6796875 10.7071875,23.679 11.9312578,22.1234766 L20.7918984,27.0394453 C20.532375,27.7515 20.390625,28.5196641 20.390625,29.3203125 C20.390625,33.0034922 23.3871328,36 27.0703125,36 C30.7534922,36 33.75,33.0034922 33.75,29.3203125 C33.75,25.6371328 30.7534922,22.640625 27.0703125,22.640625 Z" id="Path"></path>
        </g>
    </g>
</svg>