<?xml version="1.0" encoding="UTF-8"?>
<svg width="72px" height="41px" viewBox="0 0 72 41" version="1.1" xmlns="http://www.w3.org/2000/svg" xmlns:xlink="http://www.w3.org/1999/xlink">
    <!-- Generator: Sketch 61.1 (89650) - https://sketch.com -->
    <title>Total Enrolled</title>
    <desc>Created with Sketch.</desc>
    <g id="Total-Enrolled" stroke="none" stroke-width="1" fill="none" fill-rule="evenodd" transform="translate(0.000000, 1.000000)" opacity="0.25">
        <g id="graduated" transform="translate(18.000000, 2.000000)" fill="#FFFFFF" fill-rule="nonzero">
            <path d="M15.5269286,31.4498571 C16.1458406,32.0770079 16.9354077,32.5084531 17.7975,32.6905714 L16.4134286,36 L15.9441429,34.92 C15.8029997,34.5957087 15.4264114,34.4463373 15.1013571,34.5857143 L14.0194286,35.064 L15.5269286,31.4498571 Z M21.9207857,31.4479286 L23.4250714,35.0479286 L22.3450714,34.5857143 C22.0200171,34.4463373 21.6434289,34.5957087 21.5022857,34.92 L21.0265714,35.9890714 L19.6482857,32.6892857 C20.5110489,32.5070895 21.301271,32.0754293 21.9207857,31.4479286 Z M18.7232143,25.0714286 C20.4984152,25.0714286 21.9375,26.5105133 21.9375,28.2857143 C21.9353746,30.0600342 20.4975342,31.4978746 18.7232143,31.5 C16.9480133,31.5 15.5089286,30.0609152 15.5089286,28.2857143 C15.5089286,26.5105133 16.9480133,25.0714286 18.7232143,25.0714286 Z M35.3089286,19.9600714 C35.6072143,20.4666429 36.0803571,22.4704286 36.0803571,25.7142857 C36.0803571,28.9581429 35.604,30.9612857 35.3089286,31.4678571 C31.1787754,30.8322057 27.0140981,30.4457923 22.8375,30.3107143 L22.7918571,30.2001429 C23.6003173,28.496537 23.2537224,26.4689051 21.9252857,25.1305714 C21.9203141,23.7973801 21.7663586,22.4689205 21.4662857,21.1699286 C26.1017927,21.0661324 30.7256988,20.6619996 35.3089286,19.9600714 Z M2.02371429,20.1394286 C6.10795723,20.7035212 10.2200579,21.0432453 14.3415,21.1570714 C14.7270773,22.6444232 14.9036303,24.1782276 14.8660714,25.7142857 C14.8660714,25.8075 14.8660714,25.8962143 14.8622143,25.9855714 C14.0907682,27.265876 14.0130244,28.8477933 14.6552143,30.1975714 L14.6269286,30.2657143 C10.4099524,30.3691048 6.20218086,30.7105771 2.02371429,31.2885 C2.47767301,29.4662022 2.6888578,27.5919102 2.65178571,25.7142857 C2.68886186,23.836449 2.47767744,21.9619441 2.02371429,20.1394286 Z M0.723214286,20.25 C1.21578168,22.0278154 1.4325911,23.8706954 1.36607143,25.7142857 C1.4325911,27.5578761 1.21578168,29.400756 0.723214286,31.1785714 C0.230646889,29.400756 0.0138374743,27.5578761 0.0803571429,25.7142857 C0.0138374743,23.8706954 0.230646889,22.0278154 0.723214286,20.25 Z M15.6844286,21.1898571 C16.4631428,21.2061428 17.2617857,21.2142857 18.0803571,21.2142857 C18.783,21.2142857 19.4650714,21.2065714 20.1375,21.195 C20.4044673,22.176618 20.5599486,23.185198 20.601,24.2016429 C19.1433747,23.523859 17.4338115,23.6827567 16.1260714,24.6175714 C16.0931897,23.4631579 15.945243,22.3149027 15.6844286,21.1898571 Z M18.0803571,13.5 C22.8362143,13.5 25.8248571,14.2855714 26.3835,14.7857143 C25.8248571,15.2858571 22.8375,16.0714286 18.0803571,16.0714286 C13.3232143,16.0714286 10.3358571,15.2858571 9.77721429,14.7857143 C10.3358571,14.2855714 13.3245,13.5 18.0803571,13.5 Z M18.0803571,6.42857143 C23.0200714,6.42857143 26.0517857,7.27585714 26.4375,7.77085714 L26.4375,13.3714286 C24.1287796,12.3204122 19.410099,12.222636 18.2506224,12.2148935 L17.9100919,12.2148935 C16.7506153,12.222636 12.0319347,12.3204122 9.72321429,13.3714286 L9.72321429,7.77085714 C10.1089286,7.27585714 13.1406429,6.42857143 18.0803571,6.42857143 Z M31.5803571,9 C31.9353973,9 32.2232143,9.28781698 32.2232143,9.64285714 L32.2232143,11.5714286 L30.9375,11.5714286 L30.9375,9.64285714 C30.9375,9.28781698 31.225317,9 31.5803571,9 Z M18.0893571,-3.55271368e-14 L30.9375,4.59128571 L30.9375,7.83257143 C30.5310122,7.97702284 30.1845477,8.25333461 29.9532857,8.6175 L27.7232143,9.41271429 L27.7232143,7.71428571 C27.7232143,5.26292308 19.3968675,5.14652409 18.1456798,5.14295378 L18.0803571,5.14285714 C17.0935714,5.14285714 8.4375,5.21485714 8.4375,7.71428571 L8.4375,9.41207143 L0.0803571429,6.42857143 L18.0893571,-3.55271368e-14 Z M32.2232143,5.05092857 L36.0803571,6.42857143 L32.2232143,7.80685714 L32.2232143,5.05092857 Z" id="Combined-Shape"></path>
        </g>
    </g>
</svg>