<?xml version="1.0" encoding="UTF-8"?>
<svg width="72px" height="41px" viewBox="0 0 72 41" version="1.1" xmlns="http://www.w3.org/2000/svg" xmlns:xlink="http://www.w3.org/1999/xlink">
    <!-- Generator: Sketch 61.1 (89650) - https://sketch.com -->
    <title>Duration</title>
    <desc>Created with Sketch.</desc>
    <g id="Duration" stroke="none" stroke-width="1" fill="none" fill-rule="evenodd" transform="translate(0.000000, 0.000000)" opacity="0.25">
        <g id="stopwatch" transform="translate(20.000000, 2.000000)" fill="#FFFFFF" fill-rule="nonzero">
            <path d="M15.4427143,5.14269643 C23.9500446,5.14269643 30.8712857,12.0639375 30.8712857,20.5712679 C30.8712857,29.0785179 23.9500446,35.9998393 15.4427143,35.9998393 C6.93546429,35.9998393 0.0141428571,29.0785179 0.0141428571,20.5712679 C0.0141428571,12.0639375 6.93546429,5.14269643 15.4427143,5.14269643 Z M15.4427143,10.2855536 C9.7711875,10.2855536 5.157,14.8997411 5.157,20.5712679 C5.157,26.2427946 9.7711875,30.8569821 15.4427143,30.8569821 C21.1142411,30.8569821 25.7284286,26.2427946 25.7284286,20.5712679 C25.7284286,14.8997411 21.1142411,10.2855536 15.4427143,10.2855536 Z M15.4301786,12.8569821 C19.6836429,12.8569821 23.1443036,16.3191696 23.1455893,20.5723929 C23.1455893,24.8266607 19.6844464,28.2855536 15.4301786,28.2855536 C11.1758304,28.2853929 7.71476786,24.82425 7.71476786,20.5699821 L7.71476786,20.5699821 L15.4301786,20.5699821 Z M28.1704435,4.21015138 L31.806901,7.84660885 L29.9886438,9.66486599 L26.3521864,6.02840853 L28.1704435,4.21015138 Z M18.0163125,1.25677246e-14 L18.0163125,2.57142857 L12.8734554,2.57142857 L12.8734554,1.25677246e-14 L18.0163125,1.25677246e-14 Z" id="Combined-Shape"></path>
        </g>
    </g>
</svg>