<?xml version="1.0" encoding="UTF-8"?>
<svg width="72px" height="40px" viewBox="0 0 72 40" version="1.1" xmlns="http://www.w3.org/2000/svg" xmlns:xlink="http://www.w3.org/1999/xlink">
    <!-- Generator: Sketch 61.1 (89650) - https://sketch.com -->
    <title>Course Level</title>
    <desc>Created with Sketch.</desc>
    <g id="Course-Level" stroke="none" stroke-width="1" fill="none" fill-rule="evenodd" opacity="0.25">
        <g id="controls-(1)" transform="translate(35.941176, 20.000000) rotate(-270.000000) translate(-35.941176, -20.000000) translate(19.000000, 2.000000)" fill="#FFFFFF" fill-rule="nonzero">
            <path d="M7.5234375,0 C8.35291406,0 9.02341406,0.6705 9.02341406,1.49997656 L9.02341406,1.49997656 L9.02341406,16.5000234 L13.5234141,16.5000234 C14.3529609,16.5000234 15.0233906,17.1705234 15.0233906,18 L15.0233906,18 L15.0233906,30.0000234 C15.0233906,30.8295 14.3528906,31.5 13.5234141,31.5 L13.5234141,31.5 L9.02341406,31.5 L9.02341406,34.4999531 C9.02341406,35.3294297 8.35291406,35.9999297 7.5234375,35.9999297 C6.69396094,35.9999297 6.02346094,35.3294297 6.02346094,34.4999531 L6.02346094,34.4999531 L6.02346094,31.4999297 L1.52346094,31.4999297 C0.693984375,31.4999297 0.023484375,30.8294297 0.023484375,29.9999531 L0.023484375,29.9999531 L0.023484375,17.9999297 C0.023484375,17.1704531 0.693984375,16.4999531 1.52346094,16.4999531 L1.52346094,16.4999531 L6.02346094,16.4999531 L6.02346094,1.49997656 C6.02346094,0.6705 6.69396094,0 7.5234375,0 Z M25.5234375,3.55271368e-15 C26.3529141,3.55271368e-15 27.0234141,0.6705 27.0234141,1.49997656 L27.0234141,1.49997656 L27.0234141,4.5 L31.5234141,4.5 C32.3529609,4.5 33.0233906,5.1705 33.0233906,5.99997656 L33.0233906,5.99997656 L33.0233906,18 C33.0233906,18.8294766 32.3528906,19.4999766 31.5234141,19.4999766 L31.5234141,19.4999766 L27.0234141,19.4999766 L27.0234141,34.4999531 C27.0234141,35.3294297 26.3529141,35.9999297 25.5234375,35.9999297 C24.6939609,35.9999297 24.0234609,35.3294297 24.0234609,34.4999531 L24.0234609,34.4999531 L24.0234609,19.4999766 L19.5234609,19.4999766 C18.6939844,19.4999766 18.0234844,18.8294766 18.0234844,18 L18.0234844,18 L18.0234844,5.99997656 C18.0234844,5.1705 18.6939844,4.5 19.5234609,4.5 L19.5234609,4.5 L24.0234609,4.5 L24.0234609,1.49997656 C24.0234609,0.6705 24.6939609,3.55271368e-15 25.5234375,3.55271368e-15 Z M9.02341406,22.5000703 L6.02339063,22.5000703 C5.19391406,22.5000703 4.52341406,23.1705703 4.52341406,24.0000469 C4.52341406,24.8295234 5.19391406,25.5000234 6.02339063,25.5000234 L6.02339063,25.5000234 L9.02341406,25.5000234 C9.85296094,25.5000234 10.5234609,24.8295234 10.5233906,24.0000469 C10.5233906,23.1705703 9.85289063,22.5000703 9.02341406,22.5000703 L9.02341406,22.5000703 Z M27.0234141,10.5000469 L24.0233906,10.5000469 C23.1939141,10.5000469 22.5234141,11.1705469 22.5234141,12.0000234 C22.5234141,12.8295 23.1939141,13.5 24.0233906,13.5 L24.0233906,13.5 L27.0234141,13.5 C27.8529609,13.5 28.5234609,12.8295 28.5233906,12.0000234 C28.5233906,11.1705469 27.8528906,10.5000469 27.0234141,10.5000469 L27.0234141,10.5000469 Z" id="Combined-Shape"></path>
        </g>
    </g>
</svg>