<?xml version="1.0" encoding="UTF-8"?>
<svg width="72px" height="40px" viewBox="0 0 72 40" version="1.1" xmlns="http://www.w3.org/2000/svg" xmlns:xlink="http://www.w3.org/1999/xlink">
    <!-- Generator: Sketch 61.1 (89650) - https://sketch.com -->
    <title>About Instructors</title>
    <desc>Created with Sketch.</desc>
    <g id="About-Instructors" stroke="none" stroke-width="1" fill="none" fill-rule="evenodd" opacity="0.25">
        <g id="teacher-(3)" transform="translate(13.000000, 3.000000)" fill="#FFFFFF" fill-rule="nonzero">
            <path d="M29.1685227,13.2945202 L30.3299747,16.8059217 L16.9169318,21.2458838 L16.2407955,34.4034975 L2.69853535,34.4034975 L2.57833333,31.9724116 L-2.1106349e-13,31.9724116 L0.420707071,18.2678788 L6.47137626,17.3483333 L9.24203283,20.6689141 L12.1043434,17.3483333 L16.9214394,17.3483333 L29.1685227,13.2945202 Z M45.6211742,0.0828156566 L45.6211742,19.53 L26.8846843,19.53 L31.5214773,17.7645328 L43.8557071,17.7645328 L43.8557071,1.84828283 L19.7131313,1.84828283 L19.7026136,14.7609848 L17.9446591,15.4972222 L17.9446591,0.0828156566 L45.6211742,0.0828156566 Z M9.37125,1.20219697 C13.5186993,1.20219697 16.8808712,4.56436891 16.8808712,8.71181818 C16.8808712,12.8592675 13.5186993,16.2214394 9.37125,16.2214394 C5.22380073,16.2214394 1.86162879,12.8592675 1.86162879,8.71181818 C1.86162879,4.56436891 5.22380073,1.20219697 9.37125,1.20219697 Z M30.1695483,4.98620285 L30.3374874,4.98856061 C31.8159722,5.06669192 32.4305051,6.68791667 32.9669066,8.11531566 C33.1802652,8.6772601 33.5589015,9.68094697 33.8443813,9.93787879 C33.9525631,9.66742424 34.0652525,9.18661616 34.1373737,8.87258838 C34.392803,7.78325758 34.7579167,6.28373737 36.1041793,6.31679293 C37.4654672,6.34383838 37.7269066,7.75921717 37.899697,8.69679293 C38.0905177,9.73353535 38.2588005,10.424697 38.8042172,10.5839646 C39.0656566,10.6635985 39.3406187,10.6260354 39.6606566,10.5794571 C39.9972222,10.5328788 40.3818687,10.4802904 40.7905556,10.5629293 C41.3359722,10.725202 41.6560101,10.9505808 41.9144444,11.1323864 C42.2194571,11.3472475 42.2705429,11.3607702 42.3712121,11.34875 L42.3712121,11.34875 L42.5785606,13.1773232 C42.4884091,13.1863384 42.4042677,13.190846 42.3231313,13.190846 C41.6469949,13.190846 41.1992424,12.8753157 40.8596717,12.6394192 C40.6718561,12.5041919 40.5185985,12.3975126 40.3367929,12.3434217 C40.3217677,12.3434217 40.1159217,12.3719697 39.9145833,12.4005177 C39.4938763,12.4576136 38.9139015,12.53875 38.2738258,12.3434217 C36.6150379,11.8566035 36.3010101,10.1542424 36.0906566,9.02734848 C36.0786364,8.95522727 36.0651136,8.87559343 36.0470833,8.79145202 C36.0035101,8.96875 35.9614394,9.14604798 35.9283838,9.28728535 C35.7,10.2714394 35.4641035,11.291654 34.6452273,11.703346 C34.3552399,11.8490909 33.8744318,11.9692929 33.2659091,11.703346 C32.2321717,11.3697854 31.7318308,10.0445581 31.2495202,8.76440657 C31.0827399,8.31965909 30.5914141,7.02748737 30.2999242,6.84568182 C30.0580177,7.14017677 29.7980808,8.17541667 29.6418182,8.8079798 C29.2541667,10.3480682 28.8559975,11.9377399 27.5457955,12.2397475 C27.1055556,12.3434217 26.683346,12.272803 26.3272475,12.0429167 C25.5819949,11.5606061 25.3851641,10.5509091 25.1943434,9.57426768 C25.1297348,9.25272727 25.0335732,8.76590909 24.9314015,8.48493687 C24.4145328,8.92367424 23.6572601,10.7747854 23.3582576,11.5140278 C23.176452,11.9527652 23.0111742,12.3539394 22.8624242,12.6679672 L22.8624242,12.6679672 L21.2036364,11.8806439 C21.3403662,11.5906566 21.4921212,11.2225379 21.657399,10.8183586 C22.4747727,8.82150253 23.4003283,6.56020202 25.0831566,6.56020202 C26.4775,6.56020202 26.7795076,8.09878788 26.9988763,9.22117424 C27.0604798,9.53369949 27.1521338,10.0024874 27.2543056,10.2954798 C27.4721717,9.89881313 27.7140783,8.92667929 27.8568182,8.36323232 C28.2625,6.74200758 28.7297854,4.89840909 30.3374874,4.98856061 Z" id="Combined-Shape"></path>
        </g>
    </g>
</svg>