<?xml version="1.0" encoding="UTF-8"?>
<svg width="59px" height="33px" viewBox="0 0 59 33" version="1.1" xmlns="http://www.w3.org/2000/svg" xmlns:xlink="http://www.w3.org/1999/xlink">
    <!-- Generator: Sketch 61.1 (89650) - https://sketch.com -->
    <title>Target Audience</title>
    <desc>Created with Sketch.</desc>
    <g id="Target-Audience" stroke="none" stroke-width="1" fill="none" fill-rule="evenodd" opacity="0.25">
        <g id="graphic" transform="translate(20.000000, 7.000000)" fill="#FFFFFF" fill-rule="nonzero">
            <path d="M19.4140625,16.484375 C19.7377014,16.484375 20,16.7466736 20,17.0703125 L20,19.4140625 C20,19.7377014 19.7377014,20 19.4140625,20 L0.5859375,20 C0.262298594,20 0,19.7377014 0,19.4140625 L0,17.0703125 C0,16.7466736 0.262298594,16.484375 0.5859375,16.484375 L19.4140625,16.484375 Z M4.07409668,11.6052246 C4.39773559,11.6052246 4.66003418,11.8676758 4.66003418,12.1911621 L4.66003418,12.1911621 L4.66003418,15.3125 L1.14440918,15.3125 L1.14440918,12.1911621 C1.14440918,11.8676758 1.40670777,11.6052246 1.73034668,11.6052246 L1.73034668,11.6052246 Z M18.2507324,6.26358031 C18.5743713,6.26358031 18.8366699,6.52587891 18.8366699,6.84951781 L18.8366699,6.84951781 L18.8366699,15.3125 L15.3210449,15.3125 L15.3210449,6.84951781 C15.3210449,6.52587891 15.5833435,6.26358031 15.9069824,6.26358031 L15.9069824,6.26358031 Z M13.5546875,11.0734558 C13.8783264,11.0734558 14.140625,11.335907 14.140625,11.6593933 L14.140625,11.6593933 L14.140625,15.3125 L10.625,15.3125 L10.625,11.6593933 C10.625,11.335907 10.8872986,11.0734558 11.2109375,11.0734558 L11.2109375,11.0734558 Z M8.83728027,9.66506957 C9.1607666,9.66506957 9.42321777,9.92736816 9.42321777,10.2510071 L9.42321777,10.2510071 L9.42321777,15.3125 L5.90759277,15.3125 L5.90759277,10.2510071 C5.90759277,9.92736816 6.16989137,9.66506957 6.49353027,9.66506957 L6.49353027,9.66506957 Z M18.2479859,0 C18.5716248,0 18.8339234,0.262298594 18.8339234,0.5859375 L18.8339234,0.5859375 L18.8339234,2.37579344 C18.8339234,2.69943238 18.5716248,2.96173094 18.2479859,2.96173094 C17.9243469,2.96173094 17.6620484,2.69943238 17.6620484,2.37579344 L17.6620484,2.37579344 L17.6620484,2.07641602 L12.7711487,7.29415895 C12.6303101,7.44445801 12.4209595,7.50961305 12.2193909,7.46597289 L12.2193909,7.46597289 L7.82135008,6.51123047 L3.20938109,9.89089965 C3.10516359,9.96734617 2.98385621,10.0042725 2.86361695,10.0042725 C2.68325805,10.0042725 2.50534059,9.92126465 2.39059449,9.76470945 C2.19924926,9.5036316 2.2557068,9.13696289 2.51678469,8.94577027 L2.51678469,8.94577027 L7.34146117,5.41015625 C7.47680664,5.31097414 7.64816285,5.27450563 7.81204223,5.31005859 L7.81204223,5.31005859 L12.1434021,6.25045777 L16.9038391,1.171875 L16.4581299,1.171875 C16.134491,1.171875 15.8721924,0.909576406 15.8721924,0.5859375 C15.8721924,0.262298594 16.134491,0 16.4581299,0 L16.4581299,0 Z" id="Combined-Shape"></path>
        </g>
    </g>
</svg>