<?xml version="1.0" encoding="UTF-8"?>
<svg width="59px" height="33px" viewBox="0 0 59 33" version="1.1" xmlns="http://www.w3.org/2000/svg" xmlns:xlink="http://www.w3.org/1999/xlink">
    <!-- Generator: Sketch 61.1 (89650) - https://sketch.com -->
    <title>Enrolment Box</title>
    <desc>Created with Sketch.</desc>
    <g id="Enrolment-Box" stroke="none" stroke-width="1" fill="none" fill-rule="evenodd" opacity="0.25">
        <g id="image-(4)" transform="translate(21.000000, 7.000000)" fill="#FFFFFF" fill-rule="nonzero">
            <path d="M15.6059375,0 L0.7221875,0 C0.336875,0 0.02453125,0.312382812 0.02453125,0.69765625 L0.02453125,19.3023437 C0.02453125,19.6876562 0.336914062,20 0.7221875,20 L15.6058984,20 C15.9912109,20 16.3035547,19.6876172 16.3035547,19.3023437 L16.3035547,0.69765625 C16.3035547,0.312382812 15.9912109,0 15.6059375,0 Z M5.22089844,4.7496875 L11.1072656,4.7496875 C11.4925781,4.7496875 11.8049219,5.06207031 11.8049219,5.44734375 C11.8049219,5.83265625 11.4925391,6.145 11.1072656,6.145 L5.22089844,6.145 C4.83558594,6.145 4.52324219,5.83261719 4.52324219,5.44734375 C4.52324219,5.06203125 4.83554688,4.7496875 5.22089844,4.7496875 Z M2.97355469,8.48246094 C2.97355469,8.09714844 3.2859375,7.78480469 3.67121094,7.78480469 L6.70632812,7.78480469 C7.09164062,7.78480469 7.40398438,8.0971875 7.40398438,8.48246094 L7.40398438,11.5175781 C7.40398438,11.9028906 7.09160156,12.2152344 6.70632812,12.2152344 L3.67121094,12.2152344 C3.28589844,12.2152344 2.97355469,11.9028516 2.97355469,11.5175781 L2.97355469,8.48246094 Z M12.6569141,15.2503125 L3.67121094,15.2503125 C3.28589844,15.2503125 2.97355469,14.9379297 2.97355469,14.5526563 C2.97355469,14.1673828 3.2859375,13.855 3.67121094,13.855 L12.6568359,13.855 C13.0421484,13.855 13.3544922,14.1673828 13.3544922,14.5526563 C13.3544922,14.9379297 13.0421875,15.2503125 12.6569141,15.2503125 Z M12.6569141,12.2151953 L9.55761719,12.2151953 C9.17230469,12.2151953 8.85996094,11.9028125 8.85996094,11.5175391 C8.85996094,11.1322266 9.17234375,10.8198828 9.55761719,10.8198828 L12.6569141,10.8198828 C13.0422266,10.8198828 13.3545703,11.1322656 13.3545703,11.5175391 C13.3545703,11.9028516 13.0421875,12.2151953 12.6569141,12.2151953 Z M12.6569141,9.18015625 L9.55761719,9.18015625 C9.17230469,9.18015625 8.85996094,8.86777344 8.85996094,8.4825 C8.85996094,8.0971875 9.17234375,7.78484375 9.55761719,7.78484375 L12.6569141,7.78484375 C13.0422266,7.78484375 13.3545703,8.09722656 13.3545703,8.4825 C13.3545703,8.86777344 13.0421875,9.18015625 12.6569141,9.18015625 Z" id="Shape"></path>
        </g>
    </g>
</svg>