<?xml version="1.0" encoding="UTF-8"?>
<svg width="59px" height="33px" viewBox="0 0 59 33" version="1.1" xmlns="http://www.w3.org/2000/svg" xmlns:xlink="http://www.w3.org/1999/xlink">
    <!-- Generator: Sketch 61.1 (89650) - https://sketch.com -->
    <title>Duration</title>
    <desc>Created with Sketch.</desc>
    <g id="Duration" stroke="none" stroke-width="1" fill="none" fill-rule="evenodd" opacity="0.25">
        <g id="stopwatch" transform="translate(21.000000, 7.000000)" fill="#FFFFFF" fill-rule="nonzero">
            <path d="M8.57928571,2.85705357 C13.3055804,2.85705357 17.1507143,6.7021875 17.1507143,11.4284821 C17.1507143,16.1547321 13.3055804,19.9999107 8.57928571,19.9999107 C3.85303571,19.9999107 0.00785714286,16.1547321 0.00785714286,11.4284821 C0.00785714286,6.7021875 3.85303571,2.85705357 8.57928571,2.85705357 Z M8.57928571,5.71419643 C5.4284375,5.71419643 2.865,8.27763393 2.865,11.4284821 C2.865,14.5793304 5.4284375,17.1427679 8.57928571,17.1427679 C11.7301339,17.1427679 14.2935714,14.5793304 14.2935714,11.4284821 C14.2935714,8.27763393 11.7301339,5.71419643 8.57928571,5.71419643 Z M8.57232143,7.14276786 C10.9353571,7.14276786 12.8579464,9.06620536 12.8586607,11.4291071 C12.8586607,13.7925893 10.9358036,15.7141964 8.57232143,15.7141964 C6.20879464,15.7141071 4.28598214,13.79125 4.28598214,11.4277679 L4.28598214,11.4277679 L8.57232143,11.4277679 Z M15.6502464,2.33897299 L17.6705005,4.35922714 L16.6603577,5.36937 L14.6401035,3.34911585 L15.6502464,2.33897299 Z M10.0090625,6.99440506e-15 L10.0090625,1.42857143 L7.15191964,1.42857143 L7.15191964,6.99440506e-15 L10.0090625,6.99440506e-15 Z" id="Combined-Shape"></path>
        </g>
    </g>
</svg>