<?xml version="1.0" encoding="UTF-8"?>
<svg width="59px" height="33px" viewBox="0 0 59 33" version="1.1" xmlns="http://www.w3.org/2000/svg" xmlns:xlink="http://www.w3.org/1999/xlink">
    <!-- Generator: Sketch 61.1 (89650) - https://sketch.com -->
    <title>Requirements</title>
    <desc>Created with Sketch.</desc>
    <g id="Requirements" stroke="none" stroke-width="1" fill="none" fill-rule="evenodd" opacity="0.25">
        <g id="pen-(1)" transform="translate(21.000000, 8.000000)" fill="#FFFFFF" fill-rule="nonzero">
            <path d="M7.07439888,4.10634487 C7.22461764,4.44461119 7.43651379,4.75587653 7.70556437,5.02506416 L7.70556437,5.02506416 L12.9565049,10.2760047 C13.2256925,10.5450552 13.5368208,10.7568143 13.8750871,10.9070331 L13.8750871,10.9070331 L11.8226,14.9356644 C11.3779744,15.8080571 10.2724411,16.6123305 9.30547636,16.7667982 L9.30547636,16.7667982 L1.85457118,17.9563498 C1.75040489,17.9730713 1.6462386,17.981432 1.54508763,17.981432 L1.54508763,17.981432 C1.30536811,17.981432 1.08017702,17.9349683 0.879108695,17.846564 L0.879108695,17.846564 L7.06425636,11.6612793 C7.3498913,11.8216406 7.67294389,11.9074407 8.0094284,11.9074407 C8.52642215,11.9074407 9.01244015,11.7060982 9.37811866,11.3405568 C9.74366008,10.9750153 9.94513964,10.4888603 9.94513964,9.97186652 C9.94513964,9.45473572 9.74366008,8.96871771 9.37811866,8.60317626 C9.01244015,8.23763484 8.52642215,8.03629233 8.0094284,8.03629233 C7.49243464,8.03629233 7.00641667,8.23763484 6.64087522,8.60317626 C6.27519671,8.96871771 6.07385424,9.45473572 6.07385424,9.97186652 C6.07385424,10.308351 6.15965435,10.6314036 6.32001563,10.9170386 L6.32001563,10.9170386 L0.134867936,17.1021862 C0.0078124631,16.8139472 -0.0311128354,16.4793814 0.0250821553,16.1268608 L0.0250821553,16.1268608 L1.21477086,8.67595561 C1.36910142,7.70912797 2.17337484,6.60359465 3.04576756,6.15896906 L3.04576756,6.15896906 Z M10.7102137,0.0175437965 C11.2468071,0.0175437965 11.7502318,0.225328136 12.1276976,0.602930952 L12.1276976,0.602930952 L17.3786381,5.8537344 C18.1602964,6.63525573 18.1602964,7.90718097 17.3786381,8.68883932 L17.3786381,8.68883932 L16.5358506,9.53162688 C16.1583848,9.90909261 15.6549601,10.117014 15.1183666,10.117014 C14.5816361,10.117014 14.0783484,9.90909261 13.7008827,9.53162688 L13.7008827,9.53162688 L8.44994218,4.28068634 C8.07233936,3.90335767 7.86441797,3.39979587 7.86441797,2.86320239 C7.86441797,2.32660896 8.07233936,1.82318424 8.44994218,1.44571848 L8.44994218,1.44571848 L9.29272971,0.6027939 C9.67019543,0.225328136 10.1736202,0.0175437965 10.7102137,0.0175437965 Z" id="Combined-Shape"></path>
        </g>
    </g>
</svg>