<?xml version="1.0" encoding="UTF-8"?>
<svg width="72px" height="41px" viewBox="0 0 72 41" version="1.1" xmlns="http://www.w3.org/2000/svg" xmlns:xlink="http://www.w3.org/1999/xlink">
    <!-- Generator: Sketch 61.1 (89650) - https://sketch.com -->
    <title>rating</title>
    <desc>Created with Sketch.</desc>
    <g id="rating" stroke="none" stroke-width="1" fill="none" fill-rule="evenodd" transform="translate(0.000000, 1.000000)" opacity="0.25">
        <g id="star-(15)" transform="translate(18.000000, 2.000000)" fill="#FFFFFF" fill-rule="nonzero">
            <path d="M18,0 C8.07475781,0 0,8.07475781 0,18 C0,27.9252422 8.0746875,36 18,36 C27.9253125,36 36,27.9252422 36,18 C36,8.07475781 27.9252422,0 18,0 Z M27.9,16.4112187 L24.0825234,20.1324375 L24.9837188,25.38675 C25.084125,25.9723828 24.8433047,26.5642031 24.3626484,26.9135859 C24.0908203,27.1110937 23.7685781,27.2116433 23.4449297,27.2116433 C23.196375,27.2116433 22.9471172,27.1524375 22.7186016,27.0323437 L17.9999297,24.5514375 L13.2811875,27.0323437 C12.7553203,27.3087422 12.1180781,27.2628984 11.6371406,26.913375 C11.1564141,26.5642031 10.9155937,25.9722422 11.0161406,25.3865391 L11.9174062,20.1322969 L8.09992969,16.4111484 C7.67446875,15.9964453 7.52125781,15.3760781 7.70498437,14.8109062 C7.88857031,14.2456641 8.37710156,13.8337734 8.96519531,13.7484141 L14.2408828,12.9817969 L16.6002187,8.20110937 C16.8631875,7.66828125 17.4059297,7.33099219 18.0000703,7.33099219 C18.5943516,7.33099219 19.1369531,7.66828125 19.3999219,8.20110937 L21.7592578,12.9817969 L27.0349453,13.7484141 C27.6229687,13.8337734 28.1115,14.2456641 28.2950859,14.8107656 C28.4786719,15.3761484 28.3256016,15.9965156 27.9,16.4112187 Z" id="Shape"></path>
        </g>
    </g>
</svg>