<?xml version="1.0" encoding="UTF-8"?>
<svg width="72px" height="41px" viewBox="0 0 72 41" version="1.1" xmlns="http://www.w3.org/2000/svg" xmlns:xlink="http://www.w3.org/1999/xlink">
    <!-- Generator: Sketch 61.1 (89650) - https://sketch.com -->
    <title>Requirements</title>
    <desc>Created with Sketch.</desc>
    <g id="Requirements" stroke="none" stroke-width="1" fill="none" fill-rule="evenodd" transform="translate(0.000000, 0.000000)" opacity="0.25">
        <g id="pen-(1)" transform="translate(18.000000, 2.000000)" fill="#FFFFFF" fill-rule="nonzero">
            <path d="M14.1487978,8.21268973 C14.4492353,8.88922239 14.8730276,9.51175306 15.4111287,10.0501283 L15.4111287,10.0501283 L25.9130098,20.5520094 C26.4513851,21.0901105 27.0736416,21.5136287 27.7501742,21.8140662 L27.7501742,21.8140662 L23.6451999,29.8713289 C22.7559488,31.6161143 20.5448822,33.2246611 18.6109527,33.5335964 L18.6109527,33.5335964 L3.70914237,35.9126996 C3.50080978,35.9461425 3.2924772,35.9628639 3.09017526,35.9628639 L3.09017526,35.9628639 C2.61073622,35.9628639 2.16035405,35.8699367 1.75821739,35.6931281 L1.75821739,35.6931281 L14.1285127,23.3225586 C14.6997826,23.6432811 15.3458878,23.8148814 16.0188568,23.8148814 C17.0528443,23.8148814 18.0248803,23.4121964 18.7562373,22.6811135 C19.4873202,21.9500306 19.8902793,20.9777206 19.8902793,19.943733 C19.8902793,18.9094714 19.4873202,17.9374354 18.7562373,17.2063525 C18.0248803,16.4752697 17.0528443,16.0725847 16.0188568,16.0725847 C14.9848693,16.0725847 14.0128333,16.4752697 13.2817504,17.2063525 C12.5503934,17.9374354 12.1477085,18.9094714 12.1477085,19.943733 C12.1477085,20.6167021 12.3193087,21.2628072 12.6400313,21.8340771 L12.6400313,21.8340771 L0.269735871,34.2043724 C0.0156249262,33.6278943 -0.0622256707,32.9587629 0.0501643106,32.2537216 L0.0501643106,32.2537216 L2.42954171,17.3519112 C2.73820284,15.4182559 4.34674969,13.2071893 6.09153512,12.3179381 L6.09153512,12.3179381 Z M21.4204273,0.035087593 C22.4936142,0.035087593 23.5004636,0.450656272 24.2553951,1.2058619 L24.2553951,1.2058619 L34.7572762,11.7074688 C36.3205929,13.2705115 36.3205929,15.8143619 34.7572762,17.3776786 L34.7572762,17.3776786 L33.0717012,19.0632538 C32.3167696,19.8181852 31.3099202,20.2340281 30.2367333,20.2340281 C29.1632722,20.2340281 28.1566969,19.8181852 27.4017654,19.0632538 L27.4017654,19.0632538 L16.8998844,8.56137269 C16.1446787,7.80671534 15.7288359,6.79959173 15.7288359,5.72640479 C15.7288359,4.65321792 16.1446787,3.64636849 16.8998844,2.89143696 L16.8998844,2.89143696 L18.5854594,1.2055878 C19.3403909,0.450656272 20.3472404,0.035087593 21.4204273,0.035087593 Z" id="Combined-Shape"></path>
        </g>
    </g>
</svg>