<?xml version="1.0" encoding="UTF-8"?>
<svg width="59px" height="33px" viewBox="0 0 59 33" version="1.1" xmlns="http://www.w3.org/2000/svg" xmlns:xlink="http://www.w3.org/1999/xlink">
    <!-- Generator: Sketch 61.1 (89650) - https://sketch.com -->
    <title>Author</title>
    <desc>Created with Sketch.</desc>
    <g id="Author" stroke="none" stroke-width="1" fill="none" fill-rule="evenodd" opacity="0.25">
        <g id="user-(4)" transform="translate(21.000000, 7.000000)" fill="#FFFFFF" fill-rule="nonzero">
            <path d="M9.46289062,11.1328125 C11.3929121,11.1328125 13.2111602,11.899752 14.5827227,13.2923926 C15.9475684,14.6782051 16.6992187,16.5074746 16.6992187,18.4433594 C16.6992187,18.7507734 16.4499922,19 16.1425781,19 L16.1425781,19 L0.556640625,19 C0.249226562,19 0,18.7507734 0,18.4433594 C0,16.5074746 0.751650391,14.6782051 2.11649609,13.2923926 C3.48805859,11.899752 5.30634375,11.1328125 7.23632812,11.1328125 L7.23632812,11.1328125 Z M8.34960938,0 C11.1119941,0 13.359375,2.24738086 13.359375,5.00976562 C13.359375,7.77215039 11.1119941,10.0195312 8.34960938,10.0195312 C5.58722461,10.0195312 3.33984375,7.77215039 3.33984375,5.00976562 C3.33984375,2.24738086 5.58722461,0 8.34960938,0 Z" id="Combined-Shape"></path>
        </g>
    </g>
</svg>