<?xml version="1.0" encoding="UTF-8"?>
<svg width="59px" height="33px" viewBox="0 0 59 33" version="1.1" xmlns="http://www.w3.org/2000/svg" xmlns:xlink="http://www.w3.org/1999/xlink">
    <!-- Generator: Sketch 61.1 (89650) - https://sketch.com -->
    <title>Course Level</title>
    <desc>Created with Sketch.</desc>
    <g id="Course-Level" stroke="none" stroke-width="1" fill="none" fill-rule="evenodd" opacity="0.25">
        <g id="controls-(1)" transform="translate(29.411765, 17.000000) rotate(-270.000000) translate(-29.411765, -17.000000) translate(20.000000, 7.000000)" fill="#FFFFFF" fill-rule="nonzero">
            <path d="M4.1796875,0 C4.64050781,0 5.01300781,0.3725 5.01300781,0.833320313 L5.01300781,0.833320313 L5.01300781,9.16667969 L7.51300781,9.16667969 C7.97386719,9.16667969 8.34632813,9.53917969 8.34632813,10 L8.34632813,10 L8.34632813,16.6666797 C8.34632813,17.1275 7.97382812,17.5 7.51300781,17.5 L7.51300781,17.5 L5.01300781,17.5 L5.01300781,19.1666406 C5.01300781,19.6274609 4.64050781,19.9999609 4.1796875,19.9999609 C3.71886719,19.9999609 3.34636719,19.6274609 3.34636719,19.1666406 L3.34636719,19.1666406 L3.34636719,17.4999609 L0.846367188,17.4999609 C0.385546875,17.4999609 0.013046875,17.1274609 0.013046875,16.6666406 L0.013046875,16.6666406 L0.013046875,9.99996094 C0.013046875,9.53914063 0.385546875,9.16664063 0.846367188,9.16664063 L0.846367188,9.16664063 L3.34636719,9.16664063 L3.34636719,0.833320313 C3.34636719,0.3725 3.71886719,0 4.1796875,0 Z M14.1796875,1.77635684e-15 C14.6405078,1.77635684e-15 15.0130078,0.3725 15.0130078,0.833320313 L15.0130078,0.833320313 L15.0130078,2.5 L17.5130078,2.5 C17.9738672,2.5 18.3463281,2.8725 18.3463281,3.33332031 L18.3463281,3.33332031 L18.3463281,10 C18.3463281,10.4608203 17.9738281,10.8333203 17.5130078,10.8333203 L17.5130078,10.8333203 L15.0130078,10.8333203 L15.0130078,19.1666406 C15.0130078,19.6274609 14.6405078,19.9999609 14.1796875,19.9999609 C13.7188672,19.9999609 13.3463672,19.6274609 13.3463672,19.1666406 L13.3463672,19.1666406 L13.3463672,10.8333203 L10.8463672,10.8333203 C10.3855469,10.8333203 10.0130469,10.4608203 10.0130469,10 L10.0130469,10 L10.0130469,3.33332031 C10.0130469,2.8725 10.3855469,2.5 10.8463672,2.5 L10.8463672,2.5 L13.3463672,2.5 L13.3463672,0.833320313 C13.3463672,0.3725 13.7188672,1.77635684e-15 14.1796875,1.77635684e-15 Z M5.01300781,12.5000391 L3.34632813,12.5000391 C2.88550781,12.5000391 2.51300781,12.8725391 2.51300781,13.3333594 C2.51300781,13.7941797 2.88550781,14.1666797 3.34632813,14.1666797 L3.34632813,14.1666797 L5.01300781,14.1666797 C5.47386719,14.1666797 5.84636719,13.7941797 5.84632812,13.3333594 C5.84632812,12.8725391 5.47382812,12.5000391 5.01300781,12.5000391 L5.01300781,12.5000391 Z M15.0130078,5.83335938 L13.3463281,5.83335938 C12.8855078,5.83335938 12.5130078,6.20585938 12.5130078,6.66667969 C12.5130078,7.1275 12.8855078,7.5 13.3463281,7.5 L13.3463281,7.5 L15.0130078,7.5 C15.4738672,7.5 15.8463672,7.1275 15.8463281,6.66667969 C15.8463281,6.20585938 15.4738281,5.83335938 15.0130078,5.83335938 L15.0130078,5.83335938 Z" id="Combined-Shape"></path>
        </g>
    </g>
</svg>