<?xml version="1.0" encoding="UTF-8"?>
<svg width="72px" height="41px" viewBox="0 0 72 41" version="1.1" xmlns="http://www.w3.org/2000/svg" xmlns:xlink="http://www.w3.org/1999/xlink">
    <!-- Generator: Sketch 61.1 (89650) - https://sketch.com -->
    <title>Categories</title>
    <desc>Created with Sketch.</desc>
    <g id="Categories" stroke="none" stroke-width="1" fill="none" fill-rule="evenodd" transform="translate(0.000000, 0.000000)" opacity="0.25">
        <g id="noun_Category_2408657" transform="translate(18.000000, 3.000000)" fill="#FFFFFF" fill-rule="nonzero">
            <path d="M0.551362693,0.186279944 C0.283055484,0.186279944 0.0670653576,0.418899074 0.0670653576,0.707848527 L0.0670653576,8.4478317 C0.0670653576,8.73677734 0.283066928,8.96940028 0.551362693,8.96940028 L8.36573576,8.96940028 C8.63404297,8.96940028 8.8500331,8.73678115 8.8500331,8.4478317 L8.8500331,0.707848527 C8.8500331,0.418902889 8.63403153,0.186279944 8.36573576,0.186279944 L0.551362693,0.186279944 Z M13.140423,0.186279944 C12.8721158,0.186279944 12.6561257,0.418899074 12.6561257,0.707848527 L12.6561257,8.4478317 C12.6561257,8.73677734 12.8721272,8.96940028 13.140423,8.96940028 L20.9547961,8.96940028 C21.2231033,8.96940028 21.4390934,8.73678115 21.4390934,8.4478317 L21.4390934,0.707848527 C21.4390934,0.418902889 21.2230918,0.186279944 20.9547961,0.186279944 L13.140423,0.186279944 Z M25.7294833,0.186279944 C25.4611761,0.186279944 25.245186,0.418899074 25.245186,0.707848527 L25.245186,8.4478317 C25.245186,8.73677734 25.4611875,8.96940028 25.7294833,8.96940028 L33.5438564,8.96940028 C33.8121636,8.96940028 34.0281537,8.73678115 34.0281537,8.4478317 L34.0281537,0.707848527 C34.0281537,0.418902889 33.8121521,0.186279944 33.5438564,0.186279944 L25.7294833,0.186279944 Z M0.551362693,12.3938536 C0.283055484,12.3938536 0.0670653576,12.6264727 0.0670653576,12.9154222 L0.0670653576,20.6554053 C0.0670653576,20.944351 0.283066928,21.1769739 0.551362693,21.1769739 L8.36573576,21.1769739 C8.63404297,21.1769739 8.8500331,20.9443548 8.8500331,20.6554053 L8.8500331,12.9154222 C8.8500331,12.6264765 8.63403153,12.3938536 8.36573576,12.3938536 L0.551362693,12.3938536 Z M13.140423,12.3938536 C12.8721158,12.3938536 12.6561257,12.6264727 12.6561257,12.9154222 L12.6561257,20.6554053 C12.6561257,20.944351 12.8721272,21.1769739 13.140423,21.1769739 L20.9547961,21.1769739 C21.2231033,21.1769739 21.4390934,20.9443548 21.4390934,20.6554053 L21.4390934,12.9154222 C21.4390934,12.6264765 21.2230918,12.3938536 20.9547961,12.3938536 L13.140423,12.3938536 Z M25.7294833,12.3938536 C25.4611761,12.3938536 25.245186,12.6264727 25.245186,12.9154222 L25.245186,20.6554053 C25.245186,20.944351 25.4611875,21.1769739 25.7294833,21.1769739 L33.5438564,21.1769739 C33.8121636,21.1769739 34.0281537,20.9443548 34.0281537,20.6554053 L34.0281537,12.9154222 C34.0281537,12.6264765 33.8121521,12.3938536 33.5438564,12.3938536 L25.7294833,12.3938536 Z M0.551362693,24.6014272 C0.283055484,24.6014272 0.0670653576,24.8340463 0.0670653576,25.1229958 L0.0670653576,32.862979 C0.0670653576,33.1519246 0.283066928,33.3845475 0.551362693,33.3845475 L8.36573576,33.3845475 C8.63404297,33.3845475 8.8500331,33.1519284 8.8500331,32.862979 L8.8500331,25.1229958 C8.8500331,24.8340502 8.63403153,24.6014272 8.36573576,24.6014272 L0.551362693,24.6014272 Z M13.140423,24.6014272 C12.8721158,24.6014272 12.6561257,24.8340463 12.6561257,25.1229958 L12.6561257,32.862979 C12.6561257,33.1519246 12.8721272,33.3845475 13.140423,33.3845475 L20.9547961,33.3845475 C21.2231033,33.3845475 21.4390934,33.1519284 21.4390934,32.862979 L21.4390934,25.1229958 C21.4390934,24.8340502 21.2230918,24.6014272 20.9547961,24.6014272 L13.140423,24.6014272 Z M25.7294833,24.6014272 C25.4611761,24.6014272 25.245186,24.8340463 25.245186,25.1229958 L25.245186,32.862979 C25.245186,33.1519246 25.4611875,33.3845475 25.7294833,33.3845475 L33.5438564,33.3845475 C33.8121636,33.3845475 34.0281537,33.1519284 34.0281537,32.862979 L34.0281537,25.1229958 C34.0281537,24.8340502 33.8121521,24.6014272 33.5438564,24.6014272 L25.7294833,24.6014272 Z" id="Shape"></path>
        </g>
    </g>
</svg>