<?xml version="1.0" encoding="UTF-8"?>
<svg width="72px" height="40px" viewBox="0 0 72 40" version="1.1" xmlns="http://www.w3.org/2000/svg" xmlns:xlink="http://www.w3.org/1999/xlink">
    <!-- Generator: Sketch 61.1 (89650) - https://sketch.com -->
    <title>Author</title>
    <desc>Created with Sketch.</desc>
    <g id="Author" stroke="none" stroke-width="1" fill="none" fill-rule="evenodd" opacity="0.25">
        <g id="user-(4)" transform="translate(21.000000, 3.000000)" fill="#FFFFFF" fill-rule="nonzero">
            <path d="M16.9335938,19.921875 C20.3873164,19.921875 23.6410234,21.294293 26.0953984,23.7863867 C28.5377539,26.2662617 29.8828125,29.5396914 29.8828125,33.0039062 C29.8828125,33.5540156 29.4368281,34 28.8867188,34 L28.8867188,34 L0.99609375,34 C0.445984375,34 0,33.5540156 0,33.0039062 C0,29.5396914 1.34505859,26.2662617 3.78741406,23.7863867 C6.24178906,21.294293 9.4955625,19.921875 12.9492188,19.921875 L12.9492188,19.921875 Z M14.9414062,0 C19.8846211,0 23.90625,4.02162891 23.90625,8.96484375 C23.90625,13.9080586 19.8846211,17.9296875 14.9414062,17.9296875 C9.99819141,17.9296875 5.9765625,13.9080586 5.9765625,8.96484375 C5.9765625,4.02162891 9.99819141,0 14.9414062,0 Z" id="Combined-Shape"></path>
        </g>
    </g>
</svg>