<?xml version="1.0" encoding="UTF-8"?>
<svg width="72px" height="40px" viewBox="0 0 72 40" version="1.1" xmlns="http://www.w3.org/2000/svg" xmlns:xlink="http://www.w3.org/1999/xlink">
    <!-- Generator: Sketch 61.1 (89650) - https://sketch.com -->
    <title>Course Status</title>
    <desc>Created with Sketch.</desc>
    <g id="Course-Status" stroke="none" stroke-width="1" fill="none" fill-rule="evenodd" opacity="0.25">
        <g id="notification-(1)" transform="translate(20.000000, 2.000000)" fill="#FFFFFF" fill-rule="nonzero">
            <path d="M17.9403992,33.5906982 C16.9337769,35.0447387 15.2545166,36 13.3558045,36 C11.4570923,36 9.77783203,35.0447387 8.77120973,33.5906982 L8.77120973,33.5906982 Z M13.3558045,4.51867676 C14.5255738,4.51867676 15.6700744,4.69885254 16.7585449,5.04876712 C16.1713257,6.22869877 15.8400879,7.55749512 15.8400879,8.96264648 C15.8400879,13.7546082 19.6853027,17.6654663 24.4522705,17.772583 L24.4522705,17.772583 L24.4522705,25.0252075 C25.7643127,25.4665832 26.7116089,26.708313 26.7116089,28.1672973 C26.7116089,29.9945984 25.224884,31.4813232 23.397583,31.4813232 L23.397583,31.4813232 L3.31402584,31.4813232 C1.48672484,31.4813232 1.36779477e-13,29.9945984 1.36779477e-13,28.1672973 C1.36779477e-13,26.708313 0.947570766,25.4665832 2.25933834,25.0252075 L2.25933834,25.0252075 L2.25933834,15.6151428 C2.25933834,9.49658203 7.23724369,4.51867676 13.3558045,4.51867676 Z M24.652771,2.25933834 C28.3488465,2.25933834 31.3558045,5.26657106 31.3558045,8.96264648 C31.3558045,12.6584473 28.3488465,15.6656799 24.652771,15.6656799 C20.9566955,15.6656799 17.9494629,12.6584473 17.9494629,8.96264648 C17.9494629,5.26657106 20.9566955,2.25933834 24.652771,2.25933834 Z M13.3558045,-2.95319325e-14 C15.01474,-2.95319325e-14 16.3927002,1.22525023 16.6327515,2.8182678 C15.5722961,2.54772949 14.473938,2.40930176 13.3558045,2.40930176 C12.2250367,2.40930176 11.1269531,2.55239866 10.0785828,2.82101442 C10.3175354,1.2266235 11.6960449,-2.95319325e-14 13.3558045,-2.95319325e-14 Z" id="Combined-Shape"></path>
        </g>
    </g>
</svg>