<?xml version="1.0" encoding="UTF-8"?>
<svg width="59px" height="33px" viewBox="0 0 59 33" version="1.1" xmlns="http://www.w3.org/2000/svg" xmlns:xlink="http://www.w3.org/1999/xlink">
    <!-- Generator: Sketch 61.1 (89650) - https://sketch.com -->
    <title>Total Enrolled</title>
    <desc>Created with Sketch.</desc>
    <g id="Total-Enrolled" stroke="none" stroke-width="1" fill="none" fill-rule="evenodd" opacity="0.25">
        <g id="graduated" transform="translate(19.000000, 7.000000)" fill="#FFFFFF" fill-rule="nonzero">
            <path d="M8.62607143,17.4721429 C8.96991146,17.8205599 9.40855982,18.0602517 9.8875,18.1614286 L9.11857143,20 L8.85785714,19.4 C8.77944429,19.2198381 8.57022857,19.136854 8.38964286,19.2142857 L7.78857143,19.48 L8.62607143,17.4721429 Z M12.1782143,17.4710714 L13.0139286,19.4710714 L12.4139286,19.2142857 C12.2333429,19.136854 12.0241271,19.2198381 11.9457143,19.4 L11.6814286,19.9939286 L10.9157143,18.1607143 C11.3950271,18.0594942 11.8340394,17.8196829 12.1782143,17.4710714 Z M10.4017857,13.9285714 C11.3880085,13.9285714 12.1875,14.728063 12.1875,15.7142857 C12.1863192,16.700019 11.387519,17.4988192 10.4017857,17.5 C9.41556296,17.5 8.61607143,16.7005085 8.61607143,15.7142857 C8.61607143,14.728063 9.41556296,13.9285714 10.4017857,13.9285714 Z M19.6160714,11.0889286 C19.7817857,11.3703571 20.0446429,12.4835714 20.0446429,14.2857143 C20.0446429,16.0878571 19.78,17.2007143 19.6160714,17.4821429 C17.3215419,17.1290031 15.0078323,16.9143291 12.6875,16.8392857 L12.6621429,16.7778571 C13.1112874,15.8314094 12.9187346,14.7049473 12.1807143,13.9614286 C12.1779523,13.2207667 12.0924214,12.4827336 11.9257143,11.7610714 C14.5009959,11.7034069 17.0698327,11.4788887 19.6160714,11.0889286 Z M1.12428571,11.1885714 C3.39330957,11.5019562 5.67780996,11.6906919 7.9675,11.7539286 C8.18170961,12.5802351 8.27979461,13.4323487 8.25892857,14.2857143 C8.25892857,14.3375 8.25892857,14.3867857 8.25678571,14.4364286 C7.82820454,15.1477089 7.78501354,16.0265518 8.14178571,16.7764286 L8.12607143,16.8142857 C5.78330689,16.8717249 3.44565604,17.0614317 1.12428571,17.3825 C1.34045654,16.5147391 1.45753596,15.6257562 1.47360574,14.7325756 L1.47321429,14.2857143 C1.49381215,13.2424717 1.37648747,12.20108 1.12428571,11.1885714 Z M0.401785714,11.25 C0.675434268,12.2376752 0.795883943,13.2614974 0.758928571,14.2857143 C0.795883943,15.3099311 0.675434268,16.3337534 0.401785714,17.3214286 C0.128137161,16.3337534 0.00768748571,15.3099311 0.0446428571,14.2857143 C0.00768748571,13.2614974 0.128137161,12.2376752 0.401785714,11.25 Z M8.71357143,11.7721429 C9.14619046,11.7811905 9.58988096,11.7857143 10.0446429,11.7857143 C10.435,11.7857143 10.8139286,11.7814286 11.1875,11.775 L11.1875,11.775 C11.3358151,12.3203434 11.4221937,12.8806655 11.445,13.4453571 C10.6352081,13.0688105 9.68545082,13.1570871 8.95892857,13.6764286 C8.94066093,13.0350877 8.85846836,12.3971682 8.71357143,11.7721429 Z M10.0446429,7.5 C12.6867857,7.5 14.3471429,7.93642857 14.6575,8.21428571 C14.3471429,8.49214286 12.6875,8.92857143 10.0446429,8.92857143 C7.40178571,8.92857143 5.74214286,8.49214286 5.43178571,8.21428571 C5.74214286,7.93642857 7.4025,7.5 10.0446429,7.5 Z M10.0446429,3.57142857 C12.7889286,3.57142857 14.4732143,4.04214286 14.6875,4.31714286 L14.6875,7.42857143 C13.3815571,6.83405714 10.6876189,6.78855314 10.1060799,6.78586405 L10.0446429,6.78571429 C9.62857143,6.78571429 6.76214286,6.80928571 5.40178571,7.42857143 L5.40178571,4.31714286 C5.61607143,4.04214286 7.30035714,3.57142857 10.0446429,3.57142857 Z M17.5446429,5 C17.7418874,5 17.9017857,5.15989832 17.9017857,5.35714286 L17.9017857,6.42857143 L17.1875,6.42857143 L17.1875,5.35714286 C17.1875,5.15989832 17.3473983,5 17.5446429,5 Z M10.0496429,-1.93425523e-14 L17.1875,2.55071429 L17.1875,4.35142857 C16.9616735,4.43167936 16.7691931,4.58518589 16.6407143,4.7875 L15.4017857,5.22928571 L15.4017857,4.28571429 C15.4017857,2.97882353 11.1419736,2.86651508 10.1837694,2.85782443 L9.90551634,2.85782443 C8.94731216,2.86651508 4.6875,2.97882353 4.6875,4.28571429 L4.6875,5.22892857 L0.0446428571,3.57142857 L10.0496429,-1.93425523e-14 Z M17.9017857,2.80607143 L20.0446429,3.57142857 L17.9017857,4.33714286 L17.9017857,2.80607143 Z" id="Combined-Shape"></path>
        </g>
    </g>
</svg>