<?xml version="1.0" encoding="UTF-8"?>
<svg width="59px" height="33px" viewBox="0 0 59 33" version="1.1" xmlns="http://www.w3.org/2000/svg" xmlns:xlink="http://www.w3.org/1999/xlink">
    <!-- Generator: Sketch 61.1 (89650) - https://sketch.com -->
    <title>Short Description</title>
    <desc>Created with Sketch.</desc>
    <g id="Short-Description" stroke="none" stroke-width="1" fill="none" fill-rule="evenodd" opacity="0.25">
        <g id="align-(2)" transform="translate(18.000000, 12.000000)" fill="#FFFFFF" fill-rule="nonzero">
            <path d="M12.255591,5.70204229 C13.1636732,5.70204229 13.898117,6.43646263 13.898117,7.34456837 C13.898117,8.25262717 13.1636732,8.98709444 12.255591,8.98709444 L12.255591,8.98709444 L1.64252607,8.98709444 C0.734443801,8.98709444 -9.59232693e-14,8.25262717 -9.59232693e-14,7.34456837 C-9.59232693e-14,6.43646263 0.734443801,5.70204229 1.64252607,5.70204229 L1.64252607,5.70204229 Z M21.4701622,0.0564690035 C22.3782445,0.0564690035 23.1126883,0.79088934 23.1126883,1.69899508 C23.1126883,2.60470742 22.3782445,3.34152115 21.4701622,3.34152115 L21.4701622,3.34152115 L1.64252607,3.34152115 C0.734443801,3.34152115 -9.59232693e-14,2.60705388 -9.59232693e-14,1.69899508 C-9.59232693e-14,0.79088934 0.734443801,0.0564690035 1.64252607,0.0564690035 L1.64252607,0.0564690035 Z" id="Combined-Shape"></path>
        </g>
    </g>
</svg>