<?xml version="1.0" encoding="UTF-8"?>
<svg width="72px" height="40px" viewBox="0 0 72 40" version="1.1" xmlns="http://www.w3.org/2000/svg" xmlns:xlink="http://www.w3.org/1999/xlink">
    <!-- Generator: Sketch 61.1 (89650) - https://sketch.com -->
    <title>Target Audience</title>
    <desc>Created with Sketch.</desc>
    <g id="Target-Audience" stroke="none" stroke-width="1" fill="none" fill-rule="evenodd" opacity="0.25">
        <g id="graphic" transform="translate(19.000000, 3.000000)" fill="#FFFFFF" fill-rule="nonzero">
            <path d="M33.0039062,28.0234375 C33.5540924,28.0234375 34,28.4693451 34,29.0195312 L34,33.0039062 C34,33.5540924 33.5540924,34 33.0039062,34 L0.99609375,34 C0.445907609,34 0,33.5540924 0,33.0039062 L0,29.0195312 C0,28.4693451 0.445907609,28.0234375 0.99609375,28.0234375 L33.0039062,28.0234375 Z M6.92596436,19.7288818 C7.4761505,19.7288818 7.92205811,20.1750488 7.92205811,20.7249756 L7.92205811,20.7249756 L7.92205811,26.03125 L1.94549561,26.03125 L1.94549561,20.7249756 C1.94549561,20.1750488 2.39140321,19.7288818 2.94158936,19.7288818 L2.94158936,19.7288818 Z M31.0262451,10.6480865 C31.5764313,10.6480865 32.0223389,11.0939941 32.0223389,11.6441803 L32.0223389,11.6441803 L32.0223389,26.03125 L26.0457764,26.03125 L26.0457764,11.6441803 C26.0457764,11.0939941 26.491684,10.6480865 27.0418701,10.6480865 L27.0418701,10.6480865 Z M23.0429688,18.8248749 C23.5931549,18.8248749 24.0390625,19.2710419 24.0390625,19.8209686 L24.0390625,19.8209686 L24.0390625,26.03125 L18.0625,26.03125 L18.0625,19.8209686 C18.0625,19.2710419 18.5084076,18.8248749 19.0585938,18.8248749 L19.0585938,18.8248749 Z M15.0233765,16.4306183 C15.5733032,16.4306183 16.0194702,16.8765259 16.0194702,17.426712 L16.0194702,17.426712 L16.0194702,26.03125 L10.0429077,26.03125 L10.0429077,17.426712 C10.0429077,16.8765259 10.4888153,16.4306183 11.0390015,16.4306183 L11.0390015,16.4306183 Z M31.021576,0 C31.5717621,0 32.0176697,0.445907609 32.0176697,0.99609375 L32.0176697,0.99609375 L32.0176697,4.03884884 C32.0176697,4.58903505 31.5717621,5.03494259 31.021576,5.03494259 C30.4713898,5.03494259 30.0254822,4.58903505 30.0254822,4.03884884 L30.0254822,4.03884884 L30.0254822,3.52990723 L21.7109527,12.4000702 C21.4715271,12.6555786 21.1156311,12.7663422 20.7729645,12.6921539 L20.7729645,12.6921539 L13.2962951,11.0690918 L5.45594786,16.8145294 C5.27877811,16.9444885 5.07255556,17.0072632 4.86814882,17.0072632 C4.56153868,17.0072632 4.259079,16.8661499 4.06401064,16.6000061 C3.73872374,16.1561737 3.83470155,15.5328369 4.27853397,15.2078095 L4.27853397,15.2078095 L12.480484,9.19726562 C12.7105713,9.02865604 13.0018768,8.96665956 13.2804718,9.02709961 L13.2804718,9.02709961 L20.6437836,10.6257782 L28.7365265,1.9921875 L27.9788208,1.9921875 C27.4286347,1.9921875 26.9827271,1.54627989 26.9827271,0.99609375 C26.9827271,0.445907609 27.4286347,0 27.9788208,0 L27.9788208,0 Z" id="Combined-Shape"></path>
        </g>
    </g>
</svg>