<?xml version="1.0" encoding="UTF-8"?>
<svg width="72px" height="40px" viewBox="0 0 72 40" version="1.1" xmlns="http://www.w3.org/2000/svg" xmlns:xlink="http://www.w3.org/1999/xlink">
    <!-- Generator: Sketch 61.1 (89650) - https://sketch.com -->
    <title>Short Description</title>
    <desc>Created with Sketch.</desc>
    <g id="Short-Description" stroke="none" stroke-width="1" fill="none" fill-rule="evenodd" opacity="0.25">
        <g id="align-(2)" transform="translate(15.000000, 12.000000)" fill="#FFFFFF" fill-rule="nonzero">
            <path d="M21.7877173,10.1369641 C23.4020857,10.1369641 24.7077636,11.4426002 24.7077636,13.0570104 C24.7077636,14.6713372 23.4020857,15.9770568 21.7877173,15.9770568 L21.7877173,15.9770568 L2.92004635,15.9770568 C1.30567787,15.9770568 -1.70530257e-13,14.6713372 -1.70530257e-13,13.0570104 C-1.70530257e-13,11.4426002 1.30567787,10.1369641 2.92004635,10.1369641 L2.92004635,10.1369641 Z M38.1691773,0.10038934 C39.7835458,0.10038934 41.0892236,1.40602549 41.0892236,3.02043569 C41.0892236,4.63059096 39.7835458,5.94048204 38.1691773,5.94048204 L38.1691773,5.94048204 L2.92004635,5.94048204 C1.30567787,5.94048204 -1.70530257e-13,4.63476246 -1.70530257e-13,3.02043569 C-1.70530257e-13,1.40602549 1.30567787,0.10038934 2.92004635,0.10038934 L2.92004635,0.10038934 Z" id="Combined-Shape"></path>
        </g>
    </g>
</svg>