<?xml version="1.0" encoding="UTF-8"?>
<svg width="59px" height="33px" viewBox="0 0 59 33" version="1.1" xmlns="http://www.w3.org/2000/svg" xmlns:xlink="http://www.w3.org/1999/xlink">
    <!-- Generator: Sketch 61.1 (89650) - https://sketch.com -->
    <title>rating</title>
    <desc>Created with Sketch.</desc>
    <g id="rating" stroke="none" stroke-width="1" fill="none" fill-rule="evenodd" opacity="0.25">
        <g id="star-(15)" transform="translate(20.000000, 7.000000)" fill="#FFFFFF" fill-rule="nonzero">
            <path d="M10,0 C4.48597656,0 0,4.48597656 0,10 C0,15.5140234 4.4859375,20 10,20 C15.5140625,20 20,15.5140234 20,10 C20,4.48597656 15.5140234,0 10,0 Z M15.5,9.11734375 L13.3791797,11.1846875 L13.8798438,14.10375 C13.935625,14.4291016 13.8018359,14.7578906 13.5348047,14.9519922 C13.3837891,15.0617188 13.2047656,15.1175796 13.0249609,15.1175796 C12.886875,15.1175796 12.7483984,15.0846875 12.6214453,15.0179687 L9.99996094,13.6396875 L7.3784375,15.0179687 C7.08628906,15.1715234 6.73226563,15.1460547 6.46507812,14.951875 C6.19800781,14.7578906 6.06421875,14.4290234 6.12007812,14.1036328 L6.62078125,11.1846094 L4.49996094,9.11730469 C4.26359375,8.88691406 4.17847656,8.54226562 4.28054687,8.22828125 C4.38253906,7.91425781 4.65394531,7.68542969 4.98066406,7.63800781 L7.91160156,7.21210937 L9.22234375,4.55617187 C9.3684375,4.26015625 9.66996094,4.07277344 10.0000391,4.07277344 C10.3301953,4.07277344 10.6316406,4.26015625 10.7777344,4.55617187 L12.0884766,7.21210937 L15.0194141,7.63800781 C15.3460938,7.68542969 15.6175,7.91425781 15.7194922,8.22820312 C15.8214844,8.54230469 15.7364453,8.88695313 15.5,9.11734375 Z" id="Shape"></path>
        </g>
    </g>
</svg>