<?xml version="1.0" encoding="UTF-8"?>
<svg width="59px" height="33px" viewBox="0 0 59 33" version="1.1" xmlns="http://www.w3.org/2000/svg" xmlns:xlink="http://www.w3.org/1999/xlink">
    <!-- Generator: Sketch 61.1 (89650) - https://sketch.com -->
    <title>Social Share</title>
    <desc>Created with Sketch.</desc>
    <g id="Social-Share" stroke="none" stroke-width="1" fill="none" fill-rule="evenodd" fill-opacity="0.25">
        <g id="share" transform="translate(18.000000, 2.000000)" fill="#FFFFFF" fill-rule="nonzero">
            <path d="M15.0390625,12.578125 C13.8566016,12.578125 12.8015625,13.1340625 12.1215234,13.9982422 L7.19894531,11.2671484 C7.343125,10.8716016 7.421875,10.4448047 7.421875,10 C7.421875,9.55519531 7.343125,9.12839844 7.19894531,8.73285156 L12.1215234,6.00175781 C12.8015625,6.8659375 13.8566016,7.421875 15.0390625,7.421875 C17.0852734,7.421875 18.75,5.75714844 18.75,3.7109375 C18.75,1.66472656 17.0852734,0 15.0390625,0 C12.9928516,0 11.328125,1.66472656 11.328125,3.7109375 C11.328125,4.15574219 11.406875,4.58253906 11.5510547,4.97808594 L6.62847656,7.70917969 C5.9484375,6.845 4.89339844,6.2890625 3.7109375,6.2890625 C1.66472656,6.2890625 0,7.95378906 0,10 C0,12.0462109 1.66472656,13.7109375 3.7109375,13.7109375 C4.89339844,13.7109375 5.9484375,13.155 6.62847656,12.2908203 L11.5510547,15.0219141 C11.406875,15.4175 11.328125,15.8442578 11.328125,16.2890625 C11.328125,18.3352734 12.9928516,20 15.0390625,20 C17.0852734,20 18.75,18.3352734 18.75,16.2890625 C18.75,14.2428516 17.0852734,12.578125 15.0390625,12.578125 Z" id="Path"></path>
        </g>
    </g>
</svg>