<?xml version="1.0" encoding="UTF-8"?>
<svg width="59px" height="33px" viewBox="0 0 59 33" version="1.1" xmlns="http://www.w3.org/2000/svg" xmlns:xlink="http://www.w3.org/1999/xlink">
    <!-- Generator: Sketch 61.1 (89650) - https://sketch.com -->
    <title>Thumbnail</title>
    <desc>Created with Sketch.</desc>
    <g id="Thumbnail" stroke="none" stroke-width="1" fill="none" fill-rule="evenodd" opacity="0.25">
        <g id="image-(3)" transform="translate(19.000000, 9.000000)" fill="#FFFFFF" fill-rule="nonzero">
            <path d="M20.3201641,0.0089025641 C20.6984615,0.0089025641 21.0051692,0.315610256 21.0051692,0.693866667 L21.0051692,0.693866667 L21.0051692,15.3061333 C21.0051692,15.6844308 20.6984615,15.9910974 20.3202051,15.9910974 L20.3202051,15.9910974 L0.684964103,15.9910974 C0.306666667,15.9910974 -3.38552715e-14,15.6843897 -3.38552715e-14,15.3061333 L-3.38552715e-14,15.3061333 L-3.38552715e-14,0.693866667 C-3.38552715e-14,0.315610256 0.306666667,0.0089025641 0.684964103,0.0089025641 L0.684964103,0.0089025641 Z M19.635241,1.37883077 L1.36992821,1.37883077 L1.36992821,10.6980923 L4.69780513,7.17013333 C4.97042051,6.88127179 5.42810256,6.88791795 5.69431795,7.17013333 L5.69431795,7.17013333 L8.89251282,10.5607385 L15.3144615,3.75269744 C15.5866667,3.46412308 16.0438564,3.46949744 16.3109744,3.75269744 L16.3109744,3.75269744 L19.635241,7.2766359 L19.635241,1.37883077 Z M8.89247179,2.98715897 C10.0297026,2.98715897 10.9549949,3.91245128 10.9549949,5.04968205 C10.9549949,6.18695385 10.0297436,7.11224615 8.89247179,7.11224615 C7.7552,7.11224615 6.82990769,6.18695385 6.82990769,5.04968205 C6.82990769,3.91245128 7.7552,2.98715897 8.89247179,2.98715897 Z" id="Combined-Shape"></path>
        </g>
    </g>
</svg>