<?xml version="1.0" encoding="UTF-8"?>
<svg width="72px" height="41px" viewBox="0 0 72 41" version="1.1" xmlns="http://www.w3.org/2000/svg" xmlns:xlink="http://www.w3.org/1999/xlink">
    <!-- Generator: Sketch 61.1 (89650) - https://sketch.com -->
    <title>Curriculum</title>
    <desc>Created with Sketch.</desc>
    <g id="Curriculum" stroke="none" stroke-width="1" fill="none" fill-rule="evenodd" transform="translate(0.000000, 0.000000)" opacity="0.25">
        <g id="dedent" transform="translate(14.000000, 2.000000)" fill="#FFFFFF" fill-rule="nonzero">
            <path d="M42.1681963,32.3551682 C42.6641215,32.3551682 43.0655047,32.7564673 43.0655047,33.2523084 L43.0655047,33.2523084 L43.0655047,35.0466729 C43.0655047,35.5425981 42.6642056,35.9438972 42.1682804,35.9438972 L42.1682804,35.9438972 L0.897224299,35.9438972 C0.401299065,35.9438972 -5.68434189e-14,35.5425981 -5.68434189e-14,35.0466729 L-5.68434189e-14,35.0466729 L-5.68434189e-14,33.2523084 C-5.68434189e-14,32.7564673 0.401299065,32.3551682 0.897224299,32.3551682 L0.897224299,32.3551682 Z M9.64488785,9.42148598 C10.4211589,8.80115888 11.5479252,8.92816822 12.1682523,9.70183178 C12.7868131,10.4754953 12.6606449,11.6048692 11.8878224,12.2234299 L11.8878224,12.2234299 L4.66645794,18 L11.8879907,23.7765701 C12.660729,24.3951308 12.7868972,25.5245047 12.1683364,26.2981682 C11.8125421,26.7414393 11.2921402,26.9719065 10.7646729,26.9719065 C10.3721215,26.9719065 9.9761215,26.8431308 9.64488785,26.578514 L9.64488785,26.578514 L0.672897196,19.400972 C0.247121495,19.0610748 -4.52970994e-14,18.5449626 -4.52970994e-14,18 C-4.52970994e-14,17.4550374 0.247121495,16.9389252 0.672897196,16.599028 L0.672897196,16.599028 Z M42.1681963,21.5888131 C42.6641215,21.5888131 43.0655047,21.9901121 43.0655047,22.4860374 L43.0655047,22.4860374 L43.0655047,24.2804019 C43.0655047,24.7763271 42.6642056,25.1776262 42.1682804,25.1776262 L42.1682804,25.1776262 L17.046757,25.1776262 C16.5508318,25.1776262 16.1495327,24.7763271 16.1495327,24.2804019 L16.1495327,24.2804019 L16.1495327,22.4860374 C16.1495327,21.9901121 16.5508318,21.5888131 17.046757,21.5888131 L17.046757,21.5888131 Z M42.1681963,10.8224579 C42.6641215,10.8224579 43.0655047,11.223757 43.0655047,11.7196822 L43.0655047,11.7196822 L43.0655047,13.5140467 C43.0655047,14.009972 42.6642056,14.411271 42.1682804,14.411271 L42.1682804,14.411271 L17.046757,14.411271 C16.5508318,14.411271 16.1495327,14.009972 16.1495327,13.5140467 L16.1495327,13.5140467 L16.1495327,11.7196822 C16.1495327,11.223757 16.5508318,10.8224579 17.046757,10.8224579 L17.046757,10.8224579 Z M42.1681963,0.0561028037 C42.6641215,0.0561028037 43.0655047,0.457401869 43.0655047,0.953242991 L43.0655047,0.953242991 L43.0655047,2.74760748 C43.0655047,3.24353271 42.6642056,3.64483178 42.1682804,3.64483178 L42.1682804,3.64483178 L0.897224299,3.64483178 C0.401299065,3.64483178 -5.68434189e-14,3.24353271 -5.68434189e-14,2.74760748 L-5.68434189e-14,2.74760748 L-5.68434189e-14,0.953242991 C-5.68434189e-14,0.457401869 0.401299065,0.0561028037 0.897224299,0.0561028037 L0.897224299,0.0561028037 Z" id="Combined-Shape"></path>
        </g>
    </g>
</svg>