<?xml version="1.0" encoding="UTF-8"?>
<svg width="59px" height="33px" viewBox="0 0 59 33" version="1.1" xmlns="http://www.w3.org/2000/svg" xmlns:xlink="http://www.w3.org/1999/xlink">
    <!-- Generator: Sketch 61.1 (89650) - https://sketch.com -->
    <title>Last Udpate</title>
    <desc>Created with Sketch.</desc>
    <g id="Last-Udpate" stroke="none" stroke-width="1" fill="none" fill-rule="evenodd" opacity="0.25">
        <g id="update-arrow" transform="translate(20.000000, 7.000000)" fill="#FFFFFF" fill-rule="nonzero">
            <path d="M9.05724138,19.4931034 C4.18758621,19.4931034 0.226206897,15.5275862 0.226206897,10.6593103 C0.226206897,5.79034483 4.18758621,1.82689655 9.05724138,1.82689655 C9.38068966,1.82689655 9.70758621,1.84551724 10.0324138,1.88206897 L10.0324138,0.454482759 C10.0324138,0.271034483 10.1455172,0.104137931 10.3124138,0.0331034483 C10.4862069,-0.0344827586 10.6786207,0.00344827586 10.8110345,0.135172414 L13.94,3.27103448 C14.117931,3.44896552 14.117931,3.73310345 13.94,3.9137931 L10.8124138,7.05655172 C10.6793103,7.1862069 10.4862069,7.2262069 10.3124138,7.15517241 C10.1455172,7.08344828 10.0324138,6.91793103 10.0324138,6.73517241 L10.0324138,5.15172414 C9.70896552,5.09241379 9.38344828,5.06551724 9.05724138,5.06551724 C5.97241379,5.06551724 3.46206897,7.57517241 3.46206897,10.6593103 C3.46206897,13.7427586 5.97310345,16.2544828 9.05724138,16.2544828 C12.1413793,16.2544828 14.6510345,13.742069 14.6510345,10.6593103 C14.6510345,10.4089655 14.8544828,10.2041379 15.1075862,10.2041379 L17.4310345,10.2041379 C17.6827586,10.2041379 17.8875862,10.4089655 17.8875862,10.6593103 C17.8875862,15.5275862 13.9234483,19.4931034 9.05724138,19.4931034 Z" id="Path"></path>
        </g>
    </g>
</svg>