<?xml version="1.0" encoding="UTF-8"?>
<svg width="59px" height="33px" viewBox="0 0 59 33" version="1.1" xmlns="http://www.w3.org/2000/svg" xmlns:xlink="http://www.w3.org/1999/xlink">
    <!-- Generator: Sketch 61.1 (89650) - https://sketch.com -->
    <title>Course List</title>
    <desc>Created with Sketch.</desc>
    <g id="Course-List" stroke="none" stroke-width="1" fill="none" fill-rule="evenodd" opacity="0.25">
        <g id="questions" transform="translate(20.000000, 7.000000)" fill="#FFFFFF" fill-rule="nonzero">
            <path d="M19.4140625,14.1015625 C19.737854,14.1015625 20,14.3637085 20,14.6875 L20,14.6875 L20,17.03125 C20,17.3550415 19.737854,17.6171875 19.4140625,17.6171875 L19.4140625,17.6171875 L12.7059937,17.6171875 L11.6960144,19.6762085 C11.5963745,19.8747254 11.3938904,20 11.171875,20 C10.9498596,20 10.7473755,19.8747254 10.6477356,19.6762085 L10.6477356,19.6762085 L9.63775633,17.6171875 L7.65625,17.6171875 C7.33245852,17.6171875 7.0703125,17.3550415 7.0703125,17.03125 L7.0703125,17.03125 L7.0703125,14.6875 C7.0703125,14.3637085 7.33245852,14.1015625 7.65625,14.1015625 L7.65625,14.1015625 Z M5.3125,14.1015625 C5.63629148,14.1015625 5.8984375,14.3637085 5.8984375,14.6875 L5.8984375,14.6875 L5.8984375,17.03125 C5.8984375,17.3550415 5.63629148,17.6171875 5.3125,17.6171875 L5.3125,17.6171875 L0.5859375,17.6171875 C0.262146016,17.6171875 0,17.3550415 0,17.03125 L0,17.03125 L0,14.6875 C0,14.3637085 0.262146016,14.1015625 0.5859375,14.1015625 L0.5859375,14.1015625 Z M19.4140625,7.0703125 C19.737854,7.0703125 20,7.33245852 20,7.65625 L20,7.65625 L20,10 C20,10.3237915 19.737854,10.5859375 19.4140625,10.5859375 L19.4140625,10.5859375 L12.7059937,10.5859375 L11.6960144,12.605896 C11.5963745,12.8044129 11.3938904,12.9296875 11.171875,12.9296875 C10.9498596,12.9296875 10.7473755,12.8044129 10.6477356,12.605896 L10.6477356,12.605896 L9.63775633,10.5859375 L7.65625,10.5859375 C7.33245852,10.5859375 7.0703125,10.3237915 7.0703125,10 L7.0703125,10 L7.0703125,7.65625 C7.0703125,7.33245852 7.33245852,7.0703125 7.65625,7.0703125 L7.65625,7.0703125 Z M5.3125,7.0703125 C5.63629148,7.0703125 5.8984375,7.33245852 5.8984375,7.65625 L5.8984375,7.65625 L5.8984375,10 C5.8984375,10.3237915 5.63629148,10.5859375 5.3125,10.5859375 L5.3125,10.5859375 L0.5859375,10.5859375 C0.262146016,10.5859375 0,10.3237915 0,10 L0,10 L0,7.65625 C0,7.33245852 0.262146016,7.0703125 0.5859375,7.0703125 L0.5859375,7.0703125 Z M19.4140625,0 C19.737854,0 20,0.262146016 20,0.5859375 L20,0.5859375 L20,2.96875 C20,3.29254148 19.737854,3.5546875 19.4140625,3.5546875 L19.4140625,3.5546875 L12.7059937,3.5546875 L11.6960144,5.57464602 C11.5963745,5.77316285 11.3938904,5.8984375 11.171875,5.8984375 C10.9498596,5.8984375 10.7473755,5.77316285 10.6477356,5.57464602 L10.6477356,5.57464602 L9.63775633,3.5546875 L7.65625,3.5546875 C7.33245852,3.5546875 7.0703125,3.29254148 7.0703125,2.96875 L7.0703125,2.96875 L7.0703125,0.5859375 C7.0703125,0.262146016 7.33245852,0 7.65625,0 L7.65625,0 Z M5.3125,0 C5.63629148,0 5.8984375,0.262146016 5.8984375,0.5859375 L5.8984375,0.5859375 L5.8984375,2.96875 C5.8984375,3.29254148 5.63629148,3.5546875 5.3125,3.5546875 L5.3125,3.5546875 L0.5859375,3.5546875 C0.262146016,3.5546875 0,3.29254148 0,2.96875 L0,2.96875 L0,0.5859375 C0,0.262146016 0.262146016,0 0.5859375,0 L0.5859375,0 Z" id="Combined-Shape"></path>
        </g>
    </g>
</svg>