<?xml version="1.0" encoding="UTF-8"?>
<svg width="59px" height="33px" viewBox="0 0 59 33" version="1.1" xmlns="http://www.w3.org/2000/svg" xmlns:xlink="http://www.w3.org/1999/xlink">
    <!-- Generator: Sketch 62 (91390) - https://sketch.com -->
    <title>Thumbnail Copy</title>
    <desc>Created with Sketch.</desc>
    <g id="Thumbnail-Copy" stroke="none" stroke-width="1" fill="none" fill-rule="evenodd" opacity="0.25">
        <g id="rate" transform="translate(19.000000, 8.000000)" fill="#FFFFFF" fill-rule="nonzero">
            <path d="M7.11738913,14.1481232 C8.87311963,14.1481232 10.3016753,15.5766789 10.3016753,17.3324094 L10.3016753,17.3324094 L10.3016753,17.9692667 L0.0695023534,17.9692667 L0.0695023534,14.1481232 Z M21.8075628,14.1481232 L21.8075628,17.9692667 L11.5753898,17.9692667 L11.5753898,17.3324094 C11.5753898,15.5767214 13.0039455,14.1481232 14.759676,14.1481232 L14.759676,14.1481232 L21.8075628,14.1481232 Z M5.84367466,11.6006943 C7.39794598,11.6006943 8.76532093,12.4030919 9.56343042,13.6126537 C8.8601702,13.1486395 8.02096219,12.8744087 7.11738913,12.8744087 L7.11738913,12.8744087 L1.38567398,12.8744087 L1.38567398,11.6006943 Z M20.4913912,11.6006943 L20.4913912,12.8744087 L14.759676,12.8744087 C13.8560605,12.8744087 13.0168525,13.1486395 12.3136347,13.6126537 C13.1117018,12.4030495 14.4791192,11.6006943 16.0333905,11.6006943 L16.0333905,11.6006943 L20.4913912,11.6006943 Z M3.93993854,2.56279845 L5.14584895,4.94791372 L7.87987708,5.33537766 L5.90027004,7.21920138 L6.36419931,9.85804058 L3.93993854,8.61294222 L1.51690903,9.85744618 L1.9802439,7.21920138 L-4.88498131e-14,5.33537766 L2.73462253,4.94791372 L3.93993854,2.56279845 Z M17.9507978,2.56279845 L19.1567082,4.94791372 L21.8907363,5.33537766 L19.9111293,7.21920138 L20.3750586,9.85804058 L17.9507978,8.61294222 L15.5277683,9.85744618 L15.9911032,7.21920138 L14.0108593,5.33537766 L16.7454818,4.94791372 L17.9507978,2.56279845 Z M10.9453682,0.015369488 L12.1512786,2.40048476 L14.8853067,2.78794871 L12.9056997,4.67177242 L13.3696289,7.31061162 L10.9453682,6.06551326 L8.52233866,7.31001722 L8.98567353,4.67177242 L7.00542963,2.78794871 L9.74005216,2.40048476 L10.9453682,0.015369488 Z" id="Combined-Shape"></path>
        </g>
    </g>
</svg>