<?xml version="1.0" encoding="UTF-8"?>
<svg width="72px" height="40px" viewBox="0 0 72 40" version="1.1" xmlns="http://www.w3.org/2000/svg" xmlns:xlink="http://www.w3.org/1999/xlink">
    <!-- Generator: Sketch 61.1 (89650) - https://sketch.com -->
    <title>Course List</title>
    <desc>Created with Sketch.</desc>
    <g id="Course-List" stroke="none" stroke-width="1" fill="none" fill-rule="evenodd" opacity="0.25">
        <g id="questions" transform="translate(19.000000, 3.000000)" fill="#FFFFFF" fill-rule="nonzero">
            <path d="M33.0039062,23.9726562 C33.5543518,23.9726562 34,24.4183045 34,24.96875 L34,24.96875 L34,28.953125 C34,29.5035705 33.5543518,29.9492188 33.0039062,29.9492188 L33.0039062,29.9492188 L21.6001892,29.9492188 L19.8832245,33.4495545 C19.7138367,33.7870331 19.3696137,34 18.9921875,34 C18.6147613,34 18.2705383,33.7870331 18.1011505,33.4495545 L18.1011505,33.4495545 L16.3841858,29.9492188 L13.015625,29.9492188 C12.4651795,29.9492188 12.0195312,29.5035705 12.0195312,28.953125 L12.0195312,28.953125 L12.0195312,24.96875 C12.0195312,24.4183045 12.4651795,23.9726562 13.015625,23.9726562 L13.015625,23.9726562 Z M9.03125,23.9726562 C9.58169552,23.9726562 10.0273438,24.4183045 10.0273438,24.96875 L10.0273438,24.96875 L10.0273438,28.953125 C10.0273438,29.5035705 9.58169552,29.9492188 9.03125,29.9492188 L9.03125,29.9492188 L0.99609375,29.9492188 C0.445648227,29.9492188 0,29.5035705 0,28.953125 L0,28.953125 L0,24.96875 C0,24.4183045 0.445648227,23.9726562 0.99609375,23.9726562 L0.99609375,23.9726562 Z M33.0039062,12.0195312 C33.5543518,12.0195312 34,12.4651795 34,13.015625 L34,13.015625 L34,17 C34,17.5504455 33.5543518,17.9960938 33.0039062,17.9960938 L33.0039062,17.9960938 L21.6001892,17.9960938 L19.8832245,21.4300232 C19.7138367,21.7675018 19.3696137,21.9804688 18.9921875,21.9804688 C18.6147613,21.9804688 18.2705383,21.7675018 18.1011505,21.4300232 L18.1011505,21.4300232 L16.3841858,17.9960938 L13.015625,17.9960938 C12.4651795,17.9960938 12.0195312,17.5504455 12.0195312,17 L12.0195312,17 L12.0195312,13.015625 C12.0195312,12.4651795 12.4651795,12.0195312 13.015625,12.0195312 L13.015625,12.0195312 Z M9.03125,12.0195312 C9.58169552,12.0195312 10.0273438,12.4651795 10.0273438,13.015625 L10.0273438,13.015625 L10.0273438,17 C10.0273438,17.5504455 9.58169552,17.9960938 9.03125,17.9960938 L9.03125,17.9960938 L0.99609375,17.9960938 C0.445648227,17.9960938 0,17.5504455 0,17 L0,17 L0,13.015625 C0,12.4651795 0.445648227,12.0195312 0.99609375,12.0195312 L0.99609375,12.0195312 Z M33.0039062,0 C33.5543518,0 34,0.445648227 34,0.99609375 L34,0.99609375 L34,5.046875 C34,5.59732052 33.5543518,6.04296875 33.0039062,6.04296875 L33.0039062,6.04296875 L21.6001892,6.04296875 L19.8832245,9.47689823 C19.7138367,9.81437685 19.3696137,10.0273438 18.9921875,10.0273438 C18.6147613,10.0273438 18.2705383,9.81437685 18.1011505,9.47689823 L18.1011505,9.47689823 L16.3841858,6.04296875 L13.015625,6.04296875 C12.4651795,6.04296875 12.0195312,5.59732052 12.0195312,5.046875 L12.0195312,5.046875 L12.0195312,0.99609375 C12.0195312,0.445648227 12.4651795,0 13.015625,0 L13.015625,0 Z M9.03125,0 C9.58169552,0 10.0273438,0.445648227 10.0273438,0.99609375 L10.0273438,0.99609375 L10.0273438,5.046875 C10.0273438,5.59732052 9.58169552,6.04296875 9.03125,6.04296875 L9.03125,6.04296875 L0.99609375,6.04296875 C0.445648227,6.04296875 0,5.59732052 0,5.046875 L0,5.046875 L0,0.99609375 C0,0.445648227 0.445648227,0 0.99609375,0 L0.99609375,0 Z" id="Combined-Shape"></path>
        </g>
    </g>
</svg>