<?xml version="1.0" encoding="UTF-8"?>
<svg width="59px" height="33px" viewBox="0 0 59 33" version="1.1" xmlns="http://www.w3.org/2000/svg" xmlns:xlink="http://www.w3.org/1999/xlink">
    <!-- Generator: Sketch 61.1 (89650) - https://sketch.com -->
    <title>Curriculum</title>
    <desc>Created with Sketch.</desc>
    <g id="Curriculum" stroke="none" stroke-width="1" fill="none" fill-rule="evenodd" opacity="0.25">
        <g id="dedent" transform="translate(19.000000, 8.000000)" fill="#FFFFFF" fill-rule="nonzero">
            <path d="M21.0840981,16.1775841 C21.3320607,16.1775841 21.5327523,16.3782336 21.5327523,16.6261542 L21.5327523,16.6261542 L21.5327523,17.5233364 C21.5327523,17.7712991 21.3321028,17.9719486 21.0841402,17.9719486 L21.0841402,17.9719486 L0.44861215,17.9719486 C0.200649533,17.9719486 -2.84217094e-14,17.7712991 -2.84217094e-14,17.5233364 L-2.84217094e-14,17.5233364 L-2.84217094e-14,16.6261542 C-2.84217094e-14,16.3782336 0.200649533,16.1775841 0.44861215,16.1775841 L0.44861215,16.1775841 Z M4.82244393,4.71074299 C5.21057944,4.40057944 5.77396262,4.46408411 6.08412617,4.85091589 C6.39340654,5.23774766 6.33032243,5.80243458 5.94391121,6.11171495 L5.94391121,6.11171495 L2.33322897,9 L5.94399533,11.888285 C6.33036449,12.1975654 6.3934486,12.7622523 6.08416822,13.1490841 C5.90627103,13.3707196 5.64607009,13.4859533 5.38233645,13.4859533 C5.18606075,13.4859533 4.98806075,13.4215654 4.82244393,13.289257 L4.82244393,13.289257 L0.336448598,9.70048598 C0.123560748,9.53053738 -2.26485497e-14,9.27248131 -2.26485497e-14,9 C-2.26485497e-14,8.72751869 0.123560748,8.46946262 0.336448598,8.29951402 L0.336448598,8.29951402 Z M21.0840981,10.7944065 C21.3320607,10.7944065 21.5327523,10.9950561 21.5327523,11.2430187 L21.5327523,11.2430187 L21.5327523,12.1402009 C21.5327523,12.3881636 21.3321028,12.5888131 21.0841402,12.5888131 L21.0841402,12.5888131 L8.5233785,12.5888131 C8.27541589,12.5888131 8.07476636,12.3881636 8.07476636,12.1402009 L8.07476636,12.1402009 L8.07476636,11.2430187 C8.07476636,10.9950561 8.27541589,10.7944065 8.5233785,10.7944065 L8.5233785,10.7944065 Z M21.0840981,5.41122897 C21.3320607,5.41122897 21.5327523,5.6118785 21.5327523,5.85984112 L21.5327523,5.85984112 L21.5327523,6.75702336 C21.5327523,7.00498598 21.3321028,7.20563551 21.0841402,7.20563551 L21.0841402,7.20563551 L8.5233785,7.20563551 C8.27541589,7.20563551 8.07476636,7.00498598 8.07476636,6.75702336 L8.07476636,6.75702336 L8.07476636,5.85984112 C8.07476636,5.6118785 8.27541589,5.41122897 8.5233785,5.41122897 L8.5233785,5.41122897 Z M21.0840981,0.0280514019 C21.3320607,0.0280514019 21.5327523,0.228700935 21.5327523,0.476621495 L21.5327523,0.476621495 L21.5327523,1.37380374 C21.5327523,1.62176636 21.3321028,1.82241589 21.0841402,1.82241589 L21.0841402,1.82241589 L0.44861215,1.82241589 C0.200649533,1.82241589 -2.84217094e-14,1.62176636 -2.84217094e-14,1.37380374 L-2.84217094e-14,1.37380374 L-2.84217094e-14,0.476621495 C-2.84217094e-14,0.228700935 0.200649533,0.0280514019 0.44861215,0.0280514019 L0.44861215,0.0280514019 Z" id="Combined-Shape"></path>
        </g>
    </g>
</svg>