<?xml version="1.0" encoding="UTF-8"?>
<svg width="72px" height="40px" viewBox="0 0 72 40" version="1.1" xmlns="http://www.w3.org/2000/svg" xmlns:xlink="http://www.w3.org/1999/xlink">
    <!-- Generator: Sketch 61.1 (89650) - https://sketch.com -->
    <title>Long Description</title>
    <desc>Created with Sketch.</desc>
    <g id="Long-Description" stroke="none" stroke-width="1" fill="none" fill-rule="evenodd" opacity="0.25">
        <g id="align-(2)" transform="translate(15.000000, 2.000000)" fill="#FFFFFF" fill-rule="nonzero">
            <path d="M21.7877173,30.1369641 C23.4020857,30.1369641 24.7077636,31.4426002 24.7077636,33.0570104 C24.7077636,34.6713372 23.4020857,35.9770568 21.7877173,35.9770568 L21.7877173,35.9770568 L2.92004635,35.9770568 C1.30567787,35.9770568 -1.61648472e-13,34.6713372 -1.61648472e-13,33.0570104 C-1.61648472e-13,31.4426002 1.30567787,30.1369641 2.92004635,30.1369641 L2.92004635,30.1369641 Z M38.1691773,20.1003893 C39.7835458,20.1003893 41.0892236,21.4060255 41.0892236,23.0204357 C41.0892236,24.630591 39.7835458,25.940482 38.1691773,25.940482 L38.1691773,25.940482 L2.92004635,25.940482 C1.30567787,25.940482 -1.45661261e-13,24.6347625 -1.45661261e-13,23.0204357 C-1.45661261e-13,21.4060255 1.30567787,20.1003893 2.92004635,20.1003893 L2.92004635,20.1003893 Z M31.9286211,10.0595597 C33.5429479,10.0595597 34.8486674,11.3652375 34.8486674,12.979606 C34.8486674,14.5939745 33.5429479,15.8996524 31.9286211,15.8996524 L31.9286211,15.8996524 L2.92004635,15.8996524 C1.30567787,15.8996524 -1.7408297e-13,14.5939745 -1.7408297e-13,12.979606 C-1.7408297e-13,11.3652375 1.30567787,10.0595597 2.92004635,10.0595597 L2.92004635,10.0595597 Z M38.1691773,0.0229432213 C39.7835458,0.0229432213 41.0892236,1.32862109 41.0892236,2.94298957 C41.0892236,4.55735805 39.7835458,5.86303592 38.1691773,5.86303592 L38.1691773,5.86303592 L2.92004635,5.86303592 C1.30567787,5.86303592 -1.45661261e-13,4.55735805 -1.45661261e-13,2.94298957 C-1.45661261e-13,1.32862109 1.30567787,0.0229432213 2.92004635,0.0229432213 L2.92004635,0.0229432213 Z" id="Combined-Shape"></path>
        </g>
    </g>
</svg>