<?xml version="1.0" encoding="UTF-8"?>
<svg width="72px" height="41px" viewBox="0 0 72 41" version="1.1" xmlns="http://www.w3.org/2000/svg" xmlns:xlink="http://www.w3.org/1999/xlink">
    <!-- Generator: Sketch 61.1 (89650) - https://sketch.com -->
    <title>Reviews / Student Feedback</title>
    <desc>Created with Sketch.</desc>
    <g id="Reviews-/-Student-Feedback" stroke="none" stroke-width="1" fill="none" fill-rule="evenodd" transform="translate(0.000000, 1.000000)" opacity="0.25">
        <g id="thumb-up" transform="translate(19.000000, 3.000000)" fill="#FFFFFF" fill-rule="nonzero">
            <path d="M7.78023318,13.2554815 C8.40084826,13.2554815 8.90396991,13.7585345 8.90396991,14.3791496 L8.90396991,14.3791496 L8.90396991,33.8763319 C8.90396991,34.496947 8.40084826,35.0000686 7.78023318,35.0000686 L7.78023318,35.0000686 L4.4563086,35.0000686 C2.01893777,35.0000686 0.043030593,33.0241614 0.043030593,30.5867906 L0.043030593,30.5867906 L0.043030593,14.3535509 C0.043030593,13.7470734 0.534622519,13.2554815 1.14109995,13.2554815 L1.14109995,13.2554815 Z M19.3853165,0 C21.3770084,0 22.9093642,1.76761715 22.6233857,3.74105368 L22.6233857,3.74105368 L21.2449655,13.2554815 L29.8823791,13.2554815 C32.2301887,13.2554815 34.1333488,15.1587102 34.1333488,17.5065198 L34.1333488,17.5065198 L34.1333488,23.4566145 C34.1333488,25.1400235 33.6869149,26.7994808 32.8423623,28.2557266 L32.8423623,28.2557266 L30.6183601,32.0901162 C29.5773904,33.8849792 27.6417,35 25.5668293,35 L25.5668293,35 L13.7027389,35 C13.2694819,35 13.063937,34.7951414 12.4713227,34.3819928 C11.6120835,33.7829274 11.10004,32.8016651 11.10004,31.7542442 L11.10004,31.7542442 L11.10004,14.1276917 C11.10004,12.7913413 11.5019334,11.4845702 12.2611797,10.3847851 C13.904715,8.00403344 15.1830737,4.89196762 16.3589,2.02861451 C16.8649728,0.796306173 18.0528779,0 19.3853165,0 Z M5.50503347,17.5 C4.83706415,17.5 4.2955787,18.0415541 4.2955787,18.7095234 C4.2955787,19.3774927 4.83706415,19.9189782 5.50503347,19.9189782 C6.17300279,19.9189782 6.71448824,19.3774927 6.71448824,18.7095234 C6.71448824,18.0414855 6.17300279,17.5 5.50503347,17.5 Z" id="Combined-Shape"></path>
        </g>
    </g>
</svg>