<?xml version="1.0" encoding="UTF-8"?>
<svg width="59px" height="33px" viewBox="0 0 59 33" version="1.1" xmlns="http://www.w3.org/2000/svg" xmlns:xlink="http://www.w3.org/1999/xlink">
    <!-- Generator: Sketch 61.1 (89650) - https://sketch.com -->
    <title>Categories</title>
    <desc>Created with Sketch.</desc>
    <g id="Categories" stroke="none" stroke-width="1" fill="none" fill-rule="evenodd" opacity="0.25">
        <g id="noun_Category_2408657" transform="translate(19.000000, 7.000000)" fill="#FFFFFF" fill-rule="nonzero">
            <path d="M0.324330996,0.109576438 C0.166503226,0.109576438 0.0394502104,0.24641122 0.0394502104,0.416381487 L0.0394502104,4.96931276 C0.0394502104,5.13928079 0.166509958,5.27611781 0.324330996,5.27611781 L4.92102104,5.27611781 C5.07884881,5.27611781 5.20590182,5.13928303 5.20590182,4.96931276 L5.20590182,0.416381487 C5.20590182,0.246413464 5.07884208,0.109576438 4.92102104,0.109576438 L0.324330996,0.109576438 Z M7.72966059,0.109576438 C7.57183282,0.109576438 7.4447798,0.24641122 7.4447798,0.416381487 L7.4447798,4.96931276 C7.4447798,5.13928079 7.57183955,5.27611781 7.72966059,5.27611781 L12.3263506,5.27611781 C12.4841784,5.27611781 12.6112314,5.13928303 12.6112314,4.96931276 L12.6112314,0.416381487 C12.6112314,0.246413464 12.4841717,0.109576438 12.3263506,0.109576438 L7.72966059,0.109576438 Z M15.1349902,0.109576438 C14.9771624,0.109576438 14.8501094,0.24641122 14.8501094,0.416381487 L14.8501094,4.96931276 C14.8501094,5.13928079 14.9771691,5.27611781 15.1349902,5.27611781 L19.7316802,5.27611781 C19.889508,5.27611781 20.016561,5.13928303 20.016561,4.96931276 L20.016561,0.416381487 C20.016561,0.246413464 19.8895013,0.109576438 19.7316802,0.109576438 L15.1349902,0.109576438 Z M0.324330996,7.2905021 C0.166503226,7.2905021 0.0394502104,7.42733689 0.0394502104,7.59730715 L0.0394502104,12.1502384 C0.0394502104,12.3202065 0.166509958,12.4570435 0.324330996,12.4570435 L4.92102104,12.4570435 C5.07884881,12.4570435 5.20590182,12.3202087 5.20590182,12.1502384 L5.20590182,7.59730715 C5.20590182,7.42733913 5.07884208,7.2905021 4.92102104,7.2905021 L0.324330996,7.2905021 Z M7.72966059,7.2905021 C7.57183282,7.2905021 7.4447798,7.42733689 7.4447798,7.59730715 L7.4447798,12.1502384 C7.4447798,12.3202065 7.57183955,12.4570435 7.72966059,12.4570435 L12.3263506,12.4570435 C12.4841784,12.4570435 12.6112314,12.3202087 12.6112314,12.1502384 L12.6112314,7.59730715 C12.6112314,7.42733913 12.4841717,7.2905021 12.3263506,7.2905021 L7.72966059,7.2905021 Z M15.1349902,7.2905021 C14.9771624,7.2905021 14.8501094,7.42733689 14.8501094,7.59730715 L14.8501094,12.1502384 C14.8501094,12.3202065 14.9771691,12.4570435 15.1349902,12.4570435 L19.7316802,12.4570435 C19.889508,12.4570435 20.016561,12.3202087 20.016561,12.1502384 L20.016561,7.59730715 C20.016561,7.42733913 19.8895013,7.2905021 19.7316802,7.2905021 L15.1349902,7.2905021 Z M0.324330996,14.4714278 C0.166503226,14.4714278 0.0394502104,14.6082626 0.0394502104,14.7782328 L0.0394502104,19.3311641 C0.0394502104,19.5011321 0.166509958,19.6379691 0.324330996,19.6379691 L4.92102104,19.6379691 C5.07884881,19.6379691 5.20590182,19.5011344 5.20590182,19.3311641 L5.20590182,14.7782328 C5.20590182,14.6082648 5.07884208,14.4714278 4.92102104,14.4714278 L0.324330996,14.4714278 Z M7.72966059,14.4714278 C7.57183282,14.4714278 7.4447798,14.6082626 7.4447798,14.7782328 L7.4447798,19.3311641 C7.4447798,19.5011321 7.57183955,19.6379691 7.72966059,19.6379691 L12.3263506,19.6379691 C12.4841784,19.6379691 12.6112314,19.5011344 12.6112314,19.3311641 L12.6112314,14.7782328 C12.6112314,14.6082648 12.4841717,14.4714278 12.3263506,14.4714278 L7.72966059,14.4714278 Z M15.1349902,14.4714278 C14.9771624,14.4714278 14.8501094,14.6082626 14.8501094,14.7782328 L14.8501094,19.3311641 C14.8501094,19.5011321 14.9771691,19.6379691 15.1349902,19.6379691 L19.7316802,19.6379691 C19.889508,19.6379691 20.016561,19.5011344 20.016561,19.3311641 L20.016561,14.7782328 C20.016561,14.6082648 19.8895013,14.4714278 19.7316802,14.4714278 L15.1349902,14.4714278 Z" id="Shape"></path>
        </g>
    </g>
</svg>