<?xml version="1.0" encoding="UTF-8"?>
<svg width="59px" height="33px" viewBox="0 0 59 33" version="1.1" xmlns="http://www.w3.org/2000/svg" xmlns:xlink="http://www.w3.org/1999/xlink">
    <!-- Generator: Sketch 61.1 (89650) - https://sketch.com -->
    <title>About Instructors</title>
    <desc>Created with Sketch.</desc>
    <g id="About-Instructors" stroke="none" stroke-width="1" fill="none" fill-rule="evenodd" opacity="0.25">
        <g id="teacher-(3)" transform="translate(16.000000, 7.000000)" fill="#FFFFFF" fill-rule="nonzero">
            <path d="M16.6677273,7.59686869 L17.3314141,9.60338384 L9.66681818,12.1405051 L9.28045455,19.6591414 L1.5420202,19.6591414 L1.47333333,18.2699495 L-1.21115239e-13,18.2699495 L0.24040404,10.4387879 L3.69792929,9.91333333 L5.28116162,11.8108081 L6.91676768,9.91333333 L9.66939394,9.91333333 L16.6677273,7.59686869 Z M26.0692424,0.0473232323 L26.0692424,11.16 L15.3626768,11.16 L18.0122727,10.1511616 L25.060404,10.1511616 L25.060404,1.05616162 L11.2646465,1.05616162 L11.2586364,8.43484848 L10.2540909,8.85555556 L10.2540909,0.0473232323 L26.0692424,0.0473232323 Z M5.355,0.686969697 C7.72497101,0.686969697 9.64621212,2.60821081 9.64621212,4.97818182 C9.64621212,7.34815283 7.72497101,9.26939394 5.355,9.26939394 C2.98502899,9.26939394 1.06378788,7.34815283 1.06378788,4.97818182 C1.06378788,2.60821081 2.98502899,0.686969697 5.355,0.686969697 Z M17.3357071,2.85060606 C18.1805556,2.89525253 18.5317172,3.82166667 18.8382323,4.63732323 C18.9601515,4.95843434 19.1765152,5.5319697 19.3396465,5.67878788 C19.4014646,5.52424242 19.4658586,5.24949495 19.5070707,5.07005051 C19.6530303,4.44757576 19.8616667,3.59070707 20.6309596,3.60959596 C21.4088384,3.62505051 21.5582323,4.43383838 21.6569697,4.96959596 C21.7660101,5.5620202 21.8621717,5.9569697 22.1738384,6.0479798 C22.3232323,6.09348485 22.4803535,6.0720202 22.6632323,6.04540404 C22.8555556,6.01878788 23.0753535,5.98873737 23.3088889,6.0359596 C23.6205556,6.12868687 23.8034343,6.25747475 23.9511111,6.36136364 C24.125404,6.48414141 24.154596,6.49186869 24.2121212,6.485 L24.2121212,6.485 L24.3306061,7.52989899 C24.2790909,7.53505051 24.2310101,7.53762626 24.1846465,7.53762626 C23.7982828,7.53762626 23.5424242,7.35732323 23.3483838,7.22252525 C23.2410606,7.14525253 23.1534848,7.08429293 23.049596,7.05338384 C23.0410101,7.05338384 22.9233838,7.06969697 22.8083333,7.0860101 C22.5679293,7.11863636 22.2365152,7.165 21.8707576,7.05338384 C20.9228788,6.77520202 20.7434343,5.80242424 20.6232323,5.15848485 C20.6163636,5.11727273 20.6086364,5.07176768 20.5983333,5.02368687 C20.5734343,5.125 20.5493939,5.22631313 20.5305051,5.3070202 C20.4,5.86939394 20.265202,6.45237374 19.7972727,6.68762626 C19.6315657,6.77090909 19.3568182,6.83959596 19.0090909,6.68762626 C18.4183838,6.4970202 18.1324747,5.73974747 17.8568687,5.00823232 C17.7615657,4.75409091 17.4808081,4.01570707 17.3142424,3.91181818 C17.2067284,4.04270483 17.0929817,4.42965145 17.0057239,4.76523604 L16.9381818,5.03313131 C16.7166667,5.91318182 16.4891414,6.82156566 15.7404545,6.99414141 C15.4888889,7.05338384 15.2476263,7.0130303 15.0441414,6.88166667 C14.6182828,6.60606061 14.5058081,6.02909091 14.3967677,5.4710101 C14.3598485,5.28727273 14.304899,5.00909091 14.2465152,4.84853535 C13.9511616,5.09924242 13.5184343,6.1570202 13.3475758,6.57944444 C13.2436869,6.83015152 13.1492424,7.05939394 13.0642424,7.23883838 L13.0642424,7.23883838 L12.1163636,6.78893939 C12.1944949,6.62323232 12.2812121,6.41287879 12.3756566,6.18191919 C12.8427273,5.04085859 13.3716162,3.74868687 14.3332323,3.74868687 C15.13,3.74868687 15.3025758,4.62787879 15.4279293,5.26924242 C15.4631313,5.44782828 15.5155051,5.71570707 15.5738889,5.88313131 C15.6983838,5.65646465 15.8366162,5.1009596 15.9181818,4.7789899 C16.15,3.85257576 16.4170202,2.79909091 17.3357071,2.85060606 Z" id="Combined-Shape"></path>
        </g>
    </g>
</svg>