<?xml version="1.0" encoding="UTF-8"?>
<svg width="72px" height="40px" viewBox="0 0 72 40" version="1.1" xmlns="http://www.w3.org/2000/svg" xmlns:xlink="http://www.w3.org/1999/xlink">
    <!-- Generator: Sketch 61.1 (89650) - https://sketch.com -->
    <title>Thumbnail</title>
    <desc>Created with Sketch.</desc>
    <g id="Thumbnail" stroke="none" stroke-width="1" fill="none" fill-rule="evenodd" opacity="0.25">
        <g id="image-(3)" transform="translate(15.000000, 4.000000)" fill="#FFFFFF" fill-rule="nonzero">
            <path d="M40.6403282,0.0178051282 C41.3969231,0.0178051282 42.0103385,0.631220513 42.0103385,1.38773333 L42.0103385,1.38773333 L42.0103385,30.6122667 C42.0103385,31.3688615 41.3969231,31.9821949 40.6404103,31.9821949 L40.6404103,31.9821949 L1.36992821,31.9821949 C0.613333333,31.9821949 -6.77105431e-14,31.3687795 -6.77105431e-14,30.6122667 L-6.77105431e-14,30.6122667 L-6.77105431e-14,1.38773333 C-6.77105431e-14,0.631220513 0.613333333,0.0178051282 1.36992821,0.0178051282 L1.36992821,0.0178051282 Z M39.2704821,2.75766154 L2.73985641,2.75766154 L2.73985641,21.3961846 L9.39561026,14.3402667 C9.94084103,13.7625436 10.8562051,13.7758359 11.3886359,14.3402667 L11.3886359,14.3402667 L17.7850256,21.1214769 L30.6289231,7.50539487 C31.1733333,6.92824615 32.0877128,6.93899487 32.6219487,7.50539487 L32.6219487,7.50539487 L39.2704821,14.5532718 L39.2704821,2.75766154 Z M17.7849436,5.97431795 C20.0594051,5.97431795 21.9099897,7.82490256 21.9099897,10.0993641 C21.9099897,12.3739077 20.0594872,14.2244923 17.7849436,14.2244923 C15.5104,14.2244923 13.6598154,12.3739077 13.6598154,10.0993641 C13.6598154,7.82490256 15.5104,5.97431795 17.7849436,5.97431795 Z" id="Combined-Shape"></path>
        </g>
    </g>
</svg>