<?xml version="1.0" encoding="UTF-8"?>
<svg width="59px" height="33px" viewBox="0 0 59 33" version="1.1" xmlns="http://www.w3.org/2000/svg" xmlns:xlink="http://www.w3.org/1999/xlink">
    <!-- Generator: Sketch 61.1 (89650) - https://sketch.com -->
    <title>Course Status</title>
    <desc>Created with Sketch.</desc>
    <g id="Course-Status" stroke="none" stroke-width="1" fill="none" fill-rule="evenodd" opacity="0.25">
        <g id="notification-(1)" transform="translate(21.000000, 7.000000)" fill="#FFFFFF" fill-rule="nonzero">
            <path d="M9.46854402,17.7284241 C8.93727114,18.4958343 8.05099487,19 7.0488968,19 C6.04679869,19 5.16052246,18.4958343 4.62924958,17.7284241 L4.62924958,17.7284241 Z M7.0488968,2.38485718 C7.66627504,2.38485718 8.27031707,2.47994995 8.8447876,2.66462709 C8.53486635,3.28736879 8.36004639,3.98867798 8.36004639,4.73028564 C8.36004639,7.25937654 10.3894653,9.32344057 12.905365,9.37997437 L12.905365,9.37997437 L12.905365,13.2077484 C13.5978317,13.4406967 14.0977936,14.0960541 14.0977936,14.8660736 C14.0977936,15.8304825 13.3131332,16.6151428 12.3487244,16.6151428 L12.3487244,16.6151428 L1.7490692,16.6151428 C0.78466033,16.6151428 7.25345709e-14,15.8304825 7.25345709e-14,14.8660736 C7.25345709e-14,14.0960541 0.500106793,13.4406967 1.19242857,13.2077484 L1.19242857,13.2077484 L1.19242857,8.24132537 C1.19242857,5.01208496 3.81965639,2.38485718 7.0488968,2.38485718 Z M13.0111847,1.19242857 C14.9618912,1.19242857 16.5488968,2.77957917 16.5488968,4.73028564 C16.5488968,6.68084717 14.9618912,8.26799773 13.0111847,8.26799773 C11.0604782,8.26799773 9.47332764,6.68084717 9.47332764,4.73028564 C9.47332764,2.77957917 11.0604782,1.19242857 13.0111847,1.19242857 Z M7.0488968,-1.55801298e-14 C7.92444612,-1.55801298e-14 8.65170288,0.646659842 8.77839663,1.48741912 C8.21871184,1.34463501 7.63902281,1.27157593 7.0488968,1.27157593 C6.45210268,1.27157593 5.87255859,1.34709929 5.31925202,1.48886872 C5.4453659,0.647384625 6.1729126,-1.55801298e-14 7.0488968,-1.55801298e-14 Z" id="Combined-Shape"></path>
        </g>
    </g>
</svg>