<?xml version="1.0" encoding="UTF-8"?>
<svg width="72px" height="40px" viewBox="0 0 72 40" version="1.1" xmlns="http://www.w3.org/2000/svg" xmlns:xlink="http://www.w3.org/1999/xlink">
    <!-- Generator: Sketch 61.1 (89650) - https://sketch.com -->
    <title>Course Material</title>
    <desc>Created with Sketch.</desc>
    <g id="Course-Material" stroke="none" stroke-width="1" fill="none" fill-rule="evenodd" opacity="0.25">
        <g id="post-it" transform="translate(18.000000, 2.000000)" fill="#FFFFFF" fill-rule="nonzero">
            <path d="M8.8705332,34.0772168 L16.0523633,36.0015781 L10.4836465,36.9835234 C10.4210645,36.9945801 10.3580488,37 10.2953945,37 C10.0744062,37 9.85710352,36.9324316 9.67362109,36.8039434 C9.43817969,36.6390332 9.27775,36.387332 9.22788672,36.1041953 L9.22788672,36.1041953 L8.8705332,34.0772168 Z M18.5,-5.09222294e-14 C20.6915996,-5.09222294e-14 22.4746094,1.78300977 22.4746094,3.97460937 L22.4746094,3.97460937 L22.4746094,9.29270898 L32.478918,11.9734023 C32.7565625,12.0478359 32.993377,12.2295117 33.1371133,12.4784668 C33.2808496,12.7274219 33.3198008,13.0232773 33.2454395,13.3009941 L33.2454395,13.3009941 L27.2602559,35.6380098 C27.1305391,36.122334 26.6924648,36.441748 26.2139219,36.441748 C26.120916,36.441748 26.0266094,36.429752 25.9326641,36.4045312 L25.9326641,36.4045312 L0.803449219,29.6711816 C0.525732422,29.596748 0.288990234,29.4150723 0.145253906,29.1661172 C0.0014453125,28.9171621 -0.0375058594,28.6213066 0.0369277344,28.3435898 L0.0369277344,28.3435898 L6.02218359,6.00650195 C6.17704883,5.42823242 6.77143359,5.0849707 7.34977539,5.24005273 L7.34977539,5.24005273 L14.5253906,7.16275195 L14.5253906,3.97460937 C14.5253906,1.78300977 16.3084004,-5.09222294e-14 18.5,-5.09222294e-14 Z M34.4860234,17.0468105 L36.9833789,31.2101504 C37.0872969,31.7997656 36.6935938,32.3619922 36.104123,32.4658379 L36.104123,32.4658379 L30.0693652,33.5299492 L34.4860234,17.0468105 Z M6.67503125,24.5111992 C6.09661719,24.3560449 5.50237695,24.6993789 5.34743945,25.2776484 C5.19250195,25.855918 5.53561914,26.4503027 6.11388867,26.6052402 L6.11388867,26.6052402 L17.2823242,29.597832 C17.3763418,29.6229805 17.4707207,29.6350488 17.563582,29.6350488 C18.042125,29.6350488 18.4801992,29.3155625 18.609916,28.8313105 C18.7649258,28.253041 18.4217363,27.6586562 17.8435391,27.503791 L17.8435391,27.503791 Z M7.79717188,20.3229727 C7.21868555,20.1680352 6.62451758,20.5111523 6.46958008,21.0894219 C6.31464258,21.6676914 6.65775977,22.2620762 7.2360293,22.4170137 L7.2360293,22.4170137 L23.9888633,26.9059375 C24.0828086,26.9310859 24.1771875,26.9431543 24.2701211,26.9431543 C24.7486641,26.9431543 25.186666,26.623668 25.3164551,26.139416 C25.4713926,25.5611465 25.1282031,24.9667617 24.5499336,24.8118965 L24.5499336,24.8118965 Z M8.91938477,16.1348184 C8.34089844,15.9798086 7.74673047,16.3230703 7.59179297,16.9012676 C7.43685547,17.4795371 7.77997266,18.0739219 8.35824219,18.2288594 L8.35824219,18.2288594 L25.1110762,22.7177832 C25.2050215,22.7429316 25.2994004,22.755 25.392334,22.755 C25.870877,22.755 26.3088789,22.4355137 26.438668,21.9512617 C26.5936055,21.3729922 26.250416,20.7786074 25.6721465,20.6237422 L25.6721465,20.6237422 Z M20.3066406,8.71183789 L20.3066406,13.7304687 C20.3066406,14.1289414 19.982457,14.453125 19.5839844,14.453125 C19.1855117,14.453125 18.8613281,14.1289414 18.8613281,13.7304687 L18.8613281,13.7304687 L18.8613281,12.6464844 C18.8613281,12.0478359 18.3759922,11.5625 17.7773438,11.5625 C17.1786953,11.5625 16.6933594,12.0478359 16.6933594,12.6464844 L16.6933594,12.6464844 L16.6933594,13.7304687 C16.6933594,15.3243594 17.9900938,16.6210937 19.5839844,16.6210937 C21.177875,16.6210937 22.4746094,15.3243594 22.4746094,13.7304687 L22.4746094,13.7304687 L22.4746094,9.29278125 L20.3066406,8.71183789 Z M31.7120352,7.55725 C32.3018672,7.45347656 32.863877,7.84696289 32.9677949,8.43650586 L32.9677949,8.43650586 L33.2312031,9.93052539 L33.0398438,9.87928906 L27.2862715,8.33764648 Z M18.5,2.16796875 C17.5038184,2.16796875 16.6933594,2.97842773 16.6933594,3.97460937 L16.6933594,3.97460937 L16.6933594,7.74369531 L20.3066406,8.71183789 L20.3066406,3.97460937 C20.3066406,2.97842773 19.4961816,2.16796875 18.5,2.16796875 Z" id="Combined-Shape"></path>
        </g>
    </g>
</svg>