<?xml version="1.0" encoding="UTF-8"?>
<svg width="59px" height="33px" viewBox="0 0 59 33" version="1.1" xmlns="http://www.w3.org/2000/svg" xmlns:xlink="http://www.w3.org/1999/xlink">
    <!-- Generator: Sketch 61.1 (89650) - https://sketch.com -->
    <title>Course Material</title>
    <desc>Created with Sketch.</desc>
    <g id="Course-Material" stroke="none" stroke-width="1" fill="none" fill-rule="evenodd" opacity="0.25">
        <g id="post-it" transform="translate(20.000000, 7.000000)" fill="#FFFFFF" fill-rule="nonzero">
            <path d="M4.79488281,18.4201172 L8.67695312,19.4603125 L5.66683594,19.9910937 C5.63300781,19.9970703 5.59894531,20 5.56507813,20 C5.445625,20 5.32816406,19.9634766 5.22898437,19.8940234 C5.10171875,19.8048828 5.015,19.6688281 4.98804688,19.5157812 L4.98804688,19.5157812 L4.79488281,18.4201172 Z M10,-2.72374715e-14 C11.1846484,-2.72374715e-14 12.1484375,0.963789062 12.1484375,2.1484375 L12.1484375,2.1484375 L12.1484375,5.02308594 L17.5561719,6.47210937 C17.70625,6.51234375 17.8342578,6.61054687 17.9119531,6.74511719 C17.9896484,6.8796875 18.0107031,7.03960937 17.9705078,7.18972656 L17.9705078,7.18972656 L14.7352734,19.2637891 C14.6651563,19.5255859 14.4283594,19.6982422 14.1696875,19.6982422 C14.1194141,19.6982422 14.0684375,19.6917578 14.0176563,19.678125 L14.0176563,19.678125 L0.434296875,16.0384766 C0.284179688,15.9982422 0.156210938,15.9000391 0.078515625,15.7654687 C0.00078125,15.6308984 -0.0202734375,15.4709766 0.0199609375,15.3208594 L0.0199609375,15.3208594 L3.25523438,3.24675781 C3.33894531,2.93417969 3.66023438,2.74863281 3.97285156,2.83246094 L3.97285156,2.83246094 L7.8515625,3.87175781 L7.8515625,2.1484375 C7.8515625,0.963789062 8.81535156,-2.72374715e-14 10,-2.72374715e-14 Z M18.6410938,9.21449219 L19.9910156,16.8703516 C20.0471875,17.1890625 19.834375,17.4929687 19.5157422,17.5491016 L19.5157422,17.5491016 L16.2537109,18.1242969 L18.6410938,9.21449219 Z M3.608125,13.2492969 C3.29546875,13.1654297 2.97425781,13.3510156 2.89050781,13.6635937 C2.80675781,13.9761719 2.99222656,14.2974609 3.30480469,14.3812109 L3.30480469,14.3812109 L9.34179688,15.9988281 C9.39261719,16.0124219 9.44363281,16.0189453 9.49382813,16.0189453 C9.7525,16.0189453 9.98929688,15.84625 10.0594141,15.5844922 C10.1432031,15.2719141 9.95769531,14.950625 9.64515625,14.8669141 L9.64515625,14.8669141 Z M4.2146875,10.9853906 C3.90199219,10.9016406 3.58082031,11.0871094 3.49707031,11.3996875 C3.41332031,11.7122656 3.59878906,12.0335547 3.91136719,12.1173047 L3.91136719,12.1173047 L12.9669531,14.54375 C13.0177344,14.5573437 13.06875,14.5638672 13.1189844,14.5638672 C13.3776563,14.5638672 13.6144141,14.3911719 13.6845703,14.1294141 C13.7683203,13.8168359 13.5828125,13.4955469 13.2702344,13.4118359 L13.2702344,13.4118359 Z M4.82128906,8.72152344 C4.50859375,8.63773437 4.18742188,8.82328125 4.10367188,9.13582031 C4.01992188,9.44839844 4.20539063,9.7696875 4.51796875,9.8534375 L4.51796875,9.8534375 L13.5735547,12.2798828 C13.6243359,12.2934766 13.6753516,12.3 13.7255859,12.3 C13.9842578,12.3 14.2210156,12.1273047 14.2911719,11.8655469 C14.3749219,11.5529687 14.1894141,11.2316797 13.8768359,11.1479687 L13.8768359,11.1479687 Z M10.9765625,4.70910156 L10.9765625,7.421875 C10.9765625,7.63726562 10.8013281,7.8125 10.5859375,7.8125 C10.3705469,7.8125 10.1953125,7.63726562 10.1953125,7.421875 L10.1953125,7.421875 L10.1953125,6.8359375 C10.1953125,6.51234375 9.93296875,6.25 9.609375,6.25 C9.28578125,6.25 9.0234375,6.51234375 9.0234375,6.8359375 L9.0234375,6.8359375 L9.0234375,7.421875 C9.0234375,8.2834375 9.724375,8.984375 10.5859375,8.984375 C11.4475,8.984375 12.1484375,8.2834375 12.1484375,7.421875 L12.1484375,7.421875 L12.1484375,5.023125 L10.9765625,4.70910156 Z M17.1416406,4.085 C17.4604688,4.02890625 17.7642578,4.24160156 17.8204297,4.56027344 L17.8204297,4.56027344 L17.9628125,5.36785156 L17.859375,5.34015625 L14.7493359,4.50683594 Z M10,1.171875 C9.46152344,1.171875 9.0234375,1.60996094 9.0234375,2.1484375 L9.0234375,2.1484375 L9.0234375,4.18578125 L10.9765625,4.70910156 L10.9765625,2.1484375 C10.9765625,1.60996094 10.5384766,1.171875 10,1.171875 Z" id="Combined-Shape"></path>
        </g>
    </g>
</svg>