<?xml version="1.0" encoding="UTF-8"?>
<svg width="59px" height="33px" viewBox="0 0 59 33" version="1.1" xmlns="http://www.w3.org/2000/svg" xmlns:xlink="http://www.w3.org/1999/xlink">
    <!-- Generator: Sketch 61.1 (89650) - https://sketch.com -->
    <title>Dashboard</title>
    <desc>Created with Sketch.</desc>
    <g id="Dashboard" stroke="none" stroke-width="1" fill="none" fill-rule="evenodd" opacity="0.25">
        <g id="dashboard" transform="translate(17.000000, 7.000000)" fill="#FFFFFF" fill-rule="nonzero">
            <path d="M12.3560816,0 C5.54326531,0 0,5.54326531 0,12.3582857 C0,14.8922449 0.76922449,17.332898 2.22391837,19.4194286 C2.42963265,19.7140408 2.76685714,19.8918367 3.12685714,19.8918367 L21.5845714,19.8918367 C21.943102,19.8918367 22.2803265,19.7155102 22.4875102,19.4194286 C23.9422041,17.332898 24.7114289,14.8922449 24.7114289,12.3582857 C24.712898,5.544 19.1696327,0 12.3560816,0 Z M12.3560816,3.57942857 C13.1010612,3.57942857 13.7035102,4.18261224 13.7035102,4.92685714 C13.7035102,5.67036735 13.1010612,6.27355102 12.3560816,6.27355102 C11.6118367,6.27355102 11.0101224,5.67036735 11.0101224,4.92685714 C11.0101224,4.18334694 11.6118367,3.57942857 12.3560816,3.57942857 Z M5.49991837,13.9885714 C4.75493878,13.9885714 4.1524898,13.3853878 4.1524898,12.6418776 C4.1524898,11.896898 4.75493878,11.294449 5.49991837,11.294449 C6.24342857,11.294449 6.84587755,11.896898 6.84587755,12.6418776 C6.84587755,13.3853878 6.24342857,13.9885714 5.49991837,13.9885714 Z M16.7576327,8.93534694 L14.2508571,13.6219592 C15.2610612,14.2545306 15.938449,15.3697959 15.938449,16.6503673 L8.77518367,16.6503673 C8.77518367,14.7842449 10.207102,13.2685714 12.0313469,13.1017959 L14.8136327,7.8964898 C15.1016327,7.36016327 15.7716735,7.15738776 16.3057959,7.44465306 C16.8406531,7.73044898 17.0441633,8.39828571 16.7576327,8.93534694 Z M19.2137143,13.9885714 C18.468,13.9885714 17.8662857,13.3853878 17.8662857,12.6418776 C17.8662857,11.896898 18.468,11.294449 19.2137143,11.294449 C19.9572245,11.294449 20.5611429,11.896898 20.5611429,12.6418776 C20.5611429,13.3853878 19.9572245,13.9885714 19.2137143,13.9885714 Z" id="Shape"></path>
        </g>
    </g>
</svg>