<?xml version="1.0" encoding="UTF-8"?>
<svg width="72px" height="40px" viewBox="0 0 72 40" version="1.1" xmlns="http://www.w3.org/2000/svg" xmlns:xlink="http://www.w3.org/1999/xlink">
    <!-- Generator: Sketch 61.1 (89650) - https://sketch.com -->
    <title>Dashboard</title>
    <desc>Created with Sketch.</desc>
    <g id="Dashboard" stroke="none" stroke-width="1" fill="none" fill-rule="evenodd" opacity="0.25">
        <g id="dashboard" transform="translate(15.000000, 3.000000)" fill="#FFFFFF" fill-rule="nonzero">
            <path d="M21.0053388,0 C9.42355102,0 0,9.42355102 0,21.0090857 C0,25.3168163 1.30768163,29.4659265 3.78066122,33.0130286 C4.13037551,33.5138694 4.70365714,33.8161224 5.31565714,33.8161224 L36.6937714,33.8161224 C37.3032735,33.8161224 37.8765551,33.5163673 38.2287673,33.0130286 C40.7017469,29.4659265 42.0094291,25.3168163 42.0094291,21.0090857 C42.0119265,9.4248 32.5883755,0 21.0053388,0 Z M21.0053388,6.08502857 C22.2718041,6.08502857 23.2959673,7.11044082 23.2959673,8.37565714 C23.2959673,9.63962449 22.2718041,10.6650367 21.0053388,10.6650367 C19.7401224,10.6650367 18.7172082,9.63962449 18.7172082,8.37565714 C18.7172082,7.1116898 19.7401224,6.08502857 21.0053388,6.08502857 Z M9.34986122,23.7805714 C8.08339592,23.7805714 7.05923265,22.7551592 7.05923265,21.4911918 C7.05923265,20.2247265 8.08339592,19.2005633 9.34986122,19.2005633 C10.6138286,19.2005633 11.6379918,20.2247265 11.6379918,21.4911918 C11.6379918,22.7551592 10.6138286,23.7805714 9.34986122,23.7805714 Z M28.4879755,15.1900898 L24.2264571,23.1573306 C25.9438041,24.232702 27.0953633,26.1286531 27.0953633,28.3056245 L14.9178122,28.3056245 C14.9178122,25.1332163 17.3520735,22.5565714 20.4532898,22.2730531 L25.1831755,13.4240327 C25.6727755,12.5122776 26.8118449,12.1675592 27.7198531,12.6559102 C28.6291102,13.1417633 28.9750776,14.2770857 28.4879755,15.1900898 Z M32.6633143,23.7805714 C31.3956,23.7805714 30.3726857,22.7551592 30.3726857,21.4911918 C30.3726857,20.2247265 31.3956,19.2005633 32.6633143,19.2005633 C33.9272816,19.2005633 34.9539429,20.2247265 34.9539429,21.4911918 C34.9539429,22.7551592 33.9272816,23.7805714 32.6633143,23.7805714 Z" id="Shape"></path>
        </g>
    </g>
</svg>