<?xml version="1.0" encoding="UTF-8"?>
<svg width="59px" height="33px" viewBox="0 0 59 33" version="1.1" xmlns="http://www.w3.org/2000/svg" xmlns:xlink="http://www.w3.org/1999/xlink">
    <!-- Generator: Sketch 61.1 (89650) - https://sketch.com -->
    <title>Student Registration Page</title>
    <desc>Created with Sketch.</desc>
    <g id="Student-Registration-Page" stroke="none" stroke-width="1" fill="none" fill-rule="evenodd" opacity="0.25">
        <g id="user-(5)" transform="translate(19.000000, 7.000000)" fill="#FFFFFF" fill-rule="nonzero">
            <path d="M16.8803245,10.4665314 C18.0730223,10.4665314 19.0425963,11.4361055 19.0425963,12.6288032 L19.0425963,12.6288032 L19.0425963,13.9269777 L19.2576065,13.9269777 C20.0933063,13.9269777 20.7707911,14.6085193 20.7748479,15.4401623 L20.7748479,15.4401623 L20.7748479,18.4705882 C20.7748479,19.306288 20.0973631,19.9837728 19.2616633,19.9837728 L19.2616633,19.9837728 L14.5030426,19.9837728 C13.6673428,19.9837728 12.989858,19.306288 12.989858,18.4705882 L12.989858,18.4705882 L12.989858,15.4401623 C12.989858,14.6044625 13.6673428,13.9269777 14.5030426,13.9269777 L14.5030426,13.9269777 L14.7180527,13.9269777 L14.7180527,12.6288032 C14.7180527,11.4361055 15.6876268,10.4665314 16.8803245,10.4665314 Z M6.11764706,12.0689655 C6.12576065,12.0730223 6.13793103,12.0770791 6.14604462,12.0851927 L6.14604462,12.0851927 L6.59634888,12.7667343 C6.59634888,12.7910751 8.6653144,15.8823529 8.67748479,15.9026369 L8.67748479,15.9026369 L8.67748479,18.4219067 L1.67545639,18.4219067 C1.37525355,18.4219067 1.13590264,18.178499 1.13590264,17.8823529 C1.13590264,14.9411765 3.30223124,12.5273834 6.11764706,12.0689655 Z M12.3245436,12.0649087 C12.9208925,12.1622718 13.484787,12.3488844 14.0081136,12.6085193 L14.0081136,12.6085193 L14.0081136,13.6064909 L13.7931034,13.6064909 C12.9614604,13.6064909 12.2799189,14.2839757 12.2758621,15.1196755 L12.2758621,15.1196755 L12.2758621,18.1501014 C12.2758621,18.2434077 12.2839757,18.3326572 12.3002028,18.4219067 L12.3002028,18.4219067 L9.7525355,18.4219067 L9.7525355,15.9026369 C12.1947262,12.2352941 11.6957404,12.9817444 12.296146,12.0811359 C12.3042596,12.0730223 12.31643,12.0689655 12.3245436,12.0649087 Z M5.98782961,15.188641 L4.90872211,15.188641 C4.60851927,15.188641 4.36916836,15.4320487 4.36916836,15.7281947 C4.36916836,16.0283976 4.61257606,16.2677485 4.90872211,16.2677485 L4.90872211,16.2677485 L5.98782961,16.2677485 C6.28397566,16.2677485 6.52332657,16.0243408 6.52738337,15.7281947 C6.52738337,15.4279919 6.28397566,15.188641 5.98782961,15.188641 L5.98782961,15.188641 Z M10.474645,12.8681542 L9.21703854,14.7586207 L7.96348884,12.872211 C8.36916836,12.969574 8.78701826,13.0344828 9.21703854,13.0344828 C9.65111562,13.0344828 10.0689655,12.9655172 10.474645,12.8681542 L10.474645,12.8681542 Z M16.872211,11.7647059 C16.3975659,11.7647059 16.0081136,12.1501014 16.0081136,12.6288032 L16.0081136,12.6288032 L16.0081136,13.9269777 L17.7363083,13.9269777 L17.7363083,12.6288032 C17.7363083,12.1541582 17.346856,11.7647059 16.872211,11.7647059 Z M14.0324544,6.92089249 C13.9188641,8.86004057 12.872211,10.5030426 11.3995943,11.346856 C11.3995943,11.346856 10.6409736,11.703854 10.4056795,11.7728195 L10.4056795,11.7728195 L10.1753509,11.834288 C9.86612576,11.9101014 9.54807302,11.959432 9.21703854,11.959432 C8.83975659,11.959432 8.30020284,11.8823529 7.76064909,11.68357 C7.50912779,11.5943205 7.03448276,11.3509128 7.03448276,11.3509128 C5.56186613,10.5070994 4.51521298,8.86004057 4.40162272,6.92089249 C4.51926978,7.00608519 4.62880325,7.10344828 4.76267748,7.168357 C6.11359026,7.8336714 7.65517241,8.18661258 9.21703854,8.18661258 C10.7789047,8.18661258 12.3204868,7.8336714 13.6713996,7.168357 C13.8052738,7.10344828 13.9148073,7.00608519 14.0324544,6.92089249 Z M9.21192998,0.0338066261 L9.31034483,0.0527383367 L16.851927,2.20689655 C17.0831643,2.27586207 17.2413793,2.48275862 17.2413793,2.72616633 C17.2413793,2.96957404 17.0831643,3.18052738 16.851927,3.24543611 L16.851927,3.24543611 L14.0121704,4.05679513 L14.0121704,4.69371197 C14.0121704,5.30628803 13.6713996,5.87018256 13.1440162,6.12981744 C10.7302231,7.31440162 7.59432049,7.31440162 5.18052738,6.12981744 C4.65314402,5.87018256 4.31237323,5.30628803 4.31237323,4.69371197 L4.31237323,4.69371197 L4.31237323,4.05679513 L2.15821501,3.44016227 L2.15821501,8.7505071 C2.78701826,8.97363083 3.23732252,9.56592292 3.23732252,10.2677485 L3.23732252,10.2677485 L3.23732252,11.346856 C3.23732252,11.643002 2.9979716,11.8864097 2.69776876,11.8864097 L2.69776876,11.8864097 L0.543610548,11.8864097 C0.243407708,11.8864097 0.00405679513,11.643002 0.00405679513,11.346856 L0.00405679513,11.346856 L0.00405679513,10.2677485 C0.00405679513,9.56592292 0.45841785,8.97363083 1.0831643,8.7505071 L1.0831643,8.7505071 L1.0831643,3.12778905 C1.0831643,3.04259635 1.10750507,2.96551724 1.13995943,2.89655172 C1.11967546,2.83975659 1.0831643,2.79107505 1.0831643,2.72616633 C1.0831643,2.48275862 1.24137931,2.27180527 1.47261663,2.20689655 L1.47261663,2.20689655 L9.01419878,0.0527383367 C9.11156187,0.0243407708 9.21298174,0.0243407708 9.31034483,0.0527383367 Z" id="Combined-Shape"></path>
        </g>
    </g>
</svg>