<?xml version="1.0" encoding="UTF-8"?>
<svg width="72px" height="41px" viewBox="0 0 72 41" version="1.1" xmlns="http://www.w3.org/2000/svg" xmlns:xlink="http://www.w3.org/1999/xlink">
    <!-- Generator: Sketch 61.1 (89650) - https://sketch.com -->
    <title>Student Registration Page</title>
    <desc>Created with Sketch.</desc>
    <g id="Student-Registration-Page" stroke="none" stroke-width="1" fill="none" fill-rule="evenodd" transform="translate(0.000000, 1.000000)" opacity="0.25">
        <g id="user-(5)" transform="translate(18.000000, 3.000000)" fill="#FFFFFF" fill-rule="nonzero">
            <path d="M28.6965517,17.7931034 C30.7241379,17.7931034 32.3724138,19.4413793 32.3724138,21.4689655 L32.3724138,21.4689655 L32.3724138,23.6758621 L32.737931,23.6758621 C34.1586207,23.6758621 35.3103448,24.8344828 35.3172414,26.2482759 L35.3172414,26.2482759 L35.3172414,31.4 C35.3172414,32.8206897 34.1655172,33.9724138 32.7448276,33.9724138 L32.7448276,33.9724138 L24.6551724,33.9724138 C23.2344828,33.9724138 22.0827586,32.8206897 22.0827586,31.4 L22.0827586,31.4 L22.0827586,26.2482759 C22.0827586,24.8275862 23.2344828,23.6758621 24.6551724,23.6758621 L24.6551724,23.6758621 L25.0206897,23.6758621 L25.0206897,21.4689655 C25.0206897,19.4413793 26.6689655,17.7931034 28.6965517,17.7931034 Z M10.4,20.5172414 C10.4137931,20.5241379 10.4344828,20.5310345 10.4482759,20.5448276 L10.4482759,20.5448276 L11.2137931,21.7034483 C11.2137931,21.7448276 14.7310345,27 14.7517241,27.0344828 L14.7517241,27.0344828 L14.7517241,31.3172414 L2.84827586,31.3172414 C2.33793103,31.3172414 1.93103448,30.9034483 1.93103448,30.4 C1.93103448,25.4 5.6137931,21.2965517 10.4,20.5172414 Z M20.9517241,20.5103448 C21.9655172,20.6758621 22.9241379,20.9931034 23.8137931,21.4344828 L23.8137931,21.4344828 L23.8137931,23.1310345 L23.4482759,23.1310345 C22.0344828,23.1310345 20.8758621,24.2827586 20.8689655,25.7034483 L20.8689655,25.7034483 L20.8689655,30.8551724 C20.8689655,31.0137931 20.8827586,31.1655172 20.9103448,31.3172414 L20.9103448,31.3172414 L16.5793103,31.3172414 L16.5793103,27.0344828 C20.7310345,20.8 19.8827586,22.0689655 20.9034483,20.537931 C20.9172414,20.5241379 20.937931,20.5172414 20.9517241,20.5103448 Z M10.1793103,25.8206897 L8.34482759,25.8206897 C7.83448276,25.8206897 7.42758621,26.2344828 7.42758621,26.737931 C7.42758621,27.2482759 7.84137931,27.6551724 8.34482759,27.6551724 L8.34482759,27.6551724 L10.1793103,27.6551724 C10.6827586,27.6551724 11.0896552,27.2413793 11.0965517,26.737931 C11.0965517,26.2275862 10.6827586,25.8206897 10.1793103,25.8206897 L10.1793103,25.8206897 Z M17.8068966,21.8758621 L15.6689655,25.0896552 L13.537931,21.8827586 C14.2275862,22.0482759 14.937931,22.1586207 15.6689655,22.1586207 C16.4068966,22.1586207 17.1172414,22.0413793 17.8068966,21.8758621 L17.8068966,21.8758621 Z M28.6827586,20 C27.8758621,20 27.2137931,20.6551724 27.2137931,21.4689655 L27.2137931,21.4689655 L27.2137931,23.6758621 L30.1517241,23.6758621 L30.1517241,21.4689655 C30.1517241,20.662069 29.4896552,20 28.6827586,20 Z M23.8551724,11.7655172 C23.662069,15.062069 21.8827586,17.8551724 19.3793103,19.2896552 C19.3793103,19.2896552 18.0896552,19.8965517 17.6896552,20.0137931 L17.6896552,20.0137931 L17.3637292,20.1019476 C16.817433,20.2400383 16.2551724,20.3310345 15.6689655,20.3310345 C15.0275862,20.3310345 14.1103448,20.2 13.1931034,19.862069 C12.8876847,19.7536946 12.3887403,19.5116115 12.1285614,19.3821253 L11.9586207,19.2965517 C9.45517241,17.862069 7.67586207,15.062069 7.48275862,11.7655172 C7.68275862,11.9103448 7.86896552,12.0758621 8.09655172,12.1862069 C10.3931034,13.3172414 13.0137931,13.9172414 15.6689655,13.9172414 C18.3241379,13.9172414 20.9448276,13.3172414 23.2413793,12.1862069 C23.4689655,12.0758621 23.6551724,11.9103448 23.8551724,11.7655172 Z M15.3241379,0.0896551724 C15.4896552,0.0413793103 15.662069,0.0413793103 15.8275862,0.0896551724 L15.8275862,0.0896551724 L28.6482759,3.75172414 C29.0413793,3.86896552 29.3103448,4.22068966 29.3103448,4.63448276 C29.3103448,5.04827586 29.0413793,5.40689655 28.6482759,5.51724138 L28.6482759,5.51724138 L23.8206897,6.89655172 L23.8206897,7.97931034 C23.8206897,9.02068966 23.2413793,9.97931034 22.3448276,10.4206897 C18.2413793,12.4344828 12.9103448,12.4344828 8.80689655,10.4206897 C7.91034483,9.97931034 7.33103448,9.02068966 7.33103448,7.97931034 L7.33103448,7.97931034 L7.33103448,6.89655172 L3.66896552,5.84827586 L3.66896552,14.8758621 C4.73793103,15.2551724 5.50344828,16.262069 5.50344828,17.4551724 L5.50344828,17.4551724 L5.50344828,19.2896552 C5.50344828,19.7931034 5.09655172,20.2068966 4.5862069,20.2068966 L4.5862069,20.2068966 L0.924137931,20.2068966 C0.413793103,20.2068966 0.00689655172,19.7931034 0.00689655172,19.2896552 L0.00689655172,19.2896552 L0.00689655172,17.4551724 C0.00689655172,16.262069 0.779310345,15.2551724 1.84137931,14.8758621 L1.84137931,14.8758621 L1.84137931,5.31724138 C1.84137931,5.17241379 1.88275862,5.04137931 1.93793103,4.92413793 C1.90344828,4.82758621 1.84137931,4.74482759 1.84137931,4.63448276 C1.84137931,4.22068966 2.11034483,3.86206897 2.50344828,3.75172414 L2.50344828,3.75172414 Z" id="Combined-Shape"></path>
        </g>
    </g>
</svg>