<?xml version="1.0" encoding="UTF-8"?>
<svg width="59px" height="33px" viewBox="0 0 59 33" version="1.1" xmlns="http://www.w3.org/2000/svg" xmlns:xlink="http://www.w3.org/1999/xlink">
    <!-- Generator: Sketch 61.1 (89650) - https://sketch.com -->
    <title>Instructor Registration Page</title>
    <desc>Created with Sketch.</desc>
    <g id="Instructor-Registration-Page" stroke="none" stroke-width="1" fill="none" fill-rule="evenodd" opacity="0.25">
        <g id="user-(5)" transform="translate(19.000000, 7.000000)" fill="#FFFFFF" fill-rule="nonzero">
            <path d="M16.9450102,10.4276986 C18.1425026,10.4276986 19.1173943,11.4027495 19.1173943,12.6000827 L19.1173943,12.6000827 L19.1173943,13.9035451 L19.3347442,13.9035451 C20.1732752,13.9035451 20.8553971,14.585667 20.8553971,15.4243572 L20.8553971,15.4243572 L20.8553971,18.4656632 C20.8553971,19.3043534 20.1732752,19.9864753 19.3347442,19.9864753 L19.3347442,19.9864753 L14.5552762,19.9864753 C13.7167452,19.9864753 13.0346232,19.3043534 13.0346232,18.4656632 L13.0346232,18.4656632 L13.0346232,15.4243572 C13.0346232,14.585667 13.7167452,13.9035451 14.5552762,13.9035451 L14.5552762,13.9035451 L14.772626,13.9035451 L14.772626,12.6000827 C14.772626,11.4027495 15.7475178,10.4276986 16.9450102,10.4276986 Z M11.5139702,10.4276986 C12.3628437,10.4276986 13.1518903,10.6865771 13.8088722,11.127164 C13.5967732,11.576502 13.4691637,12.0718241 13.4691637,12.6000827 L13.4691637,12.6000827 L13.4691637,12.8174325 C12.4498791,13.2440173 11.7311609,14.2512093 11.7311609,15.4243572 L11.7311609,15.4243572 L11.7311609,18.2484725 L0.651731161,18.2484725 C0.291974297,18.2484725 -1.31029129e-13,17.9564982 -1.31029129e-13,17.5967413 L-1.31029129e-13,17.5967413 L-1.31029129e-13,14.5552762 C-1.31029129e-13,12.2794679 1.85176937,10.4276986 4.12757764,10.4276986 L4.12757764,10.4276986 Z M16.9450102,11.7311609 C16.466236,11.7311609 16.0760884,12.1213086 16.0760884,12.6000827 L16.0760884,12.6000827 L16.0760884,13.9035451 L17.813932,13.9035451 L17.813932,12.6000827 C17.813932,12.1213086 17.4237844,11.7311609 16.9450102,11.7311609 Z M7.82077393,5.82250297e-15 C10.220373,5.82250297e-15 12.1657014,1.94532839 12.1657014,4.34492745 C12.1657014,6.74452648 10.220373,8.68969576 7.82077393,8.68969576 C5.42117491,8.68969576 3.47584648,6.74452648 3.47584648,4.34492745 C3.47584648,1.94532839 5.42117491,5.82250297e-15 7.82077393,5.82250297e-15 Z" id="Combined-Shape"></path>
        </g>
    </g>
</svg>