<?xml version="1.0" encoding="UTF-8"?>
<svg width="72px" height="40px" viewBox="0 0 72 40" version="1.1" xmlns="http://www.w3.org/2000/svg" xmlns:xlink="http://www.w3.org/1999/xlink">
    <!-- Generator: Sketch 61.1 (89650) - https://sketch.com -->
    <title>Instructor Registration Page</title>
    <desc>Created with Sketch.</desc>
    <g id="Instructor-Registration-Page" stroke="none" stroke-width="1" fill="none" fill-rule="evenodd" opacity="0.25">
        <g id="user-(5)" transform="translate(17.000000, 2.000000)" fill="#FFFFFF" fill-rule="nonzero">
            <path d="M30.5010183,18.7698574 C32.6565046,18.7698574 34.4113098,20.5249491 34.4113098,22.6801489 L34.4113098,22.6801489 L34.4113098,25.0263811 L34.8025395,25.0263811 C36.3118953,25.0263811 37.5397149,26.2542006 37.5397149,27.7638429 L37.5397149,27.7638429 L37.5397149,33.2381937 C37.5397149,34.747836 36.3118953,35.9756556 34.8025395,35.9756556 L34.8025395,35.9756556 L26.1994972,35.9756556 C24.6901413,35.9756556 23.4623218,34.747836 23.4623218,33.2381937 L23.4623218,33.2381937 L23.4623218,27.7638429 C23.4623218,26.2542006 24.6901413,25.0263811 26.1994972,25.0263811 L26.1994972,25.0263811 L26.5907269,25.0263811 L26.5907269,22.6801489 C26.5907269,20.5249491 28.345532,18.7698574 30.5010183,18.7698574 Z M20.7251464,18.7698574 C22.2531186,18.7698574 23.6734025,19.2358389 24.8559699,20.0288951 C24.4741917,20.8377037 24.2444947,21.7292833 24.2444947,22.6801489 L24.2444947,22.6801489 L24.2444947,23.0713786 C22.4097823,23.8392312 21.1160896,25.6521767 21.1160896,27.7638429 L21.1160896,27.7638429 L21.1160896,32.8472505 L1.17311609,32.8472505 C0.525553735,32.8472505 -2.36562976e-13,32.3216968 -2.36562976e-13,31.6741344 L-2.36562976e-13,31.6741344 L-2.36562976e-13,26.1994972 C-2.36562976e-13,22.1030423 3.33318486,18.7698574 7.42963975,18.7698574 L7.42963975,18.7698574 Z M30.5010183,21.1160896 C29.6392248,21.1160896 28.936959,21.8183554 28.936959,22.6801489 L28.936959,22.6801489 L28.936959,25.0263811 L32.0650776,25.0263811 L32.0650776,22.6801489 C32.0650776,21.8183554 31.3628118,21.1160896 30.5010183,21.1160896 Z M14.0773931,1.0658141e-14 C18.3966713,1.0658141e-14 21.8982625,3.5015911 21.8982625,7.82086942 C21.8982625,12.1401477 18.3966713,15.6414524 14.0773931,15.6414524 C9.75811484,15.6414524 6.25652366,12.1401477 6.25652366,7.82086942 C6.25652366,3.5015911 9.75811484,1.0658141e-14 14.0773931,1.0658141e-14 Z" id="Combined-Shape"></path>
        </g>
    </g>
</svg>