<?xml version="1.0" encoding="UTF-8"?>
<svg width="59px" height="33px" viewBox="0 0 59 33" version="1.1" xmlns="http://www.w3.org/2000/svg" xmlns:xlink="http://www.w3.org/1999/xlink">
    <!-- Generator: Sketch 61.1 (89650) - https://sketch.com -->
    <title>Quiz</title>
    <desc>Created with Sketch.</desc>
    <g id="Quiz" stroke="none" stroke-width="1" fill="none" fill-rule="evenodd" opacity="0.25">
        <g id="doubt-(1)" transform="translate(19.000000, 7.000000)" fill="#FFFFFF" fill-rule="nonzero">
            <path d="M18.7977857,0.40397619 L2.20083333,0.40397619 C0.984833333,0.40397619 0,1.3892619 0,2.60480952 L0,13.4809524 C0,14.6969524 0.985285714,15.680881 2.20083333,15.680881 L14.8105,15.680881 L17.2325476,18.131881 C17.654619,18.5580238 18.2219048,18.785119 18.7986905,18.785119 C19.0791667,18.785119 19.3641667,18.7317381 19.6346905,18.6204524 C20.4598333,18.2811667 20.9990714,17.4772857 20.9990714,16.5847381 L20.9990714,2.60480952 C20.998619,1.38880952 20.0133333,0.40397619 18.7977857,0.40397619 Z M11.4904762,12.4879762 C11.4904762,13.2434524 10.9082619,13.8265714 10.1220238,13.8265714 C9.33488095,13.8265714 8.75266667,13.2434524 8.75266667,12.4879762 L8.75266667,12.4567619 C8.75266667,11.7021905 9.33533333,11.1190714 10.1220238,11.1190714 C10.9082619,11.1190714 11.4904762,11.7021905 11.4904762,12.4567619 L11.4904762,12.4879762 Z M14.2445714,5.86421429 C14.2445714,7.86147619 12.859381,8.68119048 11.1439524,9.02635714 L11.0969048,9.30954762 C11.033119,9.71804762 10.7037857,10.0808571 10.2473333,10.0808571 L10.1220238,10.0808571 C9.66557143,10.0808571 9.33488095,9.73297619 9.27154762,9.30954762 L9.11457143,8.23966667 C9.03585714,7.71988095 9.33488095,7.35842857 9.83883333,7.29509524 C11.2072857,7.12228571 11.837,6.69659524 11.837,5.92528571 L11.837,5.89542857 C11.837,5.18790476 11.3018333,4.77759524 10.3889286,4.77759524 C9.71216667,4.77759524 9.12995238,4.98252381 8.56357143,5.40730952 C8.37447619,5.54890476 8.1225,5.6597381 7.85559524,5.6597381 C7.25754762,5.6597381 6.75314286,5.15533333 6.75314286,4.5577381 C6.75314286,4.25735714 6.87935714,3.94385714 7.16254762,3.70771429 C7.9967381,3.01466667 9.0512381,2.57314286 10.4359762,2.57314286 C12.7019524,2.57314286 14.244119,3.73938095 14.244119,5.83254762 L14.244119,5.86421429 L14.2445714,5.86421429 L14.2445714,5.86421429 Z" id="Shape"></path>
        </g>
    </g>
</svg>