<?xml version="1.0" encoding="UTF-8"?>
<svg width="59px" height="33px" viewBox="0 0 59 33" version="1.1" xmlns="http://www.w3.org/2000/svg" xmlns:xlink="http://www.w3.org/1999/xlink">
    <!-- Generator: Sketch 61.1 (89650) - https://sketch.com -->
    <title>Single Course</title>
    <desc>Created with Sketch.</desc>
    <g id="Single-Course" stroke="none" stroke-width="1" fill="none" fill-rule="evenodd" opacity="0.25">
        <g id="top" transform="translate(20.000000, 7.000000)" fill="#FFFFFF" fill-rule="nonzero">
            <path d="M19.0638298,18.1560838 C19.5649934,18.1560838 19.9715758,18.5618351 19.9715758,19.0638298 C19.9715758,19.5658245 19.5649934,19.9715758 19.0638298,19.9715758 L0.907746,19.9715758 C0.406748681,19.9715758 -1.20943444e-15,19.5658245 -1.20943444e-15,19.0638298 C-1.20943444e-15,18.5618351 0.406748681,18.1560838 0.907746,18.1560838 L19.0638298,18.1560838 Z M19.0638298,14.5247673 C19.5649934,14.5247673 19.9715758,14.9306849 19.9715758,15.4326795 C19.9715758,15.9346742 19.5649934,16.3404255 19.0638298,16.3404255 L0.907746,16.3404255 C0.406748681,16.3404255 -1.20943444e-15,15.9346742 -1.20943444e-15,15.4326795 C-1.20943444e-15,14.9306849 0.406748681,14.5247673 0.907746,14.5247673 L19.0638298,14.5247673 Z M19.0638298,10.893617 C19.5649934,10.893617 19.9715758,11.2993683 19.9715758,11.801363 C19.9715758,12.3033577 19.5649934,12.7092753 19.0638298,12.7092753 L0.907746,12.7092753 C0.406748681,12.7092753 -1.20943444e-15,12.3033577 -1.20943444e-15,11.801363 C-1.20943444e-15,11.2993683 0.406748681,10.893617 0.907746,10.893617 L19.0638298,10.893617 Z M6.35455451,7.26246677 C6.85571809,7.26246677 7.26246677,7.66821809 7.26246677,8.17021277 C7.26246677,8.67220745 6.85571809,9.07795877 6.35455451,9.07795877 L0.907746,9.07795877 C0.406748681,9.07795877 4.11963607e-15,8.67220745 4.11963607e-15,8.17021277 C4.11963607e-15,7.66821809 0.406748681,7.26246677 0.907746,7.26246677 L6.35455451,7.26246677 Z M18.6098737,-2.878743e-14 C19.3607048,-2.878743e-14 19.9715758,0.610871021 19.9715758,1.36170213 L19.9715758,1.36170213 L19.9715758,7.71625664 C19.9715758,8.46708774 19.3607048,9.07795877 18.6098737,9.07795877 L18.6098737,9.07795877 L10.4396609,9.07795877 C9.688996,9.07795877 9.07795877,8.46708774 9.07795877,7.71625664 L9.07795877,7.71625664 L9.07795877,1.36170213 C9.07795877,0.610871021 9.688996,-2.878743e-14 10.4396609,-2.878743e-14 L10.4396609,-2.878743e-14 Z M18.1560838,1.81565826 L10.893617,1.81565826 L10.893617,6.5761303 L12.1336436,5.27526596 C12.477726,4.91389626 13.0497008,4.89843749 13.4127327,5.23986038 L13.4127327,5.23986038 L14.1271609,5.91156915 L15.6023936,4.3665226 C15.9409907,4.0106383 16.5011636,3.9915226 16.8660239,4.31848404 L16.8660239,4.31848404 L18.1560838,5.47855719 L18.1560838,1.81565826 Z M6.35455451,3.63115026 C6.85571809,3.63115026 7.26246677,4.03706783 7.26246677,4.53906251 C7.26246677,5.04105719 6.85571809,5.44680851 6.35455451,5.44680851 L0.907746,5.44680851 C0.406748681,5.44680851 4.11963607e-15,5.04105719 4.11963607e-15,4.53906251 C4.11963607e-15,4.03706783 0.406748681,3.63115026 0.907746,3.63115026 L6.35455451,3.63115026 Z M6.35455451,-3.40054782e-14 C6.85571809,-3.40054782e-14 7.26246677,0.405751319 7.26246677,0.907746 C7.26246677,1.40974068 6.85571809,1.81565826 6.35455451,1.81565826 L0.907746,1.81565826 C0.406748681,1.81565826 4.11963607e-15,1.40974068 4.11963607e-15,0.907746 C4.11963607e-15,0.405751319 0.406748681,-3.40054782e-14 0.907746,-3.40054782e-14 L6.35455451,-3.40054782e-14 Z" id="Combined-Shape"></path>
        </g>
    </g>
</svg>