<?xml version="1.0" encoding="UTF-8"?>
<svg width="72px" height="40px" viewBox="0 0 72 40" version="1.1" xmlns="http://www.w3.org/2000/svg" xmlns:xlink="http://www.w3.org/1999/xlink">
    <!-- Generator: Sketch 61.1 (89650) - https://sketch.com -->
    <title>Quiz</title>
    <desc>Created with Sketch.</desc>
    <g id="Quiz" stroke="none" stroke-width="1" fill="none" fill-rule="evenodd" opacity="0.25">
        <g id="doubt-(1)" transform="translate(17.000000, 3.000000)" fill="#FFFFFF" fill-rule="nonzero">
            <path d="M34.6275,0.744166667 L4.05416667,0.744166667 C1.81416667,0.744166667 0,2.55916667 0,4.79833333 L0,24.8333333 C0,27.0733333 1.815,28.8858333 4.05416667,28.8858333 L27.2825,28.8858333 L31.7441667,33.4008333 C32.5216667,34.1858333 33.5666667,34.6041667 34.6291667,34.6041667 C35.1458333,34.6041667 35.6708333,34.5058333 36.1691667,34.3008333 C37.6891667,33.6758333 38.6825,32.195 38.6825,30.5508333 L38.6825,4.79833333 C38.6816667,2.55833333 36.8666667,0.744166667 34.6275,0.744166667 Z M21.1666667,23.0041667 C21.1666667,24.3958333 20.0941667,25.47 18.6458333,25.47 C17.1958333,25.47 16.1233333,24.3958333 16.1233333,23.0041667 L16.1233333,22.9466667 C16.1233333,21.5566667 17.1966667,20.4825 18.6458333,20.4825 C20.0941667,20.4825 21.1666667,21.5566667 21.1666667,22.9466667 L21.1666667,23.0041667 Z M26.24,10.8025 C26.24,14.4816667 23.6883333,15.9916667 20.5283333,16.6275 L20.4416667,17.1491667 C20.3241667,17.9016667 19.7175,18.57 18.8766667,18.57 L18.6458333,18.57 C17.805,18.57 17.1958333,17.9291667 17.0791667,17.1491667 L16.79,15.1783333 C16.645,14.2208333 17.1958333,13.555 18.1241667,13.4383333 C20.645,13.12 21.805,12.3358333 21.805,10.915 L21.805,10.86 C21.805,9.55666667 20.8191667,8.80083333 19.1375,8.80083333 C17.8908333,8.80083333 16.8183333,9.17833333 15.775,9.96083333 C15.4266667,10.2216667 14.9625,10.4258333 14.4708333,10.4258333 C13.3691667,10.4258333 12.44,9.49666667 12.44,8.39583333 C12.44,7.8425 12.6725,7.265 13.1941667,6.83 C14.7308333,5.55333333 16.6733333,4.74 19.2241667,4.74 C23.3983333,4.74 26.2391667,6.88833333 26.2391667,10.7441667 L26.2391667,10.8025 L26.24,10.8025 L26.24,10.8025 Z" id="Shape"></path>
        </g>
    </g>
</svg>