<?xml version="1.0" encoding="UTF-8"?>
<svg width="72px" height="40px" viewBox="0 0 72 40" version="1.1" xmlns="http://www.w3.org/2000/svg" xmlns:xlink="http://www.w3.org/1999/xlink">
    <!-- Generator: Sketch 61.1 (89650) - https://sketch.com -->
    <title>Assignment</title>
    <desc>Created with Sketch.</desc>
    <g id="Assignment" stroke="none" stroke-width="1" fill="none" fill-rule="evenodd">
        <g id="test-(1)" transform="translate(18.000000, 2.000000)" fill-rule="nonzero">
            <path d="M5.34375,4.2890625 C5.34375,6.61577344 7.23578906,8.5078125 9.5625,8.5078125 L9.5625,8.5078125 L18,8.5078125 C20.3267109,8.5078125 22.2890625,6.61577344 22.2890625,4.2890625 L22.2890625,4.2890625 L24.3984375,4.2890625 C26.1431719,4.2890625 27.5625,5.70839063 27.5625,7.453125 L27.5625,7.453125 L27.5625,32.765625 C27.5625,34.5103594 26.1431719,36 24.3984375,36 L24.3984375,36 L3.234375,36 C1.48964062,36 0,34.5103594 0,32.765625 L0,32.765625 L0,7.453125 C0,5.70839063 1.48964062,4.2890625 3.234375,4.2890625 L3.234375,4.2890625 Z M31.4722969,27.1831641 C32.2241484,26.4313125 33.4477969,26.4313125 34.1996484,27.1831641 L34.1996484,27.1831641 L35.406,28.3895156 L33.8360625,33.0993281 C33.6929062,33.5298516 33.2901562,33.8203125 32.8359375,33.8203125 C32.3817187,33.8203125 31.9790391,33.5298516 31.8358828,33.0993281 L31.8358828,33.0993281 L30.2659453,28.3895156 Z M12.4176094,25.6917656 C12.0056484,25.2798047 11.3381719,25.2798047 10.9262109,25.6917656 L10.9262109,25.6917656 L7.453125,29.1648516 L6.08948437,27.8012109 C5.67752344,27.38925 5.01004687,27.38925 4.59808594,27.8012109 C4.18605469,28.2131719 4.18605469,28.8805781 4.59815625,29.2925391 L4.59815625,29.2925391 L6.70753125,31.4019141 C6.91347656,31.6079297 7.18340625,31.7109375 7.45319531,31.7109375 C7.72298438,31.7109375 7.99284375,31.6079297 8.19885938,31.4019141 L8.19885938,31.4019141 L12.4176094,27.1831641 C12.8295703,26.7712031 12.8295703,26.1037266 12.4176094,25.6917656 Z M22.2890625,27.4921875 L15.890625,27.4921875 C15.3076641,27.4921875 14.8359375,27.9639141 14.8359375,28.546875 C14.8359375,29.1298359 15.3076641,29.6015625 15.890625,29.6015625 L15.890625,29.6015625 L22.2890625,29.6015625 C22.8720234,29.6015625 23.34375,29.1298359 23.34375,28.546875 C23.34375,27.9639141 22.8720234,27.4921875 22.2890625,27.4921875 L22.2890625,27.4921875 Z M36.0000703,14.8359375 L36.0000703,26.0007891 L35.6910469,25.6917656 C34.1172422,24.1179609 31.5547031,24.1179609 29.9808984,25.6917656 L29.9808984,25.6917656 L29.6719453,26.0007891 L29.6719453,14.8359375 L36.0000703,14.8359375 Z M12.4176094,18.3089531 C12.0056484,17.8969922 11.3381719,17.8969922 10.9262109,18.3089531 L10.9262109,18.3089531 L7.453125,21.7820391 L6.08948437,20.4183984 C5.67752344,20.0064375 5.01004687,20.0064375 4.59808594,20.4183984 C4.18605469,20.8303594 4.18605469,21.4977656 4.59815625,21.9097266 L4.59815625,21.9097266 L6.70753125,24.0191016 C6.91347656,24.2251172 7.18340625,24.328125 7.45319531,24.328125 C7.72298438,24.328125 7.99284375,24.2251172 8.19885938,24.0191016 L8.19885938,24.0191016 L12.4176094,19.8003516 C12.8295703,19.3883906 12.8295703,18.7209141 12.4176094,18.3089531 Z M22.2890625,20.109375 L15.890625,20.109375 C15.3076641,20.109375 14.8359375,20.5811016 14.8359375,21.1640625 C14.8359375,21.7470234 15.3076641,22.21875 15.890625,22.21875 L15.890625,22.21875 L22.2890625,22.21875 C22.8720234,22.21875 23.34375,21.7470234 23.34375,21.1640625 C23.34375,20.5811016 22.8720234,20.109375 22.2890625,20.109375 L22.2890625,20.109375 Z M6.08948437,10.9261406 C5.67752344,10.5141797 5.01004687,10.5141797 4.59808594,10.9261406 C4.186125,11.3381016 4.186125,12.0055781 4.59808594,12.4175391 L4.59808594,12.4175391 L5.96172656,13.78125 L4.59801563,15.1449609 C4.18605469,15.5569219 4.18605469,16.2243984 4.59801563,16.6363594 C5.00997656,17.0483203 5.67745313,17.0483203 6.08941406,16.6363594 L6.08941406,16.6363594 L7.453125,15.2726484 L8.81683594,16.6363594 C9.22879687,17.0483203 9.89627344,17.0483203 10.3082344,16.6363594 C10.7201953,16.2243984 10.7201953,15.5569219 10.3082344,15.1449609 L10.3082344,15.1449609 L8.94452344,13.78125 L10.3082344,12.4175391 C10.7201953,12.0055781 10.7201953,11.3381016 10.3082344,10.9261406 C9.89627344,10.5141797 9.22879687,10.5141797 8.81683594,10.9261406 L8.81683594,10.9261406 L7.453125,12.2898516 Z M22.2890625,12.7265625 L15.890625,12.7265625 C15.3076641,12.7265625 14.8359375,13.1982891 14.8359375,13.78125 C14.8359375,14.3642109 15.3076641,14.8359375 15.890625,14.8359375 L15.890625,14.8359375 L22.2890625,14.8359375 C22.8720234,14.8359375 23.34375,14.3642109 23.34375,13.78125 C23.34375,13.1982891 22.8720234,12.7265625 22.2890625,12.7265625 L22.2890625,12.7265625 Z M32.8359375,6.3984375 C34.5806719,6.3984375 36,7.81776563 36,9.5625 L36,9.5625 L36,12.7265625 L29.671875,12.7265625 L29.671875,9.5625 C29.671875,7.81776563 31.0912031,6.3984375 32.8359375,6.3984375 Z M13.78125,0 C14.9462578,0 15.890625,0.944367188 15.890625,2.109375 L15.890625,2.109375 L19.0546875,2.109375 C19.6371562,2.109375 20.109375,2.65190625 20.109375,3.234375 L20.109375,3.234375 L20.109375,4.2890625 C20.109375,5.45407031 19.1650078,6.3984375 18,6.3984375 L18,6.3984375 L9.5625,6.3984375 C8.39749219,6.3984375 7.453125,5.45407031 7.453125,4.2890625 L7.453125,4.2890625 L7.453125,3.234375 C7.453125,2.65190625 7.92534375,2.109375 8.5078125,2.109375 L8.5078125,2.109375 L11.671875,2.109375 C11.671875,0.944367187 12.6162422,0 13.78125,0 Z" id="Combined-Shape" fill-opacity="0.25" fill="#FFFFFF"></path>
            <g id="Group" transform="translate(29.601562, 14.835938)" fill="#000000">
                <polygon id="Path" points="0.0852414062 11.1796953 0.0852414062 11.1796953 0.0851414063 11.1796953"></polygon>
            </g>
        </g>
    </g>
</svg>