<?xml version="1.0" encoding="UTF-8"?>
<svg width="72px" height="40px" viewBox="0 0 72 40" version="1.1" xmlns="http://www.w3.org/2000/svg" xmlns:xlink="http://www.w3.org/1999/xlink">
    <!-- Generator: Sketch 61.1 (89650) - https://sketch.com -->
    <title>Single Course</title>
    <desc>Created with Sketch.</desc>
    <g id="Single-Course" stroke="none" stroke-width="1" fill="none" fill-rule="evenodd" opacity="0.25">
        <g id="top" transform="translate(19.000000, 3.000000)" fill="#FFFFFF" fill-rule="nonzero">
            <path d="M32.4085106,30.8653424 C33.2604887,30.8653424 33.9516788,31.5551197 33.9516788,32.4085106 C33.9516788,33.2619016 33.2604887,33.9516788 32.4085106,33.9516788 L1.5431682,33.9516788 C0.691472757,33.9516788 -2.05603855e-15,33.2619016 -2.05603855e-15,32.4085106 C-2.05603855e-15,31.5551197 0.691472757,30.8653424 1.5431682,30.8653424 L32.4085106,30.8653424 Z M32.4085106,24.6921044 C33.2604887,24.6921044 33.9516788,25.3821642 33.9516788,26.2355552 C33.9516788,27.0889462 33.2604887,27.7787234 32.4085106,27.7787234 L1.5431682,27.7787234 C0.691472757,27.7787234 -2.05603855e-15,27.0889462 -2.05603855e-15,26.2355552 C-2.05603855e-15,25.3821642 0.691472757,24.6921044 1.5431682,24.6921044 L32.4085106,24.6921044 Z M32.4085106,18.5191489 C33.2604887,18.5191489 33.9516788,19.2089262 33.9516788,20.0623171 C33.9516788,20.9157081 33.2604887,21.605768 32.4085106,21.605768 L1.5431682,21.605768 C0.691472757,21.605768 -2.05603855e-15,20.9157081 -2.05603855e-15,20.0623171 C-2.05603855e-15,19.2089262 0.691472757,18.5191489 1.5431682,18.5191489 L32.4085106,18.5191489 Z M10.8027427,12.3461935 C11.6547207,12.3461935 12.3461935,13.0359707 12.3461935,13.8893617 C12.3461935,14.7427527 11.6547207,15.4325299 10.8027427,15.4325299 L1.5431682,15.4325299 C0.691472757,15.4325299 6.82574564e-15,14.7427527 6.82574564e-15,13.8893617 C6.82574564e-15,13.0359707 0.691472757,12.3461935 1.5431682,12.3461935 L10.8027427,12.3461935 Z M31.6367852,-4.84057239e-14 C32.9131981,-4.84057239e-14 33.9516788,1.03848074 33.9516788,2.31489362 L33.9516788,2.31489362 L33.9516788,13.1176363 C33.9516788,14.3940492 32.9131981,15.4325299 31.6367852,15.4325299 L31.6367852,15.4325299 L17.7474235,15.4325299 C16.4712932,15.4325299 15.4325299,14.3940492 15.4325299,13.1176363 L15.4325299,13.1176363 L15.4325299,2.31489362 C15.4325299,1.03848074 16.4712932,-4.84057239e-14 17.7474235,-4.84057239e-14 L17.7474235,-4.84057239e-14 Z M30.8653424,3.08661903 L18.5191489,3.08661903 L18.5191489,11.1794215 L20.6271941,8.96795213 C21.2121343,8.35362363 22.1844914,8.32734373 22.8016456,8.90776265 L22.8016456,8.90776265 L24.0161735,10.0496676 L26.5240691,7.42308841 C27.0996842,6.81808511 28.0519781,6.78558841 28.6722407,7.34142287 L28.6722407,7.34142287 L30.8653424,9.31354723 L30.8653424,3.08661903 Z M10.8027427,6.17295543 C11.6547207,6.17295543 12.3461935,6.86301531 12.3461935,7.71640627 C12.3461935,8.56979723 11.6547207,9.25957447 10.8027427,9.25957447 L1.5431682,9.25957447 C0.691472757,9.25957447 6.82574564e-15,8.56979723 6.82574564e-15,7.71640627 C6.82574564e-15,6.86301531 0.691472757,6.17295543 1.5431682,6.17295543 L10.8027427,6.17295543 Z M10.8027427,-5.77315973e-14 C11.6547207,-5.77315973e-14 12.3461935,0.689777243 12.3461935,1.5431682 C12.3461935,2.39655916 11.6547207,3.08661903 10.8027427,3.08661903 L1.5431682,3.08661903 C0.691472757,3.08661903 6.82574564e-15,2.39655916 6.82574564e-15,1.5431682 C6.82574564e-15,0.689777243 0.691472757,-5.77315973e-14 1.5431682,-5.77315973e-14 L10.8027427,-5.77315973e-14 Z" id="Combined-Shape"></path>
        </g>
    </g>
</svg>