<?xml version="1.0" encoding="UTF-8"?>
<svg width="59px" height="33px" viewBox="0 0 59 33" version="1.1" xmlns="http://www.w3.org/2000/svg" xmlns:xlink="http://www.w3.org/1999/xlink">
    <!-- Generator: Sketch 61.1 (89650) - https://sketch.com -->
    <title>Assignment</title>
    <desc>Created with Sketch.</desc>
    <g id="Assignment" stroke="none" stroke-width="1" fill="none" fill-rule="evenodd">
        <g id="test-(1)" transform="translate(19.000000, 7.000000)" fill-rule="nonzero">
            <path d="M2.96875,2.3828125 C2.96875,3.67542969 4.01988281,4.7265625 5.3125,4.7265625 L5.3125,4.7265625 L10,4.7265625 C11.2926172,4.7265625 12.3828125,3.67542969 12.3828125,2.3828125 L12.3828125,2.3828125 L13.5546875,2.3828125 C14.5239844,2.3828125 15.3125,3.17132813 15.3125,4.140625 L15.3125,4.140625 L15.3125,18.203125 C15.3125,19.1724219 14.5239844,20 13.5546875,20 L13.5546875,20 L1.796875,20 C0.827578125,20 0,19.1724219 0,18.203125 L0,18.203125 L0,4.140625 C0,3.17132813 0.827578125,2.3828125 1.796875,2.3828125 L1.796875,2.3828125 Z M17.4846094,15.1017578 C17.9023047,14.6840625 18.5821094,14.6840625 18.9998047,15.1017578 L18.9998047,15.1017578 L19.67,15.7719531 L18.7978125,18.3885156 C18.7182812,18.6276953 18.4945312,18.7890625 18.2421875,18.7890625 C17.9898437,18.7890625 17.7661328,18.6276953 17.6866016,18.3885156 L17.6866016,18.3885156 L16.8144141,15.7719531 Z M6.89867187,14.2732031 C6.66980469,14.0443359 6.29898437,14.0443359 6.07011719,14.2732031 L6.07011719,14.2732031 L4.140625,16.2026953 L3.38304687,15.4451172 C3.15417969,15.21625 2.78335937,15.21625 2.55449219,15.4451172 C2.32558594,15.6739844 2.32558594,16.0447656 2.55453125,16.2736328 L2.55453125,16.2736328 L3.72640625,17.4455078 C3.84082031,17.5599609 3.99078125,17.6171875 4.14066406,17.6171875 C4.29054687,17.6171875 4.44046875,17.5599609 4.55492187,17.4455078 L4.55492187,17.4455078 L6.89867187,15.1017578 C7.12753906,14.8728906 7.12753906,14.5020703 6.89867187,14.2732031 Z M12.3828125,15.2734375 L8.828125,15.2734375 C8.50425781,15.2734375 8.2421875,15.5355078 8.2421875,15.859375 C8.2421875,16.1832422 8.50425781,16.4453125 8.828125,16.4453125 L8.828125,16.4453125 L12.3828125,16.4453125 C12.7066797,16.4453125 12.96875,16.1832422 12.96875,15.859375 C12.96875,15.5355078 12.7066797,15.2734375 12.3828125,15.2734375 L12.3828125,15.2734375 Z M20.0000391,8.2421875 L20.0000391,14.4448828 L19.8283594,14.2732031 C18.9540234,13.3988672 17.5303906,13.3988672 16.6560547,14.2732031 L16.6560547,14.2732031 L16.4844141,14.4448828 L16.4844141,8.2421875 L20.0000391,8.2421875 Z M6.89867187,10.1716406 C6.66980469,9.94277344 6.29898437,9.94277344 6.07011719,10.1716406 L6.07011719,10.1716406 L4.140625,12.1011328 L3.38304687,11.3435547 C3.15417969,11.1146875 2.78335937,11.1146875 2.55449219,11.3435547 C2.32558594,11.5724219 2.32558594,11.9432031 2.55453125,12.1720703 L2.55453125,12.1720703 L3.72640625,13.3439453 C3.84082031,13.4583984 3.99078125,13.515625 4.14066406,13.515625 C4.29054687,13.515625 4.44046875,13.4583984 4.55492187,13.3439453 L4.55492187,13.3439453 L6.89867187,11.0001953 C7.12753906,10.7713281 7.12753906,10.4005078 6.89867187,10.1716406 Z M12.3828125,11.171875 L8.828125,11.171875 C8.50425781,11.171875 8.2421875,11.4339453 8.2421875,11.7578125 C8.2421875,12.0816797 8.50425781,12.34375 8.828125,12.34375 L8.828125,12.34375 L12.3828125,12.34375 C12.7066797,12.34375 12.96875,12.0816797 12.96875,11.7578125 C12.96875,11.4339453 12.7066797,11.171875 12.3828125,11.171875 L12.3828125,11.171875 Z M3.38304687,6.07007813 C3.15417969,5.84121094 2.78335937,5.84121094 2.55449219,6.07007813 C2.325625,6.29894531 2.325625,6.66976562 2.55449219,6.89863281 L2.55449219,6.89863281 L3.31207031,7.65625 L2.55445312,8.41386719 C2.32558594,8.64273437 2.32558594,9.01355469 2.55445312,9.24242188 C2.78332031,9.47128906 3.15414062,9.47128906 3.38300781,9.24242188 L3.38300781,9.24242188 L4.140625,8.48480469 L4.89824219,9.24242187 C5.12710937,9.47128906 5.49792969,9.47128906 5.72679687,9.24242187 C5.95566406,9.01355469 5.95566406,8.64273437 5.72679687,8.41386719 L5.72679687,8.41386719 L4.96917969,7.65625 L5.72679687,6.89863281 C5.95566406,6.66976562 5.95566406,6.29894531 5.72679687,6.07007812 C5.49792969,5.84121094 5.12710937,5.84121094 4.89824219,6.07007812 L4.89824219,6.07007812 L4.140625,6.82769531 Z M12.3828125,7.0703125 L8.828125,7.0703125 C8.50425781,7.0703125 8.2421875,7.33238281 8.2421875,7.65625 C8.2421875,7.98011719 8.50425781,8.2421875 8.828125,8.2421875 L8.828125,8.2421875 L12.3828125,8.2421875 C12.7066797,8.2421875 12.96875,7.98011719 12.96875,7.65625 C12.96875,7.33238281 12.7066797,7.0703125 12.3828125,7.0703125 L12.3828125,7.0703125 Z M18.2421875,3.5546875 C19.2114844,3.5546875 20,4.34320313 20,5.3125 L20,5.3125 L20,7.0703125 L16.484375,7.0703125 L16.484375,5.3125 C16.484375,4.34320313 17.2728906,3.5546875 18.2421875,3.5546875 Z M7.65625,0 C8.30347656,0 8.828125,0.524648438 8.828125,1.171875 L8.828125,1.171875 L10.5859375,1.171875 C10.9095312,1.171875 11.171875,1.47328125 11.171875,1.796875 L11.171875,1.796875 L11.171875,2.3828125 C11.171875,3.03003906 10.6472266,3.5546875 10,3.5546875 L10,3.5546875 L5.3125,3.5546875 C4.66527344,3.5546875 4.140625,3.03003906 4.140625,2.3828125 L4.140625,2.3828125 L4.140625,1.796875 C4.140625,1.47328125 4.40296875,1.171875 4.7265625,1.171875 L4.7265625,1.171875 L6.484375,1.171875 C6.484375,0.524648438 7.00902344,0 7.65625,0 Z" id="Combined-Shape" fill-opacity="0.25" fill="#FFFFFF"></path>
            <g id="Group" transform="translate(16.445312, 8.242188)" fill="#000000">
                <polygon id="Path" points="0.0821132812 6.24566406 0.0821132812 6.24566406 0.0819882813 6.24566406"></polygon>
            </g>
        </g>
    </g>
</svg>