<?xml version="1.0" encoding="UTF-8"?>
<svg width="72px" height="40px" viewBox="0 0 72 40" version="1.1" xmlns="http://www.w3.org/2000/svg" xmlns:xlink="http://www.w3.org/1999/xlink">
    <!-- Generator: Sketch 61.1 (89650) - https://sketch.com -->
    <title>Lesson</title>
    <desc>Created with Sketch.</desc>
    <g id="Lesson" stroke="none" stroke-width="1" fill="none" fill-rule="evenodd" fill-opacity="0.25">
        <g id="list-(2)" transform="translate(17.000000, 2.000000)" fill="#FFFFFF" fill-rule="nonzero">
            <path d="M30.7521307,9.73934659 C33.9541193,9.73934659 36.4244318,12.5646307 36.0042614,15.737642 L36.0042614,15.737642 L33.9106534,31.4071023 C33.5556818,34.0223011 31.3026989,36 28.6585227,36 L28.6585227,36 L7.4109375,36 C4.76676136,36 2.50653409,34.0295455 2.15880682,31.4071023 L2.15880682,31.4071023 L0.0724431818,15.737642 C-0.347727273,12.5573864 2.12982955,9.73934659 5.32457386,9.73934659 L5.32457386,9.73934659 Z M17.8934659,16.4330966 C17.7703125,16.3896307 17.6399148,16.3896307 17.5167614,16.4330966 L17.5167614,16.4330966 L9.6421875,19.2801136 C9.41761364,19.3598011 9.26548295,19.5698864 9.26548295,19.8089489 C9.26548295,20.0480114 9.41761364,20.2580966 9.6421875,20.3377841 L9.6421875,20.3377841 L17.5167614,23.1485795 C17.5747159,23.1703125 17.6399148,23.1848011 17.7051136,23.1848011 C17.7703125,23.1848011 17.8355114,23.1703125 17.8934659,23.1485795 L17.8934659,23.1485795 L25.0508523,20.6058239 L25.0508523,24.7350852 L23.9859375,26.8649148 C23.8482955,27.1401989 23.9642045,27.4806818 24.2394886,27.6183239 C24.5147727,27.7559659 24.8552557,27.6400568 24.9928977,27.3647727 L24.9928977,27.3647727 L25.0508523,27.2488636 L25.0508523,28.2413352 C25.0508523,28.5528409 25.3044034,28.806392 25.6159091,28.806392 C25.9274148,28.806392 26.1809659,28.5528409 26.1809659,28.2413352 L26.1809659,28.2413352 L26.1809659,27.2488636 L26.2389205,27.3647727 C26.3330966,27.5603693 26.5286932,27.6762784 26.7387784,27.6762784 C26.8257102,27.6762784 26.912642,27.6617898 26.9923295,27.6183239 C27.2676136,27.4806818 27.3762784,27.1401989 27.2386364,26.8649148 L27.2386364,26.8649148 L26.1737216,24.7350852 L26.1737216,19.8089489 C26.1737216,19.5988636 26.0215909,19.3670455 25.8115057,19.287358 C25.8115057,19.287358 25.8115057,19.2801136 25.8042614,19.2801136 L25.8042614,19.2801136 Z M22.7544034,22.5980114 L17.8862216,24.3366477 C17.828267,24.3583807 17.7630682,24.3728693 17.6978693,24.3728693 C17.6326705,24.3728693 17.5674716,24.3583807 17.509517,24.3366477 L17.509517,24.3366477 L12.6413352,22.5980114 L12.6413352,24.5901989 C12.6413352,24.8292614 12.7934659,25.0393466 13.0180398,25.1190341 L13.0180398,25.1190341 L17.5167614,26.7272727 C17.5747159,26.7490057 17.6399148,26.7634943 17.7051136,26.7634943 C17.7703125,26.7634943 17.8355114,26.7490057 17.8934659,26.7272727 L17.8934659,26.7272727 L22.3849432,25.1262784 C22.609517,25.0465909 22.7616477,24.8365057 22.7616477,24.5974432 L22.7616477,24.5974432 L22.7544034,24.5974432 L22.7544034,22.5980114 Z M30.6460227,4.36363636 C31.4863636,4.36363636 32.1673295,4.85194805 32.1673295,5.45454545 C32.1673295,6.05714286 31.4863636,6.54545455 30.6460227,6.54545455 L30.6460227,6.54545455 L5.88494318,6.54545455 C5.04460227,6.54545455 4.36363636,6.05714286 4.36363636,5.45454545 C4.36363636,4.85194805 5.04460227,4.36363636 5.88494318,4.36363636 L5.88494318,4.36363636 Z M28.1007102,0.00724431818 C28.9410511,0.00724431818 29.622017,0.495556006 29.622017,1.09815341 C29.622017,1.70075081 28.9410511,2.1890625 28.1007102,2.1890625 L28.1007102,2.1890625 L7.98323864,2.1890625 C7.13565341,2.1890625 6.46193182,1.70075081 6.46193182,1.09815341 C6.46193182,0.495556006 7.14289773,0.00724431818 7.98323864,0.00724431818 L7.98323864,0.00724431818 Z" id="Combined-Shape"></path>
        </g>
    </g>
</svg>