<?xml version="1.0" encoding="UTF-8"?>
<svg width="59px" height="33px" viewBox="0 0 59 33" version="1.1" xmlns="http://www.w3.org/2000/svg" xmlns:xlink="http://www.w3.org/1999/xlink">
    <!-- Generator: Sketch 61.1 (89650) - https://sketch.com -->
    <title>Lesson</title>
    <desc>Created with Sketch.</desc>
    <g id="Lesson" stroke="none" stroke-width="1" fill="none" fill-rule="evenodd" fill-opacity="0.25">
        <g id="list-(2)" transform="translate(19.000000, 5.000000)" fill="#FFFFFF" fill-rule="nonzero">
            <path d="M17.084517,5.41074811 C18.8633996,5.41074811 20.2357955,6.98035038 20.0023674,8.74313447 L20.0023674,8.74313447 L18.8392519,17.4483902 C18.6420455,18.9012784 17.3903883,20 15.9214015,20 L15.9214015,20 L4.1171875,20 C2.64820076,20 1.39251894,18.905303 1.19933712,17.4483902 L1.19933712,17.4483902 L0.0402462121,8.74313447 C-0.193181818,6.97632576 1.18323864,5.41074811 2.95809659,5.41074811 L2.95809659,5.41074811 Z M9.94081439,9.12949811 C9.87239583,9.10535038 9.79995265,9.10535038 9.73153409,9.12949811 L9.73153409,9.12949811 L5.35677083,10.7111742 C5.23200758,10.7554451 5.14749053,10.8721591 5.14749053,11.0049716 C5.14749053,11.1377841 5.23200758,11.2544981 5.35677083,11.2987689 L5.35677083,11.2987689 L9.73153409,12.860322 C9.76373106,12.8723958 9.79995265,12.8804451 9.83617424,12.8804451 C9.87239583,12.8804451 9.90861742,12.8723958 9.94081439,12.860322 L9.94081439,12.860322 L13.9171402,11.4476799 L13.9171402,13.741714 L13.3255208,14.9249527 C13.249053,15.0778883 13.313447,15.2670455 13.4663826,15.3435133 C13.6193182,15.4199811 13.8084754,15.3555871 13.8849432,15.2026515 L13.8849432,15.2026515 L13.9171402,15.1382576 L13.9171402,15.6896307 C13.9171402,15.8626894 14.0580019,16.0035511 14.2310606,16.0035511 C14.4041193,16.0035511 14.5449811,15.8626894 14.5449811,15.6896307 L14.5449811,15.6896307 L14.5449811,15.1382576 L14.577178,15.2026515 C14.6294981,15.3113163 14.7381629,15.3757102 14.8548769,15.3757102 C14.9031723,15.3757102 14.9514678,15.367661 14.9957386,15.3435133 C15.1486742,15.2670455 15.2090436,15.0778883 15.1325758,14.9249527 L15.1325758,14.9249527 L14.5409564,13.741714 L14.5409564,11.0049716 C14.5409564,10.8882576 14.4564394,10.7594697 14.3397254,10.7151989 C14.3397254,10.7151989 14.3397254,10.7111742 14.3357008,10.7111742 L14.3357008,10.7111742 Z M12.6413352,12.5544508 L9.93678977,13.5203598 C9.9045928,13.5324337 9.86837121,13.540483 9.83214962,13.540483 C9.79592803,13.540483 9.75970644,13.5324337 9.72750947,13.5203598 L9.72750947,13.5203598 L7.02296402,12.5544508 L7.02296402,13.6612216 C7.02296402,13.7940341 7.10748106,13.9107481 7.23224432,13.9550189 L7.23224432,13.9550189 L9.73153409,14.8484848 C9.76373106,14.8605587 9.79995265,14.868608 9.83617424,14.868608 C9.87239583,14.868608 9.90861742,14.8605587 9.94081439,14.8484848 L9.94081439,14.8484848 L12.4360795,13.9590436 C12.5608428,13.9147727 12.6453598,13.7980587 12.6453598,13.6652462 L12.6453598,13.6652462 L12.6413352,13.6652462 L12.6413352,12.5544508 Z M17.0255682,2.42424242 C17.4924242,2.42424242 17.8707386,2.6955267 17.8707386,3.03030303 C17.8707386,3.36507937 17.4924242,3.63636364 17.0255682,3.63636364 L17.0255682,3.63636364 L3.26941288,3.63636364 C2.80255682,3.63636364 2.42424242,3.36507937 2.42424242,3.03030303 C2.42424242,2.6955267 2.80255682,2.42424242 3.26941288,2.42424242 L3.26941288,2.42424242 Z M15.6115057,0.00402462121 C16.0783617,0.00402462121 16.4566761,0.275308892 16.4566761,0.610085227 C16.4566761,0.944861562 16.0783617,1.21614583 15.6115057,1.21614583 L15.6115057,1.21614583 L4.43513258,1.21614583 C3.96425189,1.21614583 3.58996212,0.944861562 3.58996212,0.610085227 C3.58996212,0.275308892 3.96827652,0.00402462121 4.43513258,0.00402462121 L4.43513258,0.00402462121 Z" id="Combined-Shape"></path>
        </g>
    </g>
</svg>